<?xml version="1.0" encoding="utf-8" standalone="no"?>
<!DOCTYPE svg PUBLIC "-//W3C//DTD SVG 1.1//EN"
  "http://www.w3.org/Graphics/SVG/1.1/DTD/svg11.dtd">
<svg xmlns:xlink="http://www.w3.org/1999/xlink" width="674.151406pt" height="350.608516pt" viewBox="0 0 674.151406 350.608516" xmlns="http://www.w3.org/2000/svg" version="1.1">
 <metadata>
  <rdf:RDF xmlns:dc="http://purl.org/dc/elements/1.1/" xmlns:cc="http://creativecommons.org/ns#" xmlns:rdf="http://www.w3.org/1999/02/22-rdf-syntax-ns#">
   <cc:Work>
    <dc:type rdf:resource="http://purl.org/dc/dcmitype/StillImage"/>
    <dc:date>2026-07-23T13:19:13.263374</dc:date>
    <dc:format>image/svg+xml</dc:format>
    <dc:creator>
     <cc:Agent>
      <dc:title>Matplotlib v3.11.1, https://matplotlib.org/</dc:title>
     </cc:Agent>
    </dc:creator>
   </cc:Work>
  </rdf:RDF>
 </metadata>
 <defs>
  <style type="text/css">*{stroke-linejoin: round; stroke-linecap: butt}</style>
 </defs>
 <g id="figure_1">
  <g id="patch_1">
   <path d="M 0 350.608516 
L 674.151406 350.608516 
L 674.151406 0 
L 0 0 
z
" style="fill: #ffffff"/>
  </g>
  <g id="axes_1">
   <g id="patch_2">
    <path d="M 134.311406 311.761816 
L 666.951406 311.761816 
L 666.951406 7.2 
L 134.311406 7.2 
z
" style="fill: #ffffff"/>
   </g>
   <g id="patch_3">
    <path d="M 134.311406 297.918097 
L 374.202317 297.918097 
L 374.202317 264.449766 
L 134.311406 264.449766 
z
" clip-path="url(#p7c41669dc0)" style="fill: #cbd5e1; stroke: #334155; stroke-linejoin: miter"/>
   </g>
   <g id="patch_4">
    <path d="M 134.311406 237.066586 
L 206.344625 237.066586 
L 206.344625 203.598254 
L 134.311406 203.598254 
z
" clip-path="url(#p7c41669dc0)" style="fill: #cbd5e1; stroke: #334155; stroke-linejoin: miter"/>
   </g>
   <g id="patch_5">
    <path d="M 134.311406 176.215074 
L 218.265616 176.215074 
L 218.265616 142.746742 
L 134.311406 142.746742 
z
" clip-path="url(#p7c41669dc0)" style="fill: #cbd5e1; stroke: #334155; stroke-linejoin: miter"/>
   </g>
   <g id="patch_6">
    <path d="M 134.311406 115.363562 
L 246.419444 115.363562 
L 246.419444 81.895231 
L 134.311406 81.895231 
z
" clip-path="url(#p7c41669dc0)" style="fill: #cbd5e1; stroke: #334155; stroke-linejoin: miter"/>
   </g>
   <g id="patch_7">
    <path d="M 134.311406 54.51205 
L 229.780785 54.51205 
L 229.780785 21.043719 
L 134.311406 21.043719 
z
" clip-path="url(#p7c41669dc0)" style="fill: #cbd5e1; stroke: #334155; stroke-linejoin: miter"/>
   </g>
   <g id="patch_8">
    <path d="M 374.202317 297.918097 
L 501.021364 297.918097 
L 501.021364 264.449766 
L 374.202317 264.449766 
z
" clip-path="url(#p7c41669dc0)" style="fill: #64748b; stroke: #334155; stroke-linejoin: miter"/>
   </g>
   <g id="patch_9">
    <path d="M 206.344625 237.066586 
L 333.163673 237.066586 
L 333.163673 203.598254 
L 206.344625 203.598254 
z
" clip-path="url(#p7c41669dc0)" style="fill: #64748b; stroke: #334155; stroke-linejoin: miter"/>
   </g>
   <g id="patch_10">
    <path d="M 218.265616 176.215074 
L 345.084663 176.215074 
L 345.084663 142.746742 
L 218.265616 142.746742 
z
" clip-path="url(#p7c41669dc0)" style="fill: #64748b; stroke: #334155; stroke-linejoin: miter"/>
   </g>
   <g id="patch_11">
    <path d="M 246.419444 115.363562 
L 373.238492 115.363562 
L 373.238492 81.895231 
L 246.419444 81.895231 
z
" clip-path="url(#p7c41669dc0)" style="fill: #64748b; stroke: #334155; stroke-linejoin: miter"/>
   </g>
   <g id="patch_12">
    <path d="M 229.780785 54.51205 
L 356.599833 54.51205 
L 356.599833 21.043719 
L 229.780785 21.043719 
z
" clip-path="url(#p7c41669dc0)" style="fill: #64748b; stroke: #334155; stroke-linejoin: miter"/>
   </g>
   <g id="matplotlib.axis_1">
    <g id="xtick_1">
     <g id="line2d_1">
      <path d="M 134.311406 311.761816 
L 134.311406 7.2 
" clip-path="url(#p7c41669dc0)" style="fill: none; stroke-dasharray: 0.8,1.32; stroke-dashoffset: 0; stroke: #b0b0b0; stroke-opacity: 0.4; stroke-width: 0.8"/>
     </g>
     <g id="line2d_2">
      <defs>
       <path id="mf22f48a466" d="M 0 0 
L 0 3.5 
" style="stroke: #000000; stroke-width: 0.8"/>
      </defs>
      <g>
       <use xlink:href="#mf22f48a466" x="134.311406" y="311.761816" style="stroke: #000000; stroke-width: 0.8"/>
      </g>
     </g>
     <g id="text_1">
      <!-- 0 -->
      <g transform="translate(131.252891 326.770117) scale(0.11 -0.11)">
       <defs>
        <path id="ArialMT-13" d="M 266 2259 
Q 266 3072 433 3567 
Q 600 4063 929 4331 
Q 1259 4600 1759 4600 
Q 2128 4600 2406 4451 
Q 2684 4303 2865 4023 
Q 3047 3744 3150 3342 
Q 3253 2941 3253 2259 
Q 3253 1453 3087 958 
Q 2922 463 2592 192 
Q 2263 -78 1759 -78 
Q 1097 -78 719 397 
Q 266 969 266 2259 
z
M 844 2259 
Q 844 1131 1108 757 
Q 1372 384 1759 384 
Q 2147 384 2411 759 
Q 2675 1134 2675 2259 
Q 2675 3391 2411 3762 
Q 2147 4134 1753 4134 
Q 1366 4134 1134 3806 
Q 844 3388 844 2259 
z
" transform="scale(0.015625)"/>
       </defs>
       <use xlink:href="#ArialMT-13"/>
      </g>
     </g>
    </g>
    <g id="xtick_2">
     <g id="line2d_3">
      <path d="M 235.766644 311.761816 
L 235.766644 7.2 
" clip-path="url(#p7c41669dc0)" style="fill: none; stroke-dasharray: 0.8,1.32; stroke-dashoffset: 0; stroke: #b0b0b0; stroke-opacity: 0.4; stroke-width: 0.8"/>
     </g>
     <g id="line2d_4">
      <g>
       <use xlink:href="#mf22f48a466" x="235.766644" y="311.761816" style="stroke: #000000; stroke-width: 0.8"/>
      </g>
     </g>
     <g id="text_2">
      <!-- 20 -->
      <g transform="translate(229.649613 326.770117) scale(0.11 -0.11)">
       <defs>
        <path id="ArialMT-15" d="M 3222 541 
L 3222 0 
L 194 0 
Q 188 203 259 391 
Q 375 700 629 1000 
Q 884 1300 1366 1694 
Q 2113 2306 2375 2664 
Q 2638 3022 2638 3341 
Q 2638 3675 2398 3904 
Q 2159 4134 1775 4134 
Q 1369 4134 1125 3890 
Q 881 3647 878 3216 
L 300 3275 
Q 359 3922 746 4261 
Q 1134 4600 1788 4600 
Q 2447 4600 2831 4234 
Q 3216 3869 3216 3328 
Q 3216 3053 3103 2787 
Q 2991 2522 2730 2228 
Q 2469 1934 1863 1422 
Q 1356 997 1212 845 
Q 1069 694 975 541 
L 3222 541 
z
" transform="scale(0.015625)"/>
       </defs>
       <use xlink:href="#ArialMT-15"/>
       <use xlink:href="#ArialMT-13" transform="translate(55.609375 0)"/>
      </g>
     </g>
    </g>
    <g id="xtick_3">
     <g id="line2d_5">
      <path d="M 337.221882 311.761816 
L 337.221882 7.2 
" clip-path="url(#p7c41669dc0)" style="fill: none; stroke-dasharray: 0.8,1.32; stroke-dashoffset: 0; stroke: #b0b0b0; stroke-opacity: 0.4; stroke-width: 0.8"/>
     </g>
     <g id="line2d_6">
      <g>
       <use xlink:href="#mf22f48a466" x="337.221882" y="311.761816" style="stroke: #000000; stroke-width: 0.8"/>
      </g>
     </g>
     <g id="text_3">
      <!-- 40 -->
      <g transform="translate(331.104851 326.770117) scale(0.11 -0.11)">
       <defs>
        <path id="ArialMT-17" d="M 2069 0 
L 2069 1097 
L 81 1097 
L 81 1613 
L 2172 4581 
L 2631 4581 
L 2631 1613 
L 3250 1613 
L 3250 1097 
L 2631 1097 
L 2631 0 
L 2069 0 
z
M 2069 1613 
L 2069 3678 
L 634 1613 
L 2069 1613 
z
" transform="scale(0.015625)"/>
       </defs>
       <use xlink:href="#ArialMT-17"/>
       <use xlink:href="#ArialMT-13" transform="translate(55.609375 0)"/>
      </g>
     </g>
    </g>
    <g id="xtick_4">
     <g id="line2d_7">
      <path d="M 438.677121 311.761816 
L 438.677121 7.2 
" clip-path="url(#p7c41669dc0)" style="fill: none; stroke-dasharray: 0.8,1.32; stroke-dashoffset: 0; stroke: #b0b0b0; stroke-opacity: 0.4; stroke-width: 0.8"/>
     </g>
     <g id="line2d_8">
      <g>
       <use xlink:href="#mf22f48a466" x="438.677121" y="311.761816" style="stroke: #000000; stroke-width: 0.8"/>
      </g>
     </g>
     <g id="text_4">
      <!-- 60 -->
      <g transform="translate(432.560089 326.770117) scale(0.11 -0.11)">
       <defs>
        <path id="ArialMT-19" d="M 3184 3459 
L 2625 3416 
Q 2550 3747 2413 3897 
Q 2184 4138 1850 4138 
Q 1581 4138 1378 3988 
Q 1113 3794 959 3422 
Q 806 3050 800 2363 
Q 1003 2672 1297 2822 
Q 1591 2972 1913 2972 
Q 2475 2972 2870 2558 
Q 3266 2144 3266 1488 
Q 3266 1056 3080 686 
Q 2894 316 2569 119 
Q 2244 -78 1831 -78 
Q 1128 -78 684 439 
Q 241 956 241 2144 
Q 241 3472 731 4075 
Q 1159 4600 1884 4600 
Q 2425 4600 2770 4297 
Q 3116 3994 3184 3459 
z
M 888 1484 
Q 888 1194 1011 928 
Q 1134 663 1356 523 
Q 1578 384 1822 384 
Q 2178 384 2434 671 
Q 2691 959 2691 1453 
Q 2691 1928 2437 2201 
Q 2184 2475 1800 2475 
Q 1419 2475 1153 2201 
Q 888 1928 888 1484 
z
" transform="scale(0.015625)"/>
       </defs>
       <use xlink:href="#ArialMT-19"/>
       <use xlink:href="#ArialMT-13" transform="translate(55.609375 0)"/>
      </g>
     </g>
    </g>
    <g id="xtick_5">
     <g id="line2d_9">
      <path d="M 540.132359 311.761816 
L 540.132359 7.2 
" clip-path="url(#p7c41669dc0)" style="fill: none; stroke-dasharray: 0.8,1.32; stroke-dashoffset: 0; stroke: #b0b0b0; stroke-opacity: 0.4; stroke-width: 0.8"/>
     </g>
     <g id="line2d_10">
      <g>
       <use xlink:href="#mf22f48a466" x="540.132359" y="311.761816" style="stroke: #000000; stroke-width: 0.8"/>
      </g>
     </g>
     <g id="text_5">
      <!-- 80 -->
      <g transform="translate(534.015327 326.770117) scale(0.11 -0.11)">
       <defs>
        <path id="ArialMT-1b" d="M 1131 2484 
Q 781 2613 612 2850 
Q 444 3088 444 3419 
Q 444 3919 803 4259 
Q 1163 4600 1759 4600 
Q 2359 4600 2725 4251 
Q 3091 3903 3091 3403 
Q 3091 3084 2923 2848 
Q 2756 2613 2416 2484 
Q 2838 2347 3058 2040 
Q 3278 1734 3278 1309 
Q 3278 722 2862 322 
Q 2447 -78 1769 -78 
Q 1091 -78 675 323 
Q 259 725 259 1325 
Q 259 1772 486 2073 
Q 713 2375 1131 2484 
z
M 1019 3438 
Q 1019 3113 1228 2906 
Q 1438 2700 1772 2700 
Q 2097 2700 2305 2904 
Q 2513 3109 2513 3406 
Q 2513 3716 2298 3927 
Q 2084 4138 1766 4138 
Q 1444 4138 1231 3931 
Q 1019 3725 1019 3438 
z
M 838 1322 
Q 838 1081 952 856 
Q 1066 631 1291 507 
Q 1516 384 1775 384 
Q 2178 384 2440 643 
Q 2703 903 2703 1303 
Q 2703 1709 2433 1975 
Q 2163 2241 1756 2241 
Q 1359 2241 1098 1978 
Q 838 1716 838 1322 
z
" transform="scale(0.015625)"/>
       </defs>
       <use xlink:href="#ArialMT-1b"/>
       <use xlink:href="#ArialMT-13" transform="translate(55.609375 0)"/>
      </g>
     </g>
    </g>
    <g id="xtick_6">
     <g id="line2d_11">
      <path d="M 641.587597 311.761816 
L 641.587597 7.2 
" clip-path="url(#p7c41669dc0)" style="fill: none; stroke-dasharray: 0.8,1.32; stroke-dashoffset: 0; stroke: #b0b0b0; stroke-opacity: 0.4; stroke-width: 0.8"/>
     </g>
     <g id="line2d_12">
      <g>
       <use xlink:href="#mf22f48a466" x="641.587597" y="311.761816" style="stroke: #000000; stroke-width: 0.8"/>
      </g>
     </g>
     <g id="text_6">
      <!-- 100 -->
      <g transform="translate(632.41205 326.770117) scale(0.11 -0.11)">
       <defs>
        <path id="ArialMT-14" d="M 2384 0 
L 1822 0 
L 1822 3584 
Q 1619 3391 1289 3197 
Q 959 3003 697 2906 
L 697 3450 
Q 1169 3672 1522 3987 
Q 1875 4303 2022 4600 
L 2384 4600 
L 2384 0 
z
" transform="scale(0.015625)"/>
       </defs>
       <use xlink:href="#ArialMT-14"/>
       <use xlink:href="#ArialMT-13" transform="translate(55.609375 0)"/>
       <use xlink:href="#ArialMT-13" transform="translate(111.21875 0)"/>
      </g>
     </g>
    </g>
    <g id="text_7">
     <!-- End-to-End Cyber-Physical Latency (ms) -->
     <g transform="translate(294.285469 341.093359) scale(0.11 -0.11)">
      <defs>
       <path id="Arial-BoldMT-28" d="M 466 0 
L 466 4581 
L 3863 4581 
L 3863 3806 
L 1391 3806 
L 1391 2791 
L 3691 2791 
L 3691 2019 
L 1391 2019 
L 1391 772 
L 3950 772 
L 3950 0 
L 466 0 
z
" transform="scale(0.015625)"/>
       <path id="Arial-BoldMT-51" d="M 3478 0 
L 2600 0 
L 2600 1694 
Q 2600 2231 2544 2389 
Q 2488 2547 2361 2634 
Q 2234 2722 2056 2722 
Q 1828 2722 1647 2597 
Q 1466 2472 1398 2265 
Q 1331 2059 1331 1503 
L 1331 0 
L 453 0 
L 453 3319 
L 1269 3319 
L 1269 2831 
Q 1703 3394 2363 3394 
Q 2653 3394 2893 3289 
Q 3134 3184 3257 3021 
Q 3381 2859 3429 2653 
Q 3478 2447 3478 2063 
L 3478 0 
z
" transform="scale(0.015625)"/>
       <path id="Arial-BoldMT-47" d="M 3503 0 
L 2688 0 
L 2688 488 
Q 2484 203 2207 64 
Q 1931 -75 1650 -75 
Q 1078 -75 670 386 
Q 263 847 263 1672 
Q 263 2516 659 2955 
Q 1056 3394 1663 3394 
Q 2219 3394 2625 2931 
L 2625 4581 
L 3503 4581 
L 3503 0 
z
M 1159 1731 
Q 1159 1200 1306 963 
Q 1519 619 1900 619 
Q 2203 619 2415 876 
Q 2628 1134 2628 1647 
Q 2628 2219 2422 2470 
Q 2216 2722 1894 2722 
Q 1581 2722 1370 2473 
Q 1159 2225 1159 1731 
z
" transform="scale(0.015625)"/>
       <path id="Arial-BoldMT-10" d="M 359 1222 
L 359 2100 
L 2084 2100 
L 2084 1222 
L 359 1222 
z
" transform="scale(0.015625)"/>
       <path id="Arial-BoldMT-57" d="M 1981 3319 
L 1981 2619 
L 1381 2619 
L 1381 1281 
Q 1381 875 1398 808 
Q 1416 741 1477 697 
Q 1538 653 1625 653 
Q 1747 653 1978 738 
L 2053 56 
Q 1747 -75 1359 -75 
Q 1122 -75 931 4 
Q 741 84 652 211 
Q 563 338 528 553 
Q 500 706 500 1172 
L 500 2619 
L 97 2619 
L 97 3319 
L 500 3319 
L 500 3978 
L 1381 4491 
L 1381 3319 
L 1981 3319 
z
" transform="scale(0.015625)"/>
       <path id="Arial-BoldMT-52" d="M 256 1706 
Q 256 2144 472 2553 
Q 688 2963 1083 3178 
Q 1478 3394 1966 3394 
Q 2719 3394 3200 2905 
Q 3681 2416 3681 1669 
Q 3681 916 3195 420 
Q 2709 -75 1972 -75 
Q 1516 -75 1102 131 
Q 688 338 472 736 
Q 256 1134 256 1706 
z
M 1156 1659 
Q 1156 1166 1390 903 
Q 1625 641 1969 641 
Q 2313 641 2545 903 
Q 2778 1166 2778 1666 
Q 2778 2153 2545 2415 
Q 2313 2678 1969 2678 
Q 1625 2678 1390 2415 
Q 1156 2153 1156 1659 
z
" transform="scale(0.015625)"/>
       <path id="Arial-BoldMT-3" transform="scale(0.015625)"/>
       <path id="Arial-BoldMT-26" d="M 3397 1684 
L 4294 1400 
Q 4088 650 3608 286 
Q 3128 -78 2391 -78 
Q 1478 -78 890 545 
Q 303 1169 303 2250 
Q 303 3394 893 4026 
Q 1484 4659 2447 4659 
Q 3288 4659 3813 4163 
Q 4125 3869 4281 3319 
L 3366 3100 
Q 3284 3456 3026 3662 
Q 2769 3869 2400 3869 
Q 1891 3869 1573 3503 
Q 1256 3138 1256 2319 
Q 1256 1450 1568 1081 
Q 1881 713 2381 713 
Q 2750 713 3015 947 
Q 3281 1181 3397 1684 
z
" transform="scale(0.015625)"/>
       <path id="Arial-BoldMT-5c" d="M 44 3319 
L 978 3319 
L 1772 963 
L 2547 3319 
L 3456 3319 
L 2284 125 
L 2075 -453 
Q 1959 -744 1854 -897 
Q 1750 -1050 1614 -1145 
Q 1478 -1241 1279 -1294 
Q 1081 -1347 831 -1347 
Q 578 -1347 334 -1294 
L 256 -606 
Q 463 -647 628 -647 
Q 934 -647 1081 -467 
Q 1228 -288 1306 -9 
L 44 3319 
z
" transform="scale(0.015625)"/>
       <path id="Arial-BoldMT-45" d="M 422 0 
L 422 4581 
L 1300 4581 
L 1300 2931 
Q 1706 3394 2263 3394 
Q 2869 3394 3266 2955 
Q 3663 2516 3663 1694 
Q 3663 844 3258 384 
Q 2853 -75 2275 -75 
Q 1991 -75 1714 67 
Q 1438 209 1238 488 
L 1238 0 
L 422 0 
z
M 1294 1731 
Q 1294 1216 1456 969 
Q 1684 619 2063 619 
Q 2353 619 2558 867 
Q 2763 1116 2763 1650 
Q 2763 2219 2556 2470 
Q 2350 2722 2028 2722 
Q 1713 2722 1503 2476 
Q 1294 2231 1294 1731 
z
" transform="scale(0.015625)"/>
       <path id="Arial-BoldMT-48" d="M 2381 1056 
L 3256 909 
Q 3088 428 2723 176 
Q 2359 -75 1813 -75 
Q 947 -75 531 491 
Q 203 944 203 1634 
Q 203 2459 634 2926 
Q 1066 3394 1725 3394 
Q 2466 3394 2894 2905 
Q 3322 2416 3303 1406 
L 1103 1406 
Q 1113 1016 1316 798 
Q 1519 581 1822 581 
Q 2028 581 2168 693 
Q 2309 806 2381 1056 
z
M 2431 1944 
Q 2422 2325 2234 2523 
Q 2047 2722 1778 2722 
Q 1491 2722 1303 2513 
Q 1116 2303 1119 1944 
L 2431 1944 
z
" transform="scale(0.015625)"/>
       <path id="Arial-BoldMT-55" d="M 1300 0 
L 422 0 
L 422 3319 
L 1238 3319 
L 1238 2847 
Q 1447 3181 1614 3287 
Q 1781 3394 1994 3394 
Q 2294 3394 2572 3228 
L 2300 2463 
Q 2078 2606 1888 2606 
Q 1703 2606 1575 2504 
Q 1447 2403 1373 2137 
Q 1300 1872 1300 1025 
L 1300 0 
z
" transform="scale(0.015625)"/>
       <path id="Arial-BoldMT-33" d="M 466 0 
L 466 4581 
L 1950 4581 
Q 2794 4581 3050 4513 
Q 3444 4409 3709 4064 
Q 3975 3719 3975 3172 
Q 3975 2750 3822 2462 
Q 3669 2175 3433 2011 
Q 3197 1847 2953 1794 
Q 2622 1728 1994 1728 
L 1391 1728 
L 1391 0 
L 466 0 
z
M 1391 3806 
L 1391 2506 
L 1897 2506 
Q 2444 2506 2628 2578 
Q 2813 2650 2917 2803 
Q 3022 2956 3022 3159 
Q 3022 3409 2875 3571 
Q 2728 3734 2503 3775 
Q 2338 3806 1838 3806 
L 1391 3806 
z
" transform="scale(0.015625)"/>
       <path id="Arial-BoldMT-4b" d="M 1334 4581 
L 1334 2897 
Q 1759 3394 2350 3394 
Q 2653 3394 2897 3281 
Q 3141 3169 3264 2994 
Q 3388 2819 3433 2606 
Q 3478 2394 3478 1947 
L 3478 0 
L 2600 0 
L 2600 1753 
Q 2600 2275 2550 2415 
Q 2500 2556 2373 2639 
Q 2247 2722 2056 2722 
Q 1838 2722 1666 2615 
Q 1494 2509 1414 2295 
Q 1334 2081 1334 1663 
L 1334 0 
L 456 0 
L 456 4581 
L 1334 4581 
z
" transform="scale(0.015625)"/>
       <path id="Arial-BoldMT-56" d="M 150 947 
L 1031 1081 
Q 1088 825 1259 692 
Q 1431 559 1741 559 
Q 2081 559 2253 684 
Q 2369 772 2369 919 
Q 2369 1019 2306 1084 
Q 2241 1147 2013 1200 
Q 950 1434 666 1628 
Q 272 1897 272 2375 
Q 272 2806 612 3100 
Q 953 3394 1669 3394 
Q 2350 3394 2681 3172 
Q 3013 2950 3138 2516 
L 2309 2363 
Q 2256 2556 2107 2659 
Q 1959 2763 1684 2763 
Q 1338 2763 1188 2666 
Q 1088 2597 1088 2488 
Q 1088 2394 1175 2328 
Q 1294 2241 1995 2081 
Q 2697 1922 2975 1691 
Q 3250 1456 3250 1038 
Q 3250 581 2869 253 
Q 2488 -75 1741 -75 
Q 1063 -75 667 200 
Q 272 475 150 947 
z
" transform="scale(0.015625)"/>
       <path id="Arial-BoldMT-4c" d="M 459 3769 
L 459 4581 
L 1338 4581 
L 1338 3769 
L 459 3769 
z
M 459 0 
L 459 3319 
L 1338 3319 
L 1338 0 
L 459 0 
z
" transform="scale(0.015625)"/>
       <path id="Arial-BoldMT-46" d="M 3353 2338 
L 2488 2181 
Q 2444 2441 2289 2572 
Q 2134 2703 1888 2703 
Q 1559 2703 1364 2476 
Q 1169 2250 1169 1719 
Q 1169 1128 1367 884 
Q 1566 641 1900 641 
Q 2150 641 2309 783 
Q 2469 925 2534 1272 
L 3397 1125 
Q 3263 531 2881 228 
Q 2500 -75 1859 -75 
Q 1131 -75 698 384 
Q 266 844 266 1656 
Q 266 2478 700 2936 
Q 1134 3394 1875 3394 
Q 2481 3394 2839 3133 
Q 3197 2872 3353 2338 
z
" transform="scale(0.015625)"/>
       <path id="Arial-BoldMT-44" d="M 1116 2306 
L 319 2450 
Q 453 2931 781 3162 
Q 1109 3394 1756 3394 
Q 2344 3394 2631 3255 
Q 2919 3116 3036 2902 
Q 3153 2688 3153 2116 
L 3144 1091 
Q 3144 653 3186 445 
Q 3228 238 3344 0 
L 2475 0 
Q 2441 88 2391 259 
Q 2369 338 2359 363 
Q 2134 144 1878 34 
Q 1622 -75 1331 -75 
Q 819 -75 523 203 
Q 228 481 228 906 
Q 228 1188 362 1408 
Q 497 1628 739 1745 
Q 981 1863 1438 1950 
Q 2053 2066 2291 2166 
L 2291 2253 
Q 2291 2506 2166 2614 
Q 2041 2722 1694 2722 
Q 1459 2722 1328 2630 
Q 1197 2538 1116 2306 
z
M 2291 1594 
Q 2122 1538 1756 1459 
Q 1391 1381 1278 1306 
Q 1106 1184 1106 997 
Q 1106 813 1243 678 
Q 1381 544 1594 544 
Q 1831 544 2047 700 
Q 2206 819 2256 991 
Q 2291 1103 2291 1419 
L 2291 1594 
z
" transform="scale(0.015625)"/>
       <path id="Arial-BoldMT-4f" d="M 459 0 
L 459 4581 
L 1338 4581 
L 1338 0 
L 459 0 
z
" transform="scale(0.015625)"/>
       <path id="Arial-BoldMT-2f" d="M 491 0 
L 491 4544 
L 1416 4544 
L 1416 772 
L 3716 772 
L 3716 0 
L 491 0 
z
" transform="scale(0.015625)"/>
       <path id="Arial-BoldMT-b" d="M 1916 -1347 
L 1313 -1347 
Q 834 -625 584 153 
Q 334 931 334 1659 
Q 334 2563 644 3369 
Q 913 4069 1325 4659 
L 1925 4659 
Q 1497 3713 1336 3048 
Q 1175 2384 1175 1641 
Q 1175 1128 1270 590 
Q 1366 53 1531 -431 
Q 1641 -750 1916 -1347 
z
" transform="scale(0.015625)"/>
       <path id="Arial-BoldMT-50" d="M 394 3319 
L 1203 3319 
L 1203 2866 
Q 1638 3394 2238 3394 
Q 2556 3394 2790 3262 
Q 3025 3131 3175 2866 
Q 3394 3131 3647 3262 
Q 3900 3394 4188 3394 
Q 4553 3394 4806 3245 
Q 5059 3097 5184 2809 
Q 5275 2597 5275 2122 
L 5275 0 
L 4397 0 
L 4397 1897 
Q 4397 2391 4306 2534 
Q 4184 2722 3931 2722 
Q 3747 2722 3584 2609 
Q 3422 2497 3350 2280 
Q 3278 2063 3278 1594 
L 3278 0 
L 2400 0 
L 2400 1819 
Q 2400 2303 2353 2443 
Q 2306 2584 2207 2653 
Q 2109 2722 1941 2722 
Q 1738 2722 1575 2612 
Q 1413 2503 1342 2297 
Q 1272 2091 1272 1613 
L 1272 0 
L 394 0 
L 394 3319 
z
" transform="scale(0.015625)"/>
       <path id="Arial-BoldMT-c" d="M 216 -1347 
Q 475 -791 581 -494 
Q 688 -197 778 190 
Q 869 578 912 926 
Q 956 1275 956 1641 
Q 956 2384 797 3048 
Q 638 3713 209 4659 
L 806 4659 
Q 1278 3988 1539 3234 
Q 1800 2481 1800 1706 
Q 1800 1053 1594 306 
Q 1359 -531 822 -1347 
L 216 -1347 
z
" transform="scale(0.015625)"/>
      </defs>
      <use xlink:href="#Arial-BoldMT-28"/>
      <use xlink:href="#Arial-BoldMT-51" transform="translate(66.703125 0)"/>
      <use xlink:href="#Arial-BoldMT-47" transform="translate(127.78125 0)"/>
      <use xlink:href="#Arial-BoldMT-10" transform="translate(188.859375 0)"/>
      <use xlink:href="#Arial-BoldMT-57" transform="translate(222.15625 0)"/>
      <use xlink:href="#Arial-BoldMT-52" transform="translate(255.453125 0)"/>
      <use xlink:href="#Arial-BoldMT-10" transform="translate(316.53125 0)"/>
      <use xlink:href="#Arial-BoldMT-28" transform="translate(349.828125 0)"/>
      <use xlink:href="#Arial-BoldMT-51" transform="translate(416.53125 0)"/>
      <use xlink:href="#Arial-BoldMT-47" transform="translate(477.609375 0)"/>
      <use xlink:href="#Arial-BoldMT-3" transform="translate(538.6875 0)"/>
      <use xlink:href="#Arial-BoldMT-26" transform="translate(566.46875 0)"/>
      <use xlink:href="#Arial-BoldMT-5c" transform="translate(638.6875 0)"/>
      <use xlink:href="#Arial-BoldMT-45" transform="translate(694.296875 0)"/>
      <use xlink:href="#Arial-BoldMT-48" transform="translate(755.375 0)"/>
      <use xlink:href="#Arial-BoldMT-55" transform="translate(810.984375 0)"/>
      <use xlink:href="#Arial-BoldMT-10" transform="translate(849.90625 0)"/>
      <use xlink:href="#Arial-BoldMT-33" transform="translate(883.203125 0)"/>
      <use xlink:href="#Arial-BoldMT-4b" transform="translate(949.90625 0)"/>
      <use xlink:href="#Arial-BoldMT-5c" transform="translate(1010.984375 0)"/>
      <use xlink:href="#Arial-BoldMT-56" transform="translate(1066.59375 0)"/>
      <use xlink:href="#Arial-BoldMT-4c" transform="translate(1122.203125 0)"/>
      <use xlink:href="#Arial-BoldMT-46" transform="translate(1149.984375 0)"/>
      <use xlink:href="#Arial-BoldMT-44" transform="translate(1205.59375 0)"/>
      <use xlink:href="#Arial-BoldMT-4f" transform="translate(1261.203125 0)"/>
      <use xlink:href="#Arial-BoldMT-3" transform="translate(1288.984375 0)"/>
      <use xlink:href="#Arial-BoldMT-2f" transform="translate(1316.765625 0)"/>
      <use xlink:href="#Arial-BoldMT-44" transform="translate(1377.84375 0)"/>
      <use xlink:href="#Arial-BoldMT-57" transform="translate(1433.453125 0)"/>
      <use xlink:href="#Arial-BoldMT-48" transform="translate(1466.75 0)"/>
      <use xlink:href="#Arial-BoldMT-51" transform="translate(1522.359375 0)"/>
      <use xlink:href="#Arial-BoldMT-46" transform="translate(1583.4375 0)"/>
      <use xlink:href="#Arial-BoldMT-5c" transform="translate(1639.046875 0)"/>
      <use xlink:href="#Arial-BoldMT-3" transform="translate(1694.65625 0)"/>
      <use xlink:href="#Arial-BoldMT-b" transform="translate(1722.4375 0)"/>
      <use xlink:href="#Arial-BoldMT-50" transform="translate(1755.734375 0)"/>
      <use xlink:href="#Arial-BoldMT-56" transform="translate(1844.65625 0)"/>
      <use xlink:href="#Arial-BoldMT-c" transform="translate(1900.265625 0)"/>
     </g>
    </g>
   </g>
   <g id="matplotlib.axis_2">
    <g id="ytick_1">
     <g id="line2d_13">
      <defs>
       <path id="m1debf3b7c2" d="M 0 0 
L -3.5 0 
" style="stroke: #000000; stroke-width: 0.8"/>
      </defs>
      <g>
       <use xlink:href="#m1debf3b7c2" x="134.311406" y="281.183932" style="stroke: #000000; stroke-width: 0.8"/>
      </g>
     </g>
     <g id="text_8">
      <!-- YOLOv8n + ByteTrack -->
      <g transform="translate(12.069219 285.188082) scale(0.11 -0.11)">
       <defs>
        <path id="Arial-BoldMT-3c" d="M 1669 0 
L 1669 1928 
L -9 4581 
L 1075 4581 
L 2153 2769 
L 3209 4581 
L 4275 4581 
L 2591 1922 
L 2591 0 
L 1669 0 
z
" transform="scale(0.015625)"/>
        <path id="Arial-BoldMT-32" d="M 278 2263 
Q 278 2963 488 3438 
Q 644 3788 914 4066 
Q 1184 4344 1506 4478 
Q 1934 4659 2494 4659 
Q 3506 4659 4114 4031 
Q 4722 3403 4722 2284 
Q 4722 1175 4119 548 
Q 3516 -78 2506 -78 
Q 1484 -78 881 545 
Q 278 1169 278 2263 
z
M 1231 2294 
Q 1231 1516 1590 1114 
Q 1950 713 2503 713 
Q 3056 713 3411 1111 
Q 3766 1509 3766 2306 
Q 3766 3094 3420 3481 
Q 3075 3869 2503 3869 
Q 1931 3869 1581 3476 
Q 1231 3084 1231 2294 
z
" transform="scale(0.015625)"/>
        <path id="Arial-BoldMT-59" d="M 1372 0 
L 34 3319 
L 956 3319 
L 1581 1625 
L 1763 1059 
Q 1834 1275 1853 1344 
Q 1897 1484 1947 1625 
L 2578 3319 
L 3481 3319 
L 2163 0 
L 1372 0 
z
" transform="scale(0.015625)"/>
        <path id="Arial-BoldMT-1b" d="M 1025 2472 
Q 684 2616 529 2867 
Q 375 3119 375 3419 
Q 375 3931 733 4265 
Q 1091 4600 1750 4600 
Q 2403 4600 2764 4265 
Q 3125 3931 3125 3419 
Q 3125 3100 2959 2851 
Q 2794 2603 2494 2472 
Q 2875 2319 3073 2025 
Q 3272 1731 3272 1347 
Q 3272 713 2867 316 
Q 2463 -81 1791 -81 
Q 1166 -81 750 247 
Q 259 634 259 1309 
Q 259 1681 443 1992 
Q 628 2303 1025 2472 
z
M 1206 3356 
Q 1206 3094 1354 2947 
Q 1503 2800 1750 2800 
Q 2000 2800 2150 2948 
Q 2300 3097 2300 3359 
Q 2300 3606 2151 3754 
Q 2003 3903 1759 3903 
Q 1506 3903 1356 3753 
Q 1206 3603 1206 3356 
z
M 1125 1394 
Q 1125 1031 1311 828 
Q 1497 625 1775 625 
Q 2047 625 2225 820 
Q 2403 1016 2403 1384 
Q 2403 1706 2222 1901 
Q 2041 2097 1763 2097 
Q 1441 2097 1283 1875 
Q 1125 1653 1125 1394 
z
" transform="scale(0.015625)"/>
        <path id="Arial-BoldMT-e" d="M 1466 659 
L 1466 1850 
L 266 1850 
L 266 2672 
L 1466 2672 
L 1466 3863 
L 2266 3863 
L 2266 2672 
L 3469 2672 
L 3469 1850 
L 2266 1850 
L 2266 659 
L 1466 659 
z
" transform="scale(0.015625)"/>
        <path id="Arial-BoldMT-25" d="M 469 4581 
L 2300 4581 
Q 2844 4581 3111 4536 
Q 3378 4491 3589 4347 
Q 3800 4203 3940 3964 
Q 4081 3725 4081 3428 
Q 4081 3106 3907 2837 
Q 3734 2569 3438 2434 
Q 3856 2313 4081 2019 
Q 4306 1725 4306 1328 
Q 4306 1016 4161 720 
Q 4016 425 3764 248 
Q 3513 72 3144 31 
Q 2913 6 2028 0 
L 469 0 
L 469 4581 
z
M 1394 3819 
L 1394 2759 
L 2000 2759 
Q 2541 2759 2672 2775 
Q 2909 2803 3045 2939 
Q 3181 3075 3181 3297 
Q 3181 3509 3064 3642 
Q 2947 3775 2716 3803 
Q 2578 3819 1925 3819 
L 1394 3819 
z
M 1394 1997 
L 1394 772 
L 2250 772 
Q 2750 772 2884 800 
Q 3091 838 3220 983 
Q 3350 1128 3350 1372 
Q 3350 1578 3250 1722 
Q 3150 1866 2961 1931 
Q 2772 1997 2141 1997 
L 1394 1997 
z
" transform="scale(0.015625)"/>
        <path id="Arial-BoldMT-37" d="M 1497 0 
L 1497 3806 
L 138 3806 
L 138 4581 
L 3778 4581 
L 3778 3806 
L 2422 3806 
L 2422 0 
L 1497 0 
z
" transform="scale(0.015625)"/>
        <path id="Arial-BoldMT-4e" d="M 428 0 
L 428 4581 
L 1306 4581 
L 1306 2150 
L 2334 3319 
L 3416 3319 
L 2281 2106 
L 3497 0 
L 2550 0 
L 1716 1491 
L 1306 1063 
L 1306 0 
L 428 0 
z
" transform="scale(0.015625)"/>
       </defs>
       <use xlink:href="#Arial-BoldMT-3c"/>
       <use xlink:href="#Arial-BoldMT-32" transform="translate(66.703125 0)"/>
       <use xlink:href="#Arial-BoldMT-2f" transform="translate(144.484375 0)"/>
       <use xlink:href="#Arial-BoldMT-32" transform="translate(205.5625 0)"/>
       <use xlink:href="#Arial-BoldMT-59" transform="translate(283.34375 0)"/>
       <use xlink:href="#Arial-BoldMT-1b" transform="translate(338.953125 0)"/>
       <use xlink:href="#Arial-BoldMT-51" transform="translate(394.5625 0)"/>
       <use xlink:href="#Arial-BoldMT-3" transform="translate(455.640625 0)"/>
       <use xlink:href="#Arial-BoldMT-e" transform="translate(483.421875 0)"/>
       <use xlink:href="#Arial-BoldMT-3" transform="translate(541.828125 0)"/>
       <use xlink:href="#Arial-BoldMT-25" transform="translate(569.609375 0)"/>
       <use xlink:href="#Arial-BoldMT-5c" transform="translate(641.828125 0)"/>
       <use xlink:href="#Arial-BoldMT-57" transform="translate(697.4375 0)"/>
       <use xlink:href="#Arial-BoldMT-48" transform="translate(730.734375 0)"/>
       <use xlink:href="#Arial-BoldMT-37" transform="translate(786.34375 0)"/>
       <use xlink:href="#Arial-BoldMT-55" transform="translate(841.90625 0)"/>
       <use xlink:href="#Arial-BoldMT-44" transform="translate(880.828125 0)"/>
       <use xlink:href="#Arial-BoldMT-46" transform="translate(936.4375 0)"/>
       <use xlink:href="#Arial-BoldMT-4e" transform="translate(992.046875 0)"/>
      </g>
     </g>
    </g>
    <g id="ytick_2">
     <g id="line2d_14">
      <g>
       <use xlink:href="#m1debf3b7c2" x="134.311406" y="220.33242" style="stroke: #000000; stroke-width: 0.8"/>
      </g>
     </g>
     <g id="text_9">
      <!-- MOG2 + Lucas-Kanade -->
      <g transform="translate(7.2 224.33657) scale(0.11 -0.11)">
       <defs>
        <path id="Arial-BoldMT-30" d="M 453 0 
L 453 4581 
L 1838 4581 
L 2669 1456 
L 3491 4581 
L 4878 4581 
L 4878 0 
L 4019 0 
L 4019 3606 
L 3109 0 
L 2219 0 
L 1313 3606 
L 1313 0 
L 453 0 
z
" transform="scale(0.015625)"/>
        <path id="Arial-BoldMT-2a" d="M 2597 1684 
L 2597 2456 
L 4591 2456 
L 4591 631 
Q 4300 350 3748 136 
Q 3197 -78 2631 -78 
Q 1913 -78 1378 223 
Q 844 525 575 1086 
Q 306 1647 306 2306 
Q 306 3022 606 3578 
Q 906 4134 1484 4431 
Q 1925 4659 2581 4659 
Q 3434 4659 3914 4301 
Q 4394 3944 4531 3313 
L 3613 3141 
Q 3516 3478 3248 3673 
Q 2981 3869 2581 3869 
Q 1975 3869 1617 3484 
Q 1259 3100 1259 2344 
Q 1259 1528 1621 1120 
Q 1984 713 2572 713 
Q 2863 713 3155 827 
Q 3447 941 3656 1103 
L 3656 1684 
L 2597 1684 
z
" transform="scale(0.015625)"/>
        <path id="Arial-BoldMT-15" d="M 3238 816 
L 3238 0 
L 159 0 
Q 209 463 459 877 
Q 709 1291 1447 1975 
Q 2041 2528 2175 2725 
Q 2356 2997 2356 3263 
Q 2356 3556 2198 3714 
Q 2041 3872 1763 3872 
Q 1488 3872 1325 3706 
Q 1163 3541 1138 3156 
L 263 3244 
Q 341 3969 753 4284 
Q 1166 4600 1784 4600 
Q 2463 4600 2850 4234 
Q 3238 3869 3238 3325 
Q 3238 3016 3127 2736 
Q 3016 2456 2775 2150 
Q 2616 1947 2200 1565 
Q 1784 1184 1673 1059 
Q 1563 934 1494 816 
L 3238 816 
z
" transform="scale(0.015625)"/>
        <path id="Arial-BoldMT-58" d="M 2644 0 
L 2644 497 
Q 2463 231 2167 78 
Q 1872 -75 1544 -75 
Q 1209 -75 943 72 
Q 678 219 559 484 
Q 441 750 441 1219 
L 441 3319 
L 1319 3319 
L 1319 1794 
Q 1319 1094 1367 936 
Q 1416 778 1544 686 
Q 1672 594 1869 594 
Q 2094 594 2272 717 
Q 2450 841 2515 1023 
Q 2581 1206 2581 1919 
L 2581 3319 
L 3459 3319 
L 3459 0 
L 2644 0 
z
" transform="scale(0.015625)"/>
        <path id="Arial-BoldMT-2e" d="M 478 0 
L 478 4581 
L 1403 4581 
L 1403 2547 
L 3272 4581 
L 4516 4581 
L 2791 2797 
L 4609 0 
L 3413 0 
L 2153 2150 
L 1403 1384 
L 1403 0 
L 478 0 
z
" transform="scale(0.015625)"/>
       </defs>
       <use xlink:href="#Arial-BoldMT-30"/>
       <use xlink:href="#Arial-BoldMT-32" transform="translate(83.296875 0)"/>
       <use xlink:href="#Arial-BoldMT-2a" transform="translate(161.078125 0)"/>
       <use xlink:href="#Arial-BoldMT-15" transform="translate(238.859375 0)"/>
       <use xlink:href="#Arial-BoldMT-3" transform="translate(294.46875 0)"/>
       <use xlink:href="#Arial-BoldMT-e" transform="translate(322.25 0)"/>
       <use xlink:href="#Arial-BoldMT-3" transform="translate(380.65625 0)"/>
       <use xlink:href="#Arial-BoldMT-2f" transform="translate(408.4375 0)"/>
       <use xlink:href="#Arial-BoldMT-58" transform="translate(469.515625 0)"/>
       <use xlink:href="#Arial-BoldMT-46" transform="translate(530.59375 0)"/>
       <use xlink:href="#Arial-BoldMT-44" transform="translate(586.203125 0)"/>
       <use xlink:href="#Arial-BoldMT-56" transform="translate(641.8125 0)"/>
       <use xlink:href="#Arial-BoldMT-10" transform="translate(697.421875 0)"/>
       <use xlink:href="#Arial-BoldMT-2e" transform="translate(730.71875 0)"/>
       <use xlink:href="#Arial-BoldMT-44" transform="translate(802.9375 0)"/>
       <use xlink:href="#Arial-BoldMT-51" transform="translate(858.546875 0)"/>
       <use xlink:href="#Arial-BoldMT-44" transform="translate(919.625 0)"/>
       <use xlink:href="#Arial-BoldMT-47" transform="translate(975.234375 0)"/>
       <use xlink:href="#Arial-BoldMT-48" transform="translate(1036.3125 0)"/>
      </g>
     </g>
    </g>
    <g id="ytick_3">
     <g id="line2d_15">
      <g>
       <use xlink:href="#m1debf3b7c2" x="134.311406" y="159.480908" style="stroke: #000000; stroke-width: 0.8"/>
      </g>
     </g>
     <g id="text_10">
      <!-- MOG2 + SORT -->
      <g transform="translate(51.827344 163.485059) scale(0.11 -0.11)">
       <defs>
        <path id="Arial-BoldMT-36" d="M 231 1491 
L 1131 1578 
Q 1213 1125 1461 912 
Q 1709 700 2131 700 
Q 2578 700 2804 889 
Q 3031 1078 3031 1331 
Q 3031 1494 2936 1608 
Q 2841 1722 2603 1806 
Q 2441 1863 1863 2006 
Q 1119 2191 819 2459 
Q 397 2838 397 3381 
Q 397 3731 595 4036 
Q 794 4341 1167 4500 
Q 1541 4659 2069 4659 
Q 2931 4659 3367 4281 
Q 3803 3903 3825 3272 
L 2900 3231 
Q 2841 3584 2645 3739 
Q 2450 3894 2059 3894 
Q 1656 3894 1428 3728 
Q 1281 3622 1281 3444 
Q 1281 3281 1419 3166 
Q 1594 3019 2269 2859 
Q 2944 2700 3267 2529 
Q 3591 2359 3773 2064 
Q 3956 1769 3956 1334 
Q 3956 941 3737 597 
Q 3519 253 3119 86 
Q 2719 -81 2122 -81 
Q 1253 -81 787 320 
Q 322 722 231 1491 
z
" transform="scale(0.015625)"/>
        <path id="Arial-BoldMT-35" d="M 469 0 
L 469 4581 
L 2416 4581 
Q 3150 4581 3483 4457 
Q 3816 4334 4016 4018 
Q 4216 3703 4216 3297 
Q 4216 2781 3912 2445 
Q 3609 2109 3006 2022 
Q 3306 1847 3501 1637 
Q 3697 1428 4028 894 
L 4588 0 
L 3481 0 
L 2813 997 
Q 2456 1531 2325 1670 
Q 2194 1809 2047 1861 
Q 1900 1913 1581 1913 
L 1394 1913 
L 1394 0 
L 469 0 
z
M 1394 2644 
L 2078 2644 
Q 2744 2644 2909 2700 
Q 3075 2756 3169 2893 
Q 3263 3031 3263 3238 
Q 3263 3469 3139 3611 
Q 3016 3753 2791 3791 
Q 2678 3806 2116 3806 
L 1394 3806 
L 1394 2644 
z
" transform="scale(0.015625)"/>
       </defs>
       <use xlink:href="#Arial-BoldMT-30"/>
       <use xlink:href="#Arial-BoldMT-32" transform="translate(83.296875 0)"/>
       <use xlink:href="#Arial-BoldMT-2a" transform="translate(161.078125 0)"/>
       <use xlink:href="#Arial-BoldMT-15" transform="translate(238.859375 0)"/>
       <use xlink:href="#Arial-BoldMT-3" transform="translate(294.46875 0)"/>
       <use xlink:href="#Arial-BoldMT-e" transform="translate(322.25 0)"/>
       <use xlink:href="#Arial-BoldMT-3" transform="translate(380.65625 0)"/>
       <use xlink:href="#Arial-BoldMT-36" transform="translate(408.4375 0)"/>
       <use xlink:href="#Arial-BoldMT-32" transform="translate(475.140625 0)"/>
       <use xlink:href="#Arial-BoldMT-35" transform="translate(552.921875 0)"/>
       <use xlink:href="#Arial-BoldMT-37" transform="translate(625.140625 0)"/>
      </g>
     </g>
    </g>
    <g id="ytick_4">
     <g id="line2d_16">
      <g>
       <use xlink:href="#m1debf3b7c2" x="134.311406" y="98.629396" style="stroke: #000000; stroke-width: 0.8"/>
      </g>
     </g>
     <g id="text_11">
      <!-- MOG2 + IMM (2-Model) -->
      <g transform="translate(9.068281 102.633547) scale(0.11 -0.11)">
       <defs>
        <path id="Arial-BoldMT-2c" d="M 438 0 
L 438 4581 
L 1363 4581 
L 1363 0 
L 438 0 
z
" transform="scale(0.015625)"/>
       </defs>
       <use xlink:href="#Arial-BoldMT-30"/>
       <use xlink:href="#Arial-BoldMT-32" transform="translate(83.296875 0)"/>
       <use xlink:href="#Arial-BoldMT-2a" transform="translate(161.078125 0)"/>
       <use xlink:href="#Arial-BoldMT-15" transform="translate(238.859375 0)"/>
       <use xlink:href="#Arial-BoldMT-3" transform="translate(294.46875 0)"/>
       <use xlink:href="#Arial-BoldMT-e" transform="translate(322.25 0)"/>
       <use xlink:href="#Arial-BoldMT-3" transform="translate(380.65625 0)"/>
       <use xlink:href="#Arial-BoldMT-2c" transform="translate(408.4375 0)"/>
       <use xlink:href="#Arial-BoldMT-30" transform="translate(436.21875 0)"/>
       <use xlink:href="#Arial-BoldMT-30" transform="translate(519.515625 0)"/>
       <use xlink:href="#Arial-BoldMT-3" transform="translate(602.8125 0)"/>
       <use xlink:href="#Arial-BoldMT-b" transform="translate(630.59375 0)"/>
       <use xlink:href="#Arial-BoldMT-15" transform="translate(663.890625 0)"/>
       <use xlink:href="#Arial-BoldMT-10" transform="translate(719.5 0)"/>
       <use xlink:href="#Arial-BoldMT-30" transform="translate(752.796875 0)"/>
       <use xlink:href="#Arial-BoldMT-52" transform="translate(836.09375 0)"/>
       <use xlink:href="#Arial-BoldMT-47" transform="translate(897.171875 0)"/>
       <use xlink:href="#Arial-BoldMT-48" transform="translate(958.25 0)"/>
       <use xlink:href="#Arial-BoldMT-4f" transform="translate(1013.859375 0)"/>
       <use xlink:href="#Arial-BoldMT-c" transform="translate(1041.640625 0)"/>
      </g>
     </g>
    </g>
    <g id="ytick_5">
     <g id="line2d_17">
      <g>
       <use xlink:href="#m1debf3b7c2" x="134.311406" y="37.777885" style="stroke: #000000; stroke-width: 0.8"/>
      </g>
     </g>
     <g id="text_12">
      <!-- STMSS (Proposed) -->
      <g transform="translate(28.309688 41.782035) scale(0.11 -0.11)">
       <defs>
        <path id="Arial-BoldMT-53" d="M 434 3319 
L 1253 3319 
L 1253 2831 
Q 1413 3081 1684 3237 
Q 1956 3394 2288 3394 
Q 2866 3394 3269 2941 
Q 3672 2488 3672 1678 
Q 3672 847 3265 386 
Q 2859 -75 2281 -75 
Q 2006 -75 1782 34 
Q 1559 144 1313 409 
L 1313 -1263 
L 434 -1263 
L 434 3319 
z
M 1303 1716 
Q 1303 1156 1525 889 
Q 1747 622 2066 622 
Q 2372 622 2575 867 
Q 2778 1113 2778 1672 
Q 2778 2194 2568 2447 
Q 2359 2700 2050 2700 
Q 1728 2700 1515 2451 
Q 1303 2203 1303 1716 
z
" transform="scale(0.015625)"/>
       </defs>
       <use xlink:href="#Arial-BoldMT-36"/>
       <use xlink:href="#Arial-BoldMT-37" transform="translate(66.703125 0)"/>
       <use xlink:href="#Arial-BoldMT-30" transform="translate(127.78125 0)"/>
       <use xlink:href="#Arial-BoldMT-36" transform="translate(211.078125 0)"/>
       <use xlink:href="#Arial-BoldMT-36" transform="translate(277.78125 0)"/>
       <use xlink:href="#Arial-BoldMT-3" transform="translate(344.484375 0)"/>
       <use xlink:href="#Arial-BoldMT-b" transform="translate(372.265625 0)"/>
       <use xlink:href="#Arial-BoldMT-33" transform="translate(405.5625 0)"/>
       <use xlink:href="#Arial-BoldMT-55" transform="translate(472.265625 0)"/>
       <use xlink:href="#Arial-BoldMT-52" transform="translate(511.1875 0)"/>
       <use xlink:href="#Arial-BoldMT-53" transform="translate(572.265625 0)"/>
       <use xlink:href="#Arial-BoldMT-52" transform="translate(633.34375 0)"/>
       <use xlink:href="#Arial-BoldMT-56" transform="translate(694.421875 0)"/>
       <use xlink:href="#Arial-BoldMT-48" transform="translate(750.03125 0)"/>
       <use xlink:href="#Arial-BoldMT-47" transform="translate(805.640625 0)"/>
       <use xlink:href="#Arial-BoldMT-c" transform="translate(866.71875 0)"/>
      </g>
     </g>
    </g>
   </g>
   <g id="line2d_18">
    <path d="M 514.768549 311.761816 
L 514.768549 7.2 
" clip-path="url(#p7c41669dc0)" style="fill: none; stroke-dasharray: 9.25,4; stroke-dashoffset: 0; stroke: #ef4444; stroke-width: 2.5"/>
   </g>
   <g id="patch_13">
    <path d="M 134.311406 311.761816 
L 134.311406 7.2 
" style="fill: none; stroke: #000000; stroke-width: 1.2; stroke-linejoin: miter; stroke-linecap: square"/>
   </g>
   <g id="patch_14">
    <path d="M 134.311406 311.761816 
L 666.951406 311.761816 
" style="fill: none; stroke: #000000; stroke-width: 1.2; stroke-linejoin: miter; stroke-linecap: square"/>
   </g>
   <g id="text_13">
    <!-- MARGINAL -->
    <g style="fill: #f59e0b" transform="translate(522.377692 278.61524) scale(0.09 -0.09)">
     <defs>
      <path id="Arial-BoldMT-24" d="M 4597 0 
L 3591 0 
L 3191 1041 
L 1359 1041 
L 981 0 
L 0 0 
L 1784 4581 
L 2763 4581 
L 4597 0 
z
M 2894 1813 
L 2263 3513 
L 1644 1813 
L 2894 1813 
z
" transform="scale(0.015625)"/>
      <path id="Arial-BoldMT-31" d="M 475 0 
L 475 4581 
L 1375 4581 
L 3250 1522 
L 3250 4581 
L 4109 4581 
L 4109 0 
L 3181 0 
L 1334 2988 
L 1334 0 
L 475 0 
z
" transform="scale(0.015625)"/>
     </defs>
     <use xlink:href="#Arial-BoldMT-30"/>
     <use xlink:href="#Arial-BoldMT-24" transform="translate(83.296875 0)"/>
     <use xlink:href="#Arial-BoldMT-35" transform="translate(155.515625 0)"/>
     <use xlink:href="#Arial-BoldMT-2a" transform="translate(227.734375 0)"/>
     <use xlink:href="#Arial-BoldMT-2c" transform="translate(305.515625 0)"/>
     <use xlink:href="#Arial-BoldMT-31" transform="translate(333.296875 0)"/>
     <use xlink:href="#Arial-BoldMT-24" transform="translate(405.515625 0)"/>
     <use xlink:href="#Arial-BoldMT-2f" transform="translate(477.734375 0)"/>
    </g>
    <!-- (+2.71 ms) -->
    <g style="fill: #f59e0b" transform="translate(522.377692 288.41065) scale(0.09 -0.09)">
     <defs>
      <path id="Arial-BoldMT-11" d="M 459 0 
L 459 878 
L 1338 878 
L 1338 0 
L 459 0 
z
" transform="scale(0.015625)"/>
      <path id="Arial-BoldMT-1a" d="M 272 3703 
L 272 4519 
L 3275 4519 
L 3275 3881 
Q 2903 3516 2518 2831 
Q 2134 2147 1932 1376 
Q 1731 606 1734 0 
L 888 0 
Q 909 950 1279 1937 
Q 1650 2925 2269 3703 
L 272 3703 
z
" transform="scale(0.015625)"/>
      <path id="Arial-BoldMT-14" d="M 2519 0 
L 1641 0 
L 1641 3309 
Q 1159 2859 506 2644 
L 506 3441 
Q 850 3553 1253 3867 
Q 1656 4181 1806 4600 
L 2519 4600 
L 2519 0 
z
" transform="scale(0.015625)"/>
     </defs>
     <use xlink:href="#Arial-BoldMT-b"/>
     <use xlink:href="#Arial-BoldMT-e" transform="translate(33.296875 0)"/>
     <use xlink:href="#Arial-BoldMT-15" transform="translate(91.703125 0)"/>
     <use xlink:href="#Arial-BoldMT-11" transform="translate(147.3125 0)"/>
     <use xlink:href="#Arial-BoldMT-1a" transform="translate(175.09375 0)"/>
     <use xlink:href="#Arial-BoldMT-14" transform="translate(230.703125 0)"/>
     <use xlink:href="#Arial-BoldMT-3" transform="translate(286.3125 0)"/>
     <use xlink:href="#Arial-BoldMT-50" transform="translate(314.09375 0)"/>
     <use xlink:href="#Arial-BoldMT-56" transform="translate(403.015625 0)"/>
     <use xlink:href="#Arial-BoldMT-c" transform="translate(458.625 0)"/>
    </g>
   </g>
   <g id="text_14">
    <!-- GUARANTEED -->
    <g style="fill: #059669" transform="translate(522.377692 217.763729) scale(0.09 -0.09)">
     <defs>
      <path id="Arial-BoldMT-38" d="M 459 4581 
L 1384 4581 
L 1384 2100 
Q 1384 1509 1419 1334 
Q 1478 1053 1701 883 
Q 1925 713 2313 713 
Q 2706 713 2906 873 
Q 3106 1034 3147 1268 
Q 3188 1503 3188 2047 
L 3188 4581 
L 4113 4581 
L 4113 2175 
Q 4113 1350 4038 1009 
Q 3963 669 3761 434 
Q 3559 200 3221 61 
Q 2884 -78 2341 -78 
Q 1684 -78 1345 73 
Q 1006 225 809 467 
Q 613 709 550 975 
Q 459 1369 459 2138 
L 459 4581 
z
" transform="scale(0.015625)"/>
      <path id="Arial-BoldMT-27" d="M 463 4581 
L 2153 4581 
Q 2725 4581 3025 4494 
Q 3428 4375 3715 4072 
Q 4003 3769 4153 3330 
Q 4303 2891 4303 2247 
Q 4303 1681 4163 1272 
Q 3991 772 3672 463 
Q 3431 228 3022 97 
Q 2716 0 2203 0 
L 463 0 
L 463 4581 
z
M 1388 3806 
L 1388 772 
L 2078 772 
Q 2466 772 2638 816 
Q 2863 872 3011 1006 
Q 3159 1141 3253 1448 
Q 3347 1756 3347 2288 
Q 3347 2819 3253 3103 
Q 3159 3388 2990 3547 
Q 2822 3706 2563 3763 
Q 2369 3806 1803 3806 
L 1388 3806 
z
" transform="scale(0.015625)"/>
     </defs>
     <use xlink:href="#Arial-BoldMT-2a"/>
     <use xlink:href="#Arial-BoldMT-38" transform="translate(77.78125 0)"/>
     <use xlink:href="#Arial-BoldMT-24" transform="translate(150 0)"/>
     <use xlink:href="#Arial-BoldMT-35" transform="translate(222.21875 0)"/>
     <use xlink:href="#Arial-BoldMT-24" transform="translate(294.4375 0)"/>
     <use xlink:href="#Arial-BoldMT-31" transform="translate(366.65625 0)"/>
     <use xlink:href="#Arial-BoldMT-37" transform="translate(438.875 0)"/>
     <use xlink:href="#Arial-BoldMT-28" transform="translate(499.953125 0)"/>
     <use xlink:href="#Arial-BoldMT-28" transform="translate(566.65625 0)"/>
     <use xlink:href="#Arial-BoldMT-27" transform="translate(633.359375 0)"/>
    </g>
    <!-- (+35.80 ms) -->
    <g style="fill: #059669" transform="translate(522.377692 227.559139) scale(0.09 -0.09)">
     <defs>
      <path id="Arial-BoldMT-16" d="M 241 1216 
L 1091 1319 
Q 1131 994 1309 822 
Q 1488 650 1741 650 
Q 2013 650 2198 856 
Q 2384 1063 2384 1413 
Q 2384 1744 2206 1937 
Q 2028 2131 1772 2131 
Q 1603 2131 1369 2066 
L 1466 2781 
Q 1822 2772 2009 2936 
Q 2197 3100 2197 3372 
Q 2197 3603 2059 3740 
Q 1922 3878 1694 3878 
Q 1469 3878 1309 3722 
Q 1150 3566 1116 3266 
L 306 3403 
Q 391 3819 561 4067 
Q 731 4316 1036 4458 
Q 1341 4600 1719 4600 
Q 2366 4600 2756 4188 
Q 3078 3850 3078 3425 
Q 3078 2822 2419 2463 
Q 2813 2378 3048 2084 
Q 3284 1791 3284 1375 
Q 3284 772 2843 347 
Q 2403 -78 1747 -78 
Q 1125 -78 715 280 
Q 306 638 241 1216 
z
" transform="scale(0.015625)"/>
      <path id="Arial-BoldMT-18" d="M 284 1178 
L 1159 1269 
Q 1197 972 1381 798 
Q 1566 625 1806 625 
Q 2081 625 2272 848 
Q 2463 1072 2463 1522 
Q 2463 1944 2273 2155 
Q 2084 2366 1781 2366 
Q 1403 2366 1103 2031 
L 391 2134 
L 841 4519 
L 3163 4519 
L 3163 3697 
L 1506 3697 
L 1369 2919 
Q 1663 3066 1969 3066 
Q 2553 3066 2959 2641 
Q 3366 2216 3366 1538 
Q 3366 972 3038 528 
Q 2591 -78 1797 -78 
Q 1163 -78 763 262 
Q 363 603 284 1178 
z
" transform="scale(0.015625)"/>
      <path id="Arial-BoldMT-13" d="M 1756 4600 
Q 2422 4600 2797 4125 
Q 3244 3563 3244 2259 
Q 3244 959 2794 391 
Q 2422 -78 1756 -78 
Q 1088 -78 678 436 
Q 269 950 269 2269 
Q 269 3563 719 4131 
Q 1091 4600 1756 4600 
z
M 1756 3872 
Q 1597 3872 1472 3770 
Q 1347 3669 1278 3406 
Q 1188 3066 1188 2259 
Q 1188 1453 1269 1151 
Q 1350 850 1473 750 
Q 1597 650 1756 650 
Q 1916 650 2041 751 
Q 2166 853 2234 1116 
Q 2325 1453 2325 2259 
Q 2325 3066 2244 3367 
Q 2163 3669 2039 3770 
Q 1916 3872 1756 3872 
z
" transform="scale(0.015625)"/>
     </defs>
     <use xlink:href="#Arial-BoldMT-b"/>
     <use xlink:href="#Arial-BoldMT-e" transform="translate(33.296875 0)"/>
     <use xlink:href="#Arial-BoldMT-16" transform="translate(91.703125 0)"/>
     <use xlink:href="#Arial-BoldMT-18" transform="translate(147.3125 0)"/>
     <use xlink:href="#Arial-BoldMT-11" transform="translate(202.921875 0)"/>
     <use xlink:href="#Arial-BoldMT-1b" transform="translate(230.703125 0)"/>
     <use xlink:href="#Arial-BoldMT-13" transform="translate(286.3125 0)"/>
     <use xlink:href="#Arial-BoldMT-3" transform="translate(341.921875 0)"/>
     <use xlink:href="#Arial-BoldMT-50" transform="translate(369.703125 0)"/>
     <use xlink:href="#Arial-BoldMT-56" transform="translate(458.625 0)"/>
     <use xlink:href="#Arial-BoldMT-c" transform="translate(514.234375 0)"/>
    </g>
   </g>
   <g id="text_15">
    <!-- GUARANTEED -->
    <g style="fill: #059669" transform="translate(522.377692 156.912217) scale(0.09 -0.09)">
     <use xlink:href="#Arial-BoldMT-2a"/>
     <use xlink:href="#Arial-BoldMT-38" transform="translate(77.78125 0)"/>
     <use xlink:href="#Arial-BoldMT-24" transform="translate(150 0)"/>
     <use xlink:href="#Arial-BoldMT-35" transform="translate(222.21875 0)"/>
     <use xlink:href="#Arial-BoldMT-24" transform="translate(294.4375 0)"/>
     <use xlink:href="#Arial-BoldMT-31" transform="translate(366.65625 0)"/>
     <use xlink:href="#Arial-BoldMT-37" transform="translate(438.875 0)"/>
     <use xlink:href="#Arial-BoldMT-28" transform="translate(499.953125 0)"/>
     <use xlink:href="#Arial-BoldMT-28" transform="translate(566.65625 0)"/>
     <use xlink:href="#Arial-BoldMT-27" transform="translate(633.359375 0)"/>
    </g>
    <!-- (+33.45 ms) -->
    <g style="fill: #059669" transform="translate(522.377692 166.707627) scale(0.09 -0.09)">
     <defs>
      <path id="Arial-BoldMT-17" d="M 1994 0 
L 1994 922 
L 119 922 
L 119 1691 
L 2106 4600 
L 2844 4600 
L 2844 1694 
L 3413 1694 
L 3413 922 
L 2844 922 
L 2844 0 
L 1994 0 
z
M 1994 1694 
L 1994 3259 
L 941 1694 
L 1994 1694 
z
" transform="scale(0.015625)"/>
     </defs>
     <use xlink:href="#Arial-BoldMT-b"/>
     <use xlink:href="#Arial-BoldMT-e" transform="translate(33.296875 0)"/>
     <use xlink:href="#Arial-BoldMT-16" transform="translate(91.703125 0)"/>
     <use xlink:href="#Arial-BoldMT-16" transform="translate(147.3125 0)"/>
     <use xlink:href="#Arial-BoldMT-11" transform="translate(202.921875 0)"/>
     <use xlink:href="#Arial-BoldMT-17" transform="translate(230.703125 0)"/>
     <use xlink:href="#Arial-BoldMT-18" transform="translate(286.3125 0)"/>
     <use xlink:href="#Arial-BoldMT-3" transform="translate(341.921875 0)"/>
     <use xlink:href="#Arial-BoldMT-50" transform="translate(369.703125 0)"/>
     <use xlink:href="#Arial-BoldMT-56" transform="translate(458.625 0)"/>
     <use xlink:href="#Arial-BoldMT-c" transform="translate(514.234375 0)"/>
    </g>
   </g>
   <g id="text_16">
    <!-- MARGINAL -->
    <g style="fill: #f59e0b" transform="translate(522.377692 96.060705) scale(0.09 -0.09)">
     <use xlink:href="#Arial-BoldMT-30"/>
     <use xlink:href="#Arial-BoldMT-24" transform="translate(83.296875 0)"/>
     <use xlink:href="#Arial-BoldMT-35" transform="translate(155.515625 0)"/>
     <use xlink:href="#Arial-BoldMT-2a" transform="translate(227.734375 0)"/>
     <use xlink:href="#Arial-BoldMT-2c" transform="translate(305.515625 0)"/>
     <use xlink:href="#Arial-BoldMT-31" transform="translate(333.296875 0)"/>
     <use xlink:href="#Arial-BoldMT-24" transform="translate(405.515625 0)"/>
     <use xlink:href="#Arial-BoldMT-2f" transform="translate(477.734375 0)"/>
    </g>
    <!-- (+27.90 ms) -->
    <g style="fill: #f59e0b" transform="translate(522.377692 105.856115) scale(0.09 -0.09)">
     <defs>
      <path id="Arial-BoldMT-1c" d="M 291 1059 
L 1141 1153 
Q 1172 894 1303 769 
Q 1434 644 1650 644 
Q 1922 644 2112 894 
Q 2303 1144 2356 1931 
Q 2025 1547 1528 1547 
Q 988 1547 595 1964 
Q 203 2381 203 3050 
Q 203 3747 617 4173 
Q 1031 4600 1672 4600 
Q 2369 4600 2816 4061 
Q 3263 3522 3263 2288 
Q 3263 1031 2797 475 
Q 2331 -81 1584 -81 
Q 1047 -81 715 205 
Q 384 491 291 1059 
z
M 2278 2978 
Q 2278 3403 2083 3637 
Q 1888 3872 1631 3872 
Q 1388 3872 1227 3680 
Q 1066 3488 1066 3050 
Q 1066 2606 1241 2398 
Q 1416 2191 1678 2191 
Q 1931 2191 2104 2391 
Q 2278 2591 2278 2978 
z
" transform="scale(0.015625)"/>
     </defs>
     <use xlink:href="#Arial-BoldMT-b"/>
     <use xlink:href="#Arial-BoldMT-e" transform="translate(33.296875 0)"/>
     <use xlink:href="#Arial-BoldMT-15" transform="translate(91.703125 0)"/>
     <use xlink:href="#Arial-BoldMT-1a" transform="translate(147.3125 0)"/>
     <use xlink:href="#Arial-BoldMT-11" transform="translate(202.921875 0)"/>
     <use xlink:href="#Arial-BoldMT-1c" transform="translate(230.703125 0)"/>
     <use xlink:href="#Arial-BoldMT-13" transform="translate(286.3125 0)"/>
     <use xlink:href="#Arial-BoldMT-3" transform="translate(341.921875 0)"/>
     <use xlink:href="#Arial-BoldMT-50" transform="translate(369.703125 0)"/>
     <use xlink:href="#Arial-BoldMT-56" transform="translate(458.625 0)"/>
     <use xlink:href="#Arial-BoldMT-c" transform="translate(514.234375 0)"/>
    </g>
   </g>
   <g id="text_17">
    <!-- GUARANTEED -->
    <g style="fill: #059669" transform="translate(522.377692 35.209193) scale(0.09 -0.09)">
     <use xlink:href="#Arial-BoldMT-2a"/>
     <use xlink:href="#Arial-BoldMT-38" transform="translate(77.78125 0)"/>
     <use xlink:href="#Arial-BoldMT-24" transform="translate(150 0)"/>
     <use xlink:href="#Arial-BoldMT-35" transform="translate(222.21875 0)"/>
     <use xlink:href="#Arial-BoldMT-24" transform="translate(294.4375 0)"/>
     <use xlink:href="#Arial-BoldMT-31" transform="translate(366.65625 0)"/>
     <use xlink:href="#Arial-BoldMT-37" transform="translate(438.875 0)"/>
     <use xlink:href="#Arial-BoldMT-28" transform="translate(499.953125 0)"/>
     <use xlink:href="#Arial-BoldMT-28" transform="translate(566.65625 0)"/>
     <use xlink:href="#Arial-BoldMT-27" transform="translate(633.359375 0)"/>
    </g>
    <!-- (+31.18 ms) -->
    <g style="fill: #059669" transform="translate(522.377692 45.004603) scale(0.09 -0.09)">
     <use xlink:href="#Arial-BoldMT-b"/>
     <use xlink:href="#Arial-BoldMT-e" transform="translate(33.296875 0)"/>
     <use xlink:href="#Arial-BoldMT-16" transform="translate(91.703125 0)"/>
     <use xlink:href="#Arial-BoldMT-14" transform="translate(147.3125 0)"/>
     <use xlink:href="#Arial-BoldMT-11" transform="translate(202.921875 0)"/>
     <use xlink:href="#Arial-BoldMT-14" transform="translate(230.703125 0)"/>
     <use xlink:href="#Arial-BoldMT-1b" transform="translate(286.3125 0)"/>
     <use xlink:href="#Arial-BoldMT-3" transform="translate(341.921875 0)"/>
     <use xlink:href="#Arial-BoldMT-50" transform="translate(369.703125 0)"/>
     <use xlink:href="#Arial-BoldMT-56" transform="translate(458.625 0)"/>
     <use xlink:href="#Arial-BoldMT-c" transform="translate(514.234375 0)"/>
    </g>
   </g>
   <g id="line2d_19">
    <path d="M 501.021364 281.183932 
" clip-path="url(#p7c41669dc0)" style="fill: none; stroke: #f59e0b; stroke-width: 1.5; stroke-linecap: square"/>
    <defs>
     <path id="m365269b4e3" d="M 0 4.5 
C 1.193414 4.5 2.338109 4.025852 3.181981 3.181981 
C 4.025852 2.338109 4.5 1.193414 4.5 0 
C 4.5 -1.193414 4.025852 -2.338109 3.181981 -3.181981 
C 2.338109 -4.025852 1.193414 -4.5 0 -4.5 
C -1.193414 -4.5 -2.338109 -4.025852 -3.181981 -3.181981 
C -4.025852 -2.338109 -4.5 -1.193414 -4.5 0 
C -4.5 1.193414 -4.025852 2.338109 -3.181981 3.181981 
C -2.338109 4.025852 -1.193414 4.5 0 4.5 
z
" style="stroke: #ffffff; stroke-width: 1.5"/>
    </defs>
    <g clip-path="url(#p7c41669dc0)">
     <use xlink:href="#m365269b4e3" x="501.021364" y="281.183932" style="fill: #f59e0b; stroke: #ffffff; stroke-width: 1.5"/>
    </g>
   </g>
   <g id="line2d_20">
    <path d="M 333.163673 220.33242 
" clip-path="url(#p7c41669dc0)" style="fill: none; stroke: #059669; stroke-width: 1.5; stroke-linecap: square"/>
    <defs>
     <path id="mdbeace1a54" d="M 0 4.5 
C 1.193414 4.5 2.338109 4.025852 3.181981 3.181981 
C 4.025852 2.338109 4.5 1.193414 4.5 0 
C 4.5 -1.193414 4.025852 -2.338109 3.181981 -3.181981 
C 2.338109 -4.025852 1.193414 -4.5 0 -4.5 
C -1.193414 -4.5 -2.338109 -4.025852 -3.181981 -3.181981 
C -4.025852 -2.338109 -4.5 -1.193414 -4.5 0 
C -4.5 1.193414 -4.025852 2.338109 -3.181981 3.181981 
C -2.338109 4.025852 -1.193414 4.5 0 4.5 
z
" style="stroke: #ffffff; stroke-width: 1.5"/>
    </defs>
    <g clip-path="url(#p7c41669dc0)">
     <use xlink:href="#mdbeace1a54" x="333.163673" y="220.33242" style="fill: #059669; stroke: #ffffff; stroke-width: 1.5"/>
    </g>
   </g>
   <g id="line2d_21">
    <path d="M 345.084663 159.480908 
" clip-path="url(#p7c41669dc0)" style="fill: none; stroke: #059669; stroke-width: 1.5; stroke-linecap: square"/>
    <g clip-path="url(#p7c41669dc0)">
     <use xlink:href="#mdbeace1a54" x="345.084663" y="159.480908" style="fill: #059669; stroke: #ffffff; stroke-width: 1.5"/>
    </g>
   </g>
   <g id="line2d_22">
    <path d="M 373.238492 98.629396 
" clip-path="url(#p7c41669dc0)" style="fill: none; stroke: #f59e0b; stroke-width: 1.5; stroke-linecap: square"/>
    <g clip-path="url(#p7c41669dc0)">
     <use xlink:href="#m365269b4e3" x="373.238492" y="98.629396" style="fill: #f59e0b; stroke: #ffffff; stroke-width: 1.5"/>
    </g>
   </g>
   <g id="line2d_23">
    <path d="M 356.599833 37.777885 
" clip-path="url(#p7c41669dc0)" style="fill: none; stroke: #059669; stroke-width: 1.5; stroke-linecap: square"/>
    <g clip-path="url(#p7c41669dc0)">
     <use xlink:href="#mdbeace1a54" x="356.599833" y="37.777885" style="fill: #059669; stroke: #ffffff; stroke-width: 1.5"/>
    </g>
   </g>
   <g id="legend_1">
    <g id="patch_15">
     <path d="M 462.381406 307.261816 
L 660.651406 307.261816 
Q 662.451406 307.261816 662.451406 305.461816 
L 662.451406 266.491816 
Q 662.451406 264.691816 660.651406 264.691816 
L 462.381406 264.691816 
Q 460.581406 264.691816 460.581406 266.491816 
L 460.581406 305.461816 
Q 460.581406 307.261816 462.381406 307.261816 
z
" style="fill: #ffffff; opacity: 0.95; stroke: #cccccc; stroke-linejoin: miter"/>
    </g>
    <g id="line2d_24">
     <path d="M 464.181406 271.711816 
L 473.181406 271.711816 
L 482.181406 271.711816 
" style="fill: none; stroke-dasharray: 9.25,4; stroke-dashoffset: 0; stroke: #ef4444; stroke-width: 2.5"/>
    </g>
    <g id="text_18">
     <!-- Actuation Deadline ($T_{allow}$ = 75.0 ms) -->
     <g transform="translate(489.381406 274.861816) scale(0.09 -0.09)">
      <defs>
       <path id="ArialMT-24" d="M -9 0 
L 1750 4581 
L 2403 4581 
L 4278 0 
L 3588 0 
L 3053 1388 
L 1138 1388 
L 634 0 
L -9 0 
z
M 1313 1881 
L 2866 1881 
L 2388 3150 
Q 2169 3728 2063 4100 
Q 1975 3659 1816 3225 
L 1313 1881 
z
" transform="scale(0.015625)"/>
       <path id="ArialMT-46" d="M 2588 1216 
L 3141 1144 
Q 3050 572 2676 248 
Q 2303 -75 1759 -75 
Q 1078 -75 664 370 
Q 250 816 250 1647 
Q 250 2184 428 2587 
Q 606 2991 970 3192 
Q 1334 3394 1763 3394 
Q 2303 3394 2647 3120 
Q 2991 2847 3088 2344 
L 2541 2259 
Q 2463 2594 2264 2762 
Q 2066 2931 1784 2931 
Q 1359 2931 1093 2626 
Q 828 2322 828 1663 
Q 828 994 1084 691 
Q 1341 388 1753 388 
Q 2084 388 2306 591 
Q 2528 794 2588 1216 
z
" transform="scale(0.015625)"/>
       <path id="ArialMT-57" d="M 1650 503 
L 1731 6 
Q 1494 -44 1306 -44 
Q 1000 -44 831 53 
Q 663 150 594 308 
Q 525 466 525 972 
L 525 2881 
L 113 2881 
L 113 3319 
L 525 3319 
L 525 4141 
L 1084 4478 
L 1084 3319 
L 1650 3319 
L 1650 2881 
L 1084 2881 
L 1084 941 
Q 1084 700 1114 631 
Q 1144 563 1211 522 
Q 1278 481 1403 481 
Q 1497 481 1650 503 
z
" transform="scale(0.015625)"/>
       <path id="ArialMT-58" d="M 2597 0 
L 2597 488 
Q 2209 -75 1544 -75 
Q 1250 -75 995 37 
Q 741 150 617 320 
Q 494 491 444 738 
Q 409 903 409 1263 
L 409 3319 
L 972 3319 
L 972 1478 
Q 972 1038 1006 884 
Q 1059 663 1231 536 
Q 1403 409 1656 409 
Q 1909 409 2131 539 
Q 2353 669 2445 892 
Q 2538 1116 2538 1541 
L 2538 3319 
L 3100 3319 
L 3100 0 
L 2597 0 
z
" transform="scale(0.015625)"/>
       <path id="ArialMT-44" d="M 2588 409 
Q 2275 144 1986 34 
Q 1697 -75 1366 -75 
Q 819 -75 525 192 
Q 231 459 231 875 
Q 231 1119 342 1320 
Q 453 1522 633 1644 
Q 813 1766 1038 1828 
Q 1203 1872 1538 1913 
Q 2219 1994 2541 2106 
Q 2544 2222 2544 2253 
Q 2544 2597 2384 2738 
Q 2169 2928 1744 2928 
Q 1347 2928 1158 2789 
Q 969 2650 878 2297 
L 328 2372 
Q 403 2725 575 2942 
Q 747 3159 1072 3276 
Q 1397 3394 1825 3394 
Q 2250 3394 2515 3294 
Q 2781 3194 2906 3042 
Q 3031 2891 3081 2659 
Q 3109 2516 3109 2141 
L 3109 1391 
Q 3109 606 3145 398 
Q 3181 191 3288 0 
L 2700 0 
Q 2613 175 2588 409 
z
M 2541 1666 
Q 2234 1541 1622 1453 
Q 1275 1403 1131 1340 
Q 988 1278 909 1158 
Q 831 1038 831 891 
Q 831 666 1001 516 
Q 1172 366 1500 366 
Q 1825 366 2078 508 
Q 2331 650 2450 897 
Q 2541 1088 2541 1459 
L 2541 1666 
z
" transform="scale(0.015625)"/>
       <path id="ArialMT-4c" d="M 425 3934 
L 425 4581 
L 988 4581 
L 988 3934 
L 425 3934 
z
M 425 0 
L 425 3319 
L 988 3319 
L 988 0 
L 425 0 
z
" transform="scale(0.015625)"/>
       <path id="ArialMT-52" d="M 213 1659 
Q 213 2581 725 3025 
Q 1153 3394 1769 3394 
Q 2453 3394 2887 2945 
Q 3322 2497 3322 1706 
Q 3322 1066 3130 698 
Q 2938 331 2570 128 
Q 2203 -75 1769 -75 
Q 1072 -75 642 372 
Q 213 819 213 1659 
z
M 791 1659 
Q 791 1022 1069 705 
Q 1347 388 1769 388 
Q 2188 388 2466 706 
Q 2744 1025 2744 1678 
Q 2744 2294 2464 2611 
Q 2184 2928 1769 2928 
Q 1347 2928 1069 2612 
Q 791 2297 791 1659 
z
" transform="scale(0.015625)"/>
       <path id="ArialMT-51" d="M 422 0 
L 422 3319 
L 928 3319 
L 928 2847 
Q 1294 3394 1984 3394 
Q 2284 3394 2536 3286 
Q 2788 3178 2913 3003 
Q 3038 2828 3088 2588 
Q 3119 2431 3119 2041 
L 3119 0 
L 2556 0 
L 2556 2019 
Q 2556 2363 2490 2533 
Q 2425 2703 2258 2804 
Q 2091 2906 1866 2906 
Q 1506 2906 1245 2678 
Q 984 2450 984 1813 
L 984 0 
L 422 0 
z
" transform="scale(0.015625)"/>
       <path id="ArialMT-3" transform="scale(0.015625)"/>
       <path id="ArialMT-27" d="M 494 0 
L 494 4581 
L 2072 4581 
Q 2606 4581 2888 4516 
Q 3281 4425 3559 4188 
Q 3922 3881 4101 3404 
Q 4281 2928 4281 2316 
Q 4281 1794 4159 1391 
Q 4038 988 3847 723 
Q 3656 459 3429 307 
Q 3203 156 2883 78 
Q 2563 0 2147 0 
L 494 0 
z
M 1100 541 
L 2078 541 
Q 2531 541 2789 625 
Q 3047 709 3200 863 
Q 3416 1078 3536 1442 
Q 3656 1806 3656 2325 
Q 3656 3044 3420 3430 
Q 3184 3816 2847 3947 
Q 2603 4041 2063 4041 
L 1100 4041 
L 1100 541 
z
" transform="scale(0.015625)"/>
       <path id="ArialMT-48" d="M 2694 1069 
L 3275 997 
Q 3138 488 2766 206 
Q 2394 -75 1816 -75 
Q 1088 -75 661 373 
Q 234 822 234 1631 
Q 234 2469 665 2931 
Q 1097 3394 1784 3394 
Q 2450 3394 2872 2941 
Q 3294 2488 3294 1666 
Q 3294 1616 3291 1516 
L 816 1516 
Q 847 969 1125 678 
Q 1403 388 1819 388 
Q 2128 388 2347 550 
Q 2566 713 2694 1069 
z
M 847 1978 
L 2700 1978 
Q 2663 2397 2488 2606 
Q 2219 2931 1791 2931 
Q 1403 2931 1139 2672 
Q 875 2413 847 1978 
z
" transform="scale(0.015625)"/>
       <path id="ArialMT-47" d="M 2575 0 
L 2575 419 
Q 2259 -75 1647 -75 
Q 1250 -75 917 144 
Q 584 363 401 755 
Q 219 1147 219 1656 
Q 219 2153 384 2558 
Q 550 2963 881 3178 
Q 1213 3394 1622 3394 
Q 1922 3394 2156 3267 
Q 2391 3141 2538 2938 
L 2538 4581 
L 3097 4581 
L 3097 0 
L 2575 0 
z
M 797 1656 
Q 797 1019 1065 703 
Q 1334 388 1700 388 
Q 2069 388 2326 689 
Q 2584 991 2584 1609 
Q 2584 2291 2321 2609 
Q 2059 2928 1675 2928 
Q 1300 2928 1048 2622 
Q 797 2316 797 1656 
z
" transform="scale(0.015625)"/>
       <path id="ArialMT-4f" d="M 409 0 
L 409 4581 
L 972 4581 
L 972 0 
L 409 0 
z
" transform="scale(0.015625)"/>
       <path id="ArialMT-b" d="M 1497 -1347 
Q 1031 -759 709 28 
Q 388 816 388 1659 
Q 388 2403 628 3084 
Q 909 3875 1497 4659 
L 1900 4659 
Q 1522 4009 1400 3731 
Q 1209 3300 1100 2831 
Q 966 2247 966 1656 
Q 966 153 1900 -1347 
L 1497 -1347 
z
" transform="scale(0.015625)"/>
       <path id="DejaVuSans-Oblique-37" d="M 378 4666 
L 4325 4666 
L 4225 4134 
L 2559 4134 
L 1759 0 
L 1125 0 
L 1925 4134 
L 275 4134 
L 378 4666 
z
" transform="scale(0.015625)"/>
       <path id="DejaVuSans-Oblique-44" d="M 3438 1997 
L 3047 0 
L 2472 0 
L 2578 531 
Q 2325 219 2001 64 
Q 1678 -91 1281 -91 
Q 834 -91 548 182 
Q 263 456 263 884 
Q 263 1497 752 1853 
Q 1241 2209 2100 2209 
L 2900 2209 
L 2931 2363 
Q 2938 2388 2941 2417 
Q 2944 2447 2944 2509 
Q 2944 2788 2717 2942 
Q 2491 3097 2081 3097 
Q 1800 3097 1504 3025 
Q 1209 2953 897 2809 
L 997 3341 
Q 1322 3463 1633 3523 
Q 1944 3584 2234 3584 
Q 2853 3584 3176 3315 
Q 3500 3047 3500 2534 
Q 3500 2431 3484 2292 
Q 3469 2153 3438 1997 
z
M 2816 1759 
L 2241 1759 
Q 1534 1759 1195 1570 
Q 856 1381 856 984 
Q 856 709 1029 553 
Q 1203 397 1509 397 
Q 1978 397 2328 733 
Q 2678 1069 2791 1631 
L 2816 1759 
z
" transform="scale(0.015625)"/>
       <path id="DejaVuSans-Oblique-4f" d="M 1172 4863 
L 1747 4863 
L 800 0 
L 225 0 
L 1172 4863 
z
" transform="scale(0.015625)"/>
       <path id="DejaVuSans-Oblique-52" d="M 1625 -91 
Q 1009 -91 651 289 
Q 294 669 294 1325 
Q 294 1706 417 2101 
Q 541 2497 738 2766 
Q 1047 3184 1428 3384 
Q 1809 3584 2291 3584 
Q 2888 3584 3255 3212 
Q 3622 2841 3622 2241 
Q 3622 1825 3500 1412 
Q 3378 1000 3181 728 
Q 2875 309 2494 109 
Q 2113 -91 1625 -91 
z
M 891 1344 
Q 891 869 1089 633 
Q 1288 397 1691 397 
Q 2269 397 2648 901 
Q 3028 1406 3028 2181 
Q 3028 2634 2825 2865 
Q 2622 3097 2228 3097 
Q 1903 3097 1650 2945 
Q 1397 2794 1197 2484 
Q 1050 2253 970 1956 
Q 891 1659 891 1344 
z
" transform="scale(0.015625)"/>
       <path id="DejaVuSans-Oblique-5a" d="M 544 3500 
L 1113 3500 
L 1259 684 
L 2566 3500 
L 3231 3500 
L 3425 684 
L 4666 3500 
L 5241 3500 
L 3641 0 
L 2969 0 
L 2797 2900 
L 1459 0 
L 781 0 
L 544 3500 
z
" transform="scale(0.015625)"/>
       <path id="ArialMT-20" d="M 3381 2694 
L 356 2694 
L 356 3219 
L 3381 3219 
L 3381 2694 
z
M 3381 1303 
L 356 1303 
L 356 1828 
L 3381 1828 
L 3381 1303 
z
" transform="scale(0.015625)"/>
       <path id="ArialMT-1a" d="M 303 3981 
L 303 4522 
L 3269 4522 
L 3269 4084 
Q 2831 3619 2401 2847 
Q 1972 2075 1738 1259 
Q 1569 684 1522 0 
L 944 0 
Q 953 541 1156 1306 
Q 1359 2072 1739 2783 
Q 2119 3494 2547 3981 
L 303 3981 
z
" transform="scale(0.015625)"/>
       <path id="ArialMT-18" d="M 266 1200 
L 856 1250 
Q 922 819 1161 601 
Q 1400 384 1738 384 
Q 2144 384 2425 690 
Q 2706 997 2706 1503 
Q 2706 1984 2436 2262 
Q 2166 2541 1728 2541 
Q 1456 2541 1237 2417 
Q 1019 2294 894 2097 
L 366 2166 
L 809 4519 
L 3088 4519 
L 3088 3981 
L 1259 3981 
L 1013 2750 
Q 1425 3038 1878 3038 
Q 2478 3038 2890 2622 
Q 3303 2206 3303 1553 
Q 3303 931 2941 478 
Q 2500 -78 1738 -78 
Q 1113 -78 717 272 
Q 322 622 266 1200 
z
" transform="scale(0.015625)"/>
       <path id="ArialMT-11" d="M 581 0 
L 581 641 
L 1222 641 
L 1222 0 
L 581 0 
z
" transform="scale(0.015625)"/>
       <path id="ArialMT-50" d="M 422 0 
L 422 3319 
L 925 3319 
L 925 2853 
Q 1081 3097 1340 3245 
Q 1600 3394 1931 3394 
Q 2300 3394 2536 3241 
Q 2772 3088 2869 2813 
Q 3263 3394 3894 3394 
Q 4388 3394 4653 3120 
Q 4919 2847 4919 2278 
L 4919 0 
L 4359 0 
L 4359 2091 
Q 4359 2428 4304 2576 
Q 4250 2725 4106 2815 
Q 3963 2906 3769 2906 
Q 3419 2906 3187 2673 
Q 2956 2441 2956 1928 
L 2956 0 
L 2394 0 
L 2394 2156 
Q 2394 2531 2256 2718 
Q 2119 2906 1806 2906 
Q 1569 2906 1367 2781 
Q 1166 2656 1075 2415 
Q 984 2175 984 1722 
L 984 0 
L 422 0 
z
" transform="scale(0.015625)"/>
       <path id="ArialMT-56" d="M 197 991 
L 753 1078 
Q 800 744 1014 566 
Q 1228 388 1613 388 
Q 2000 388 2187 545 
Q 2375 703 2375 916 
Q 2375 1106 2209 1216 
Q 2094 1291 1634 1406 
Q 1016 1563 777 1677 
Q 538 1791 414 1992 
Q 291 2194 291 2438 
Q 291 2659 392 2848 
Q 494 3038 669 3163 
Q 800 3259 1026 3326 
Q 1253 3394 1513 3394 
Q 1903 3394 2198 3281 
Q 2494 3169 2634 2976 
Q 2775 2784 2828 2463 
L 2278 2388 
Q 2241 2644 2061 2787 
Q 1881 2931 1553 2931 
Q 1166 2931 1000 2803 
Q 834 2675 834 2503 
Q 834 2394 903 2306 
Q 972 2216 1119 2156 
Q 1203 2125 1616 2013 
Q 2213 1853 2448 1751 
Q 2684 1650 2818 1456 
Q 2953 1263 2953 975 
Q 2953 694 2789 445 
Q 2625 197 2315 61 
Q 2006 -75 1616 -75 
Q 969 -75 630 194 
Q 291 463 197 991 
z
" transform="scale(0.015625)"/>
       <path id="ArialMT-c" d="M 791 -1347 
L 388 -1347 
Q 1322 153 1322 1656 
Q 1322 2244 1188 2822 
Q 1081 3291 891 3722 
Q 769 4003 388 4659 
L 791 4659 
Q 1378 3875 1659 3084 
Q 1900 2403 1900 1659 
Q 1900 816 1576 28 
Q 1253 -759 791 -1347 
z
" transform="scale(0.015625)"/>
      </defs>
      <use xlink:href="#ArialMT-24" transform="translate(0 0.09375)"/>
      <use xlink:href="#ArialMT-46" transform="translate(66.699219 0.09375)"/>
      <use xlink:href="#ArialMT-57" transform="translate(116.699219 0.09375)"/>
      <use xlink:href="#ArialMT-58" transform="translate(144.482422 0.09375)"/>
      <use xlink:href="#ArialMT-44" transform="translate(200.097656 0.09375)"/>
      <use xlink:href="#ArialMT-57" transform="translate(255.712891 0.09375)"/>
      <use xlink:href="#ArialMT-4c" transform="translate(283.496094 0.09375)"/>
      <use xlink:href="#ArialMT-52" transform="translate(305.712891 0.09375)"/>
      <use xlink:href="#ArialMT-51" transform="translate(361.328125 0.09375)"/>
      <use xlink:href="#ArialMT-3" transform="translate(416.943359 0.09375)"/>
      <use xlink:href="#ArialMT-27" transform="translate(444.726562 0.09375)"/>
      <use xlink:href="#ArialMT-48" transform="translate(516.943359 0.09375)"/>
      <use xlink:href="#ArialMT-44" transform="translate(572.558594 0.09375)"/>
      <use xlink:href="#ArialMT-47" transform="translate(628.173828 0.09375)"/>
      <use xlink:href="#ArialMT-4f" transform="translate(683.789062 0.09375)"/>
      <use xlink:href="#ArialMT-4c" transform="translate(706.005859 0.09375)"/>
      <use xlink:href="#ArialMT-51" transform="translate(728.222656 0.09375)"/>
      <use xlink:href="#ArialMT-48" transform="translate(783.837891 0.09375)"/>
      <use xlink:href="#ArialMT-3" transform="translate(839.453125 0.09375)"/>
      <use xlink:href="#ArialMT-b" transform="translate(867.236328 0.09375)"/>
      <use xlink:href="#DejaVuSans-Oblique-37" transform="translate(900.537109 0.09375)"/>
      <use xlink:href="#DejaVuSans-Oblique-44" transform="translate(961.621094 -14.906201) scale(0.7)"/>
      <use xlink:href="#DejaVuSans-Oblique-4f" transform="translate(1004.516602 -14.906201) scale(0.7)"/>
      <use xlink:href="#DejaVuSans-Oblique-4f" transform="translate(1023.964844 -14.906201) scale(0.7)"/>
      <use xlink:href="#DejaVuSans-Oblique-52" transform="translate(1043.413086 -14.906201) scale(0.7)"/>
      <use xlink:href="#DejaVuSans-Oblique-5a" transform="translate(1086.240234 -14.906201) scale(0.7)"/>
      <use xlink:href="#ArialMT-3" transform="translate(1146.225586 0.09375)"/>
      <use xlink:href="#ArialMT-20" transform="translate(1174.008789 0.09375)"/>
      <use xlink:href="#ArialMT-3" transform="translate(1232.407227 0.09375)"/>
      <use xlink:href="#ArialMT-1a" transform="translate(1260.19043 0.09375)"/>
      <use xlink:href="#ArialMT-18" transform="translate(1315.805664 0.09375)"/>
      <use xlink:href="#ArialMT-11" transform="translate(1371.420898 0.09375)"/>
      <use xlink:href="#ArialMT-13" transform="translate(1399.204102 0.09375)"/>
      <use xlink:href="#ArialMT-3" transform="translate(1454.819336 0.09375)"/>
      <use xlink:href="#ArialMT-50" transform="translate(1482.602539 0.09375)"/>
      <use xlink:href="#ArialMT-56" transform="translate(1565.90332 0.09375)"/>
      <use xlink:href="#ArialMT-c" transform="translate(1615.90332 0.09375)"/>
     </g>
    </g>
    <g id="patch_16">
     <path d="M 464.181406 287.911816 
L 482.181406 287.911816 
L 482.181406 281.611816 
L 464.181406 281.611816 
z
" style="fill: #cbd5e1; stroke: #334155; stroke-linejoin: miter"/>
    </g>
    <g id="text_19">
     <!-- Edge Inference Latency ($T_{comp}$) -->
     <g transform="translate(489.381406 287.911816) scale(0.09 -0.09)">
      <defs>
       <path id="ArialMT-28" d="M 506 0 
L 506 4581 
L 3819 4581 
L 3819 4041 
L 1113 4041 
L 1113 2638 
L 3647 2638 
L 3647 2100 
L 1113 2100 
L 1113 541 
L 3925 541 
L 3925 0 
L 506 0 
z
" transform="scale(0.015625)"/>
       <path id="ArialMT-4a" d="M 319 -275 
L 866 -356 
Q 900 -609 1056 -725 
Q 1266 -881 1628 -881 
Q 2019 -881 2231 -725 
Q 2444 -569 2519 -288 
Q 2563 -116 2559 434 
Q 2191 0 1641 0 
Q 956 0 581 494 
Q 206 988 206 1678 
Q 206 2153 378 2554 
Q 550 2956 876 3175 
Q 1203 3394 1644 3394 
Q 2231 3394 2613 2919 
L 2613 3319 
L 3131 3319 
L 3131 450 
Q 3131 -325 2973 -648 
Q 2816 -972 2473 -1159 
Q 2131 -1347 1631 -1347 
Q 1038 -1347 672 -1080 
Q 306 -813 319 -275 
z
M 784 1719 
Q 784 1066 1043 766 
Q 1303 466 1694 466 
Q 2081 466 2343 764 
Q 2606 1063 2606 1700 
Q 2606 2309 2336 2618 
Q 2066 2928 1684 2928 
Q 1309 2928 1046 2623 
Q 784 2319 784 1719 
z
" transform="scale(0.015625)"/>
       <path id="ArialMT-2c" d="M 597 0 
L 597 4581 
L 1203 4581 
L 1203 0 
L 597 0 
z
" transform="scale(0.015625)"/>
       <path id="ArialMT-49" d="M 556 0 
L 556 2881 
L 59 2881 
L 59 3319 
L 556 3319 
L 556 3672 
Q 556 4006 616 4169 
Q 697 4388 901 4523 
Q 1106 4659 1475 4659 
Q 1713 4659 2000 4603 
L 1916 4113 
Q 1741 4144 1584 4144 
Q 1328 4144 1222 4034 
Q 1116 3925 1116 3625 
L 1116 3319 
L 1763 3319 
L 1763 2881 
L 1116 2881 
L 1116 0 
L 556 0 
z
" transform="scale(0.015625)"/>
       <path id="ArialMT-55" d="M 416 0 
L 416 3319 
L 922 3319 
L 922 2816 
Q 1116 3169 1280 3281 
Q 1444 3394 1641 3394 
Q 1925 3394 2219 3213 
L 2025 2691 
Q 1819 2813 1613 2813 
Q 1428 2813 1281 2702 
Q 1134 2591 1072 2394 
Q 978 2094 978 1738 
L 978 0 
L 416 0 
z
" transform="scale(0.015625)"/>
       <path id="ArialMT-2f" d="M 469 0 
L 469 4581 
L 1075 4581 
L 1075 541 
L 3331 541 
L 3331 0 
L 469 0 
z
" transform="scale(0.015625)"/>
       <path id="ArialMT-5c" d="M 397 -1278 
L 334 -750 
Q 519 -800 656 -800 
Q 844 -800 956 -737 
Q 1069 -675 1141 -563 
Q 1194 -478 1313 -144 
Q 1328 -97 1363 -6 
L 103 3319 
L 709 3319 
L 1400 1397 
Q 1534 1031 1641 628 
Q 1738 1016 1872 1384 
L 2581 3319 
L 3144 3319 
L 1881 -56 
Q 1678 -603 1566 -809 
Q 1416 -1088 1222 -1217 
Q 1028 -1347 759 -1347 
Q 597 -1347 397 -1278 
z
" transform="scale(0.015625)"/>
       <path id="DejaVuSans-Oblique-46" d="M 3431 3366 
L 3316 2797 
Q 3109 2947 2876 3022 
Q 2644 3097 2394 3097 
Q 2119 3097 1870 3000 
Q 1622 2903 1453 2725 
Q 1184 2453 1037 2087 
Q 891 1722 891 1331 
Q 891 859 1127 628 
Q 1363 397 1844 397 
Q 2081 397 2348 469 
Q 2616 541 2906 684 
L 2797 116 
Q 2547 13 2283 -39 
Q 2019 -91 1741 -91 
Q 1044 -91 669 257 
Q 294 606 294 1253 
Q 294 1797 489 2255 
Q 684 2713 1069 3078 
Q 1331 3328 1684 3456 
Q 2038 3584 2456 3584 
Q 2700 3584 2940 3529 
Q 3181 3475 3431 3366 
z
" transform="scale(0.015625)"/>
       <path id="DejaVuSans-Oblique-50" d="M 5747 2113 
L 5338 0 
L 4763 0 
L 5166 2094 
Q 5191 2228 5203 2325 
Q 5216 2422 5216 2491 
Q 5216 2772 5059 2928 
Q 4903 3084 4622 3084 
Q 4203 3084 3875 2770 
Q 3547 2456 3450 1953 
L 3066 0 
L 2491 0 
L 2900 2094 
Q 2925 2209 2937 2307 
Q 2950 2406 2950 2484 
Q 2950 2769 2794 2926 
Q 2638 3084 2363 3084 
Q 1938 3084 1609 2770 
Q 1281 2456 1184 1953 
L 800 0 
L 225 0 
L 909 3500 
L 1484 3500 
L 1375 2956 
Q 1609 3263 1923 3423 
Q 2238 3584 2597 3584 
Q 2978 3584 3223 3384 
Q 3469 3184 3519 2828 
Q 3781 3197 4126 3390 
Q 4472 3584 4856 3584 
Q 5306 3584 5551 3325 
Q 5797 3066 5797 2591 
Q 5797 2488 5784 2364 
Q 5772 2241 5747 2113 
z
" transform="scale(0.015625)"/>
       <path id="DejaVuSans-Oblique-53" d="M 3175 2156 
Q 3175 2616 2975 2859 
Q 2775 3103 2400 3103 
Q 2144 3103 1911 2972 
Q 1678 2841 1497 2591 
Q 1319 2344 1212 1994 
Q 1106 1644 1106 1300 
Q 1106 863 1306 627 
Q 1506 391 1875 391 
Q 2147 391 2380 519 
Q 2613 647 2778 891 
Q 2956 1147 3065 1494 
Q 3175 1841 3175 2156 
z
M 1394 2969 
Q 1625 3272 1939 3428 
Q 2253 3584 2638 3584 
Q 3175 3584 3472 3232 
Q 3769 2881 3769 2247 
Q 3769 1728 3584 1258 
Q 3400 788 3053 416 
Q 2822 169 2531 39 
Q 2241 -91 1919 -91 
Q 1547 -91 1294 64 
Q 1041 219 916 525 
L 556 -1331 
L -19 -1331 
L 922 3500 
L 1497 3500 
L 1394 2969 
z
" transform="scale(0.015625)"/>
      </defs>
      <use xlink:href="#ArialMT-28" transform="translate(0 0.09375)"/>
      <use xlink:href="#ArialMT-47" transform="translate(66.699219 0.09375)"/>
      <use xlink:href="#ArialMT-4a" transform="translate(122.314453 0.09375)"/>
      <use xlink:href="#ArialMT-48" transform="translate(177.929688 0.09375)"/>
      <use xlink:href="#ArialMT-3" transform="translate(233.544922 0.09375)"/>
      <use xlink:href="#ArialMT-2c" transform="translate(261.328125 0.09375)"/>
      <use xlink:href="#ArialMT-51" transform="translate(289.111328 0.09375)"/>
      <use xlink:href="#ArialMT-49" transform="translate(344.726562 0.09375)"/>
      <use xlink:href="#ArialMT-48" transform="translate(372.509766 0.09375)"/>
      <use xlink:href="#ArialMT-55" transform="translate(428.125 0.09375)"/>
      <use xlink:href="#ArialMT-48" transform="translate(461.425781 0.09375)"/>
      <use xlink:href="#ArialMT-51" transform="translate(517.041016 0.09375)"/>
      <use xlink:href="#ArialMT-46" transform="translate(572.65625 0.09375)"/>
      <use xlink:href="#ArialMT-48" transform="translate(622.65625 0.09375)"/>
      <use xlink:href="#ArialMT-3" transform="translate(678.271484 0.09375)"/>
      <use xlink:href="#ArialMT-2f" transform="translate(706.054688 0.09375)"/>
      <use xlink:href="#ArialMT-44" transform="translate(761.669922 0.09375)"/>
      <use xlink:href="#ArialMT-57" transform="translate(817.285156 0.09375)"/>
      <use xlink:href="#ArialMT-48" transform="translate(845.068359 0.09375)"/>
      <use xlink:href="#ArialMT-51" transform="translate(900.683594 0.09375)"/>
      <use xlink:href="#ArialMT-46" transform="translate(956.298828 0.09375)"/>
      <use xlink:href="#ArialMT-5c" transform="translate(1006.298828 0.09375)"/>
      <use xlink:href="#ArialMT-3" transform="translate(1056.298828 0.09375)"/>
      <use xlink:href="#ArialMT-b" transform="translate(1084.082031 0.09375)"/>
      <use xlink:href="#DejaVuSans-Oblique-37" transform="translate(1117.382812 0.09375)"/>
      <use xlink:href="#DejaVuSans-Oblique-46" transform="translate(1178.466797 -14.906201) scale(0.7)"/>
      <use xlink:href="#DejaVuSans-Oblique-52" transform="translate(1216.953125 -14.906201) scale(0.7)"/>
      <use xlink:href="#DejaVuSans-Oblique-50" transform="translate(1259.780273 -14.906201) scale(0.7)"/>
      <use xlink:href="#DejaVuSans-Oblique-53" transform="translate(1327.96875 -14.906201) scale(0.7)"/>
      <use xlink:href="#ArialMT-c" transform="translate(1375.136719 0.09375)"/>
     </g>
    </g>
    <g id="patch_17">
     <path d="M 464.181406 301.681816 
L 482.181406 301.681816 
L 482.181406 295.381816 
L 464.181406 295.381816 
z
" style="fill: #64748b; stroke: #334155; stroke-linejoin: miter"/>
    </g>
    <g id="text_20">
     <!-- Mechanical Valve Delay ($T_{mech}$ = 25.0 ms) -->
     <g transform="translate(489.381406 301.681816) scale(0.09 -0.09)">
      <defs>
       <path id="ArialMT-30" d="M 475 0 
L 475 4581 
L 1388 4581 
L 2472 1338 
Q 2622 884 2691 659 
Q 2769 909 2934 1394 
L 4031 4581 
L 4847 4581 
L 4847 0 
L 4263 0 
L 4263 3834 
L 2931 0 
L 2384 0 
L 1059 3900 
L 1059 0 
L 475 0 
z
" transform="scale(0.015625)"/>
       <path id="ArialMT-4b" d="M 422 0 
L 422 4581 
L 984 4581 
L 984 2938 
Q 1378 3394 1978 3394 
Q 2347 3394 2619 3248 
Q 2891 3103 3008 2847 
Q 3125 2591 3125 2103 
L 3125 0 
L 2563 0 
L 2563 2103 
Q 2563 2525 2380 2717 
Q 2197 2909 1863 2909 
Q 1613 2909 1392 2779 
Q 1172 2650 1078 2428 
Q 984 2206 984 1816 
L 984 0 
L 422 0 
z
" transform="scale(0.015625)"/>
       <path id="ArialMT-39" d="M 1803 0 
L 28 4581 
L 684 4581 
L 1875 1253 
Q 2019 853 2116 503 
Q 2222 878 2363 1253 
L 3600 4581 
L 4219 4581 
L 2425 0 
L 1803 0 
z
" transform="scale(0.015625)"/>
       <path id="ArialMT-59" d="M 1344 0 
L 81 3319 
L 675 3319 
L 1388 1331 
Q 1503 1009 1600 663 
Q 1675 925 1809 1294 
L 2547 3319 
L 3125 3319 
L 1869 0 
L 1344 0 
z
" transform="scale(0.015625)"/>
       <path id="DejaVuSans-Oblique-48" d="M 3078 2063 
Q 3088 2113 3092 2166 
Q 3097 2219 3097 2272 
Q 3097 2653 2873 2875 
Q 2650 3097 2266 3097 
Q 1838 3097 1509 2826 
Q 1181 2556 1013 2059 
L 3078 2063 
z
M 3578 1613 
L 903 1613 
Q 884 1494 878 1425 
Q 872 1356 872 1306 
Q 872 872 1139 634 
Q 1406 397 1894 397 
Q 2269 397 2603 481 
Q 2938 566 3225 728 
L 3116 159 
Q 2806 34 2476 -28 
Q 2147 -91 1806 -91 
Q 1078 -91 686 257 
Q 294 606 294 1247 
Q 294 1794 489 2264 
Q 684 2734 1063 3103 
Q 1306 3334 1642 3459 
Q 1978 3584 2356 3584 
Q 2950 3584 3301 3228 
Q 3653 2872 3653 2272 
Q 3653 2128 3634 1964 
Q 3616 1800 3578 1613 
z
" transform="scale(0.015625)"/>
       <path id="DejaVuSans-Oblique-4b" d="M 3566 2113 
L 3156 0 
L 2578 0 
L 2988 2091 
Q 3016 2238 3031 2350 
Q 3047 2463 3047 2528 
Q 3047 2791 2881 2937 
Q 2716 3084 2419 3084 
Q 1956 3084 1617 2771 
Q 1278 2459 1178 1941 
L 800 0 
L 225 0 
L 1172 4863 
L 1747 4863 
L 1375 2950 
Q 1594 3244 1934 3414 
Q 2275 3584 2650 3584 
Q 3113 3584 3367 3334 
Q 3622 3084 3622 2631 
Q 3622 2519 3608 2391 
Q 3594 2263 3566 2113 
z
" transform="scale(0.015625)"/>
      </defs>
      <use xlink:href="#ArialMT-30" transform="translate(0 0.09375)"/>
      <use xlink:href="#ArialMT-48" transform="translate(83.300781 0.09375)"/>
      <use xlink:href="#ArialMT-46" transform="translate(138.916016 0.09375)"/>
      <use xlink:href="#ArialMT-4b" transform="translate(188.916016 0.09375)"/>
      <use xlink:href="#ArialMT-44" transform="translate(244.53125 0.09375)"/>
      <use xlink:href="#ArialMT-51" transform="translate(300.146484 0.09375)"/>
      <use xlink:href="#ArialMT-4c" transform="translate(355.761719 0.09375)"/>
      <use xlink:href="#ArialMT-46" transform="translate(377.978516 0.09375)"/>
      <use xlink:href="#ArialMT-44" transform="translate(427.978516 0.09375)"/>
      <use xlink:href="#ArialMT-4f" transform="translate(483.59375 0.09375)"/>
      <use xlink:href="#ArialMT-3" transform="translate(505.810547 0.09375)"/>
      <use xlink:href="#ArialMT-39" transform="translate(533.59375 0.09375)"/>
      <use xlink:href="#ArialMT-44" transform="translate(593.292969 0.09375)"/>
      <use xlink:href="#ArialMT-4f" transform="translate(648.908203 0.09375)"/>
      <use xlink:href="#ArialMT-59" transform="translate(671.125 0.09375)"/>
      <use xlink:href="#ArialMT-48" transform="translate(721.125 0.09375)"/>
      <use xlink:href="#ArialMT-3" transform="translate(776.740234 0.09375)"/>
      <use xlink:href="#ArialMT-27" transform="translate(804.523438 0.09375)"/>
      <use xlink:href="#ArialMT-48" transform="translate(876.740234 0.09375)"/>
      <use xlink:href="#ArialMT-4f" transform="translate(932.355469 0.09375)"/>
      <use xlink:href="#ArialMT-44" transform="translate(954.572266 0.09375)"/>
      <use xlink:href="#ArialMT-5c" transform="translate(1010.1875 0.09375)"/>
      <use xlink:href="#ArialMT-3" transform="translate(1060.1875 0.09375)"/>
      <use xlink:href="#ArialMT-b" transform="translate(1087.970703 0.09375)"/>
      <use xlink:href="#DejaVuSans-Oblique-37" transform="translate(1121.271484 0.09375)"/>
      <use xlink:href="#DejaVuSans-Oblique-50" transform="translate(1182.355469 -14.906201) scale(0.7)"/>
      <use xlink:href="#DejaVuSans-Oblique-48" transform="translate(1250.543945 -14.906201) scale(0.7)"/>
      <use xlink:href="#DejaVuSans-Oblique-46" transform="translate(1293.610352 -14.906201) scale(0.7)"/>
      <use xlink:href="#DejaVuSans-Oblique-4b" transform="translate(1332.09668 -14.906201) scale(0.7)"/>
      <use xlink:href="#ArialMT-3" transform="translate(1379.196289 0.09375)"/>
      <use xlink:href="#ArialMT-20" transform="translate(1406.979492 0.09375)"/>
      <use xlink:href="#ArialMT-3" transform="translate(1465.37793 0.09375)"/>
      <use xlink:href="#ArialMT-15" transform="translate(1493.161133 0.09375)"/>
      <use xlink:href="#ArialMT-18" transform="translate(1548.776367 0.09375)"/>
      <use xlink:href="#ArialMT-11" transform="translate(1604.391602 0.09375)"/>
      <use xlink:href="#ArialMT-13" transform="translate(1632.174805 0.09375)"/>
      <use xlink:href="#ArialMT-3" transform="translate(1687.790039 0.09375)"/>
      <use xlink:href="#ArialMT-50" transform="translate(1715.573242 0.09375)"/>
      <use xlink:href="#ArialMT-56" transform="translate(1798.874023 0.09375)"/>
      <use xlink:href="#ArialMT-c" transform="translate(1848.874023 0.09375)"/>
     </g>
    </g>
   </g>
  </g>
 </g>
 <defs>
  <clipPath id="p7c41669dc0">
   <rect x="134.311406" y="7.2" width="532.64" height="304.561816"/>
  </clipPath>
 </defs>
</svg>
