<?xml version="1.0" encoding="utf-8" standalone="no"?>
<!DOCTYPE svg PUBLIC "-//W3C//DTD SVG 1.1//EN"
  "http://www.w3.org/Graphics/SVG/1.1/DTD/svg11.dtd">
<svg xmlns:xlink="http://www.w3.org/1999/xlink" width="559.26793pt" height="416.16793pt" viewBox="0 0 559.26793 416.16793" xmlns="http://www.w3.org/2000/svg" version="1.1">
 <metadata>
  <rdf:RDF xmlns:dc="http://purl.org/dc/elements/1.1/" xmlns:cc="http://creativecommons.org/ns#" xmlns:rdf="http://www.w3.org/1999/02/22-rdf-syntax-ns#">
   <cc:Work>
    <dc:type rdf:resource="http://purl.org/dc/dcmitype/StillImage"/>
    <dc:date>2026-07-23T13:19:18.230245</dc:date>
    <dc:format>image/svg+xml</dc:format>
    <dc:creator>
     <cc:Agent>
      <dc:title>Matplotlib v3.11.1, https://matplotlib.org/</dc:title>
     </cc:Agent>
    </dc:creator>
   </cc:Work>
  </rdf:RDF>
 </metadata>
 <defs>
  <style type="text/css">*{stroke-linejoin: round; stroke-linecap: butt}</style>
 </defs>
 <g id="figure_1">
  <g id="patch_1">
   <path d="M 0 416.16793 
L 559.26793 416.16793 
L 559.26793 0 
L 0 0 
z
" style="fill: #ffffff"/>
  </g>
  <g id="axes_1">
   <g id="patch_2">
    <path d="M 51.710859 372.728555 
L 541.56793 372.728555 
L 541.56793 12.053516 
L 51.710859 12.053516 
z
" style="fill: #ffffff"/>
   </g>
   <g id="FillBetweenPolyCollection_1">
    <defs>
     <path id="m72f3ef5476" d="M 51.710859 -411.678578 
L 51.710859 -382.220377 
L 56.60943 -348.200049 
L 61.508001 -326.544139 
L 66.406571 -318.614087 
L 71.305142 -301.15272 
L 76.203713 -286.139219 
L 81.102284 -274.199839 
L 86.000854 -246.354443 
L 90.899425 -238.902685 
L 95.797996 -227.856129 
L 100.696566 -222.455352 
L 105.595137 -210.572748 
L 110.493708 -196.575513 
L 115.392279 -189.637062 
L 120.290849 -176.403122 
L 125.18942 -171.839747 
L 130.087991 -164.478425 
L 134.986561 -163.763548 
L 139.885132 -158.021454 
L 144.783703 -146.7842 
L 149.682273 -143.562491 
L 154.580844 -137.644233 
L 159.479415 -133.464018 
L 164.377986 -132.240283 
L 169.276556 -125.354267 
L 174.175127 -124.693264 
L 179.073698 -120.31302 
L 183.972268 -119.483486 
L 188.870839 -116.491502 
L 193.76941 -114.043872 
L 198.66798 -114.216448 
L 203.566551 -110.513794 
L 208.465122 -110.122553 
L 213.363693 -105.82769 
L 218.262263 -104.053128 
L 223.160834 -105.009499 
L 228.059405 -103.346031 
L 232.957975 -101.043896 
L 237.856546 -99.637333 
L 242.755117 -99.481741 
L 247.653687 -97.76373 
L 252.552258 -98.236339 
L 257.450829 -97.378798 
L 262.3494 -96.193797 
L 267.24797 -95.138067 
L 272.146541 -94.944505 
L 277.045112 -95.12716 
L 281.943682 -94.713932 
L 286.842253 -93.881327 
L 291.740824 -93.903566 
L 296.639395 -93.340238 
L 301.537965 -92.752598 
L 306.436536 -92.212585 
L 311.335107 -91.933114 
L 316.233677 -91.919364 
L 321.132248 -91.585861 
L 326.030819 -91.343065 
L 330.929389 -91.052667 
L 335.82796 -90.765688 
L 340.726531 -90.880347 
L 345.625102 -89.85353 
L 350.523672 -90.075712 
L 355.422243 -89.569354 
L 360.320814 -89.758607 
L 365.219384 -89.809268 
L 370.117955 -89.469483 
L 375.016526 -89.490558 
L 379.915096 -89.426662 
L 384.813667 -88.967159 
L 389.712238 -89.119722 
L 394.610809 -89.149676 
L 399.509379 -89.503237 
L 404.40795 -89.274001 
L 409.306521 -89.119528 
L 414.205091 -88.858285 
L 419.103662 -89.100855 
L 424.002233 -88.959559 
L 428.900804 -88.945276 
L 433.799374 -88.839301 
L 438.697945 -88.725223 
L 443.596516 -88.8407 
L 448.495086 -88.690539 
L 453.393657 -88.646643 
L 458.292228 -88.689474 
L 463.190798 -88.729309 
L 468.089369 -88.799477 
L 472.98794 -88.648765 
L 477.886511 -88.659051 
L 482.785081 -88.673225 
L 487.683652 -88.612465 
L 492.582223 -88.721271 
L 497.480793 -88.644618 
L 502.379364 -88.570948 
L 507.277935 -88.56851 
L 512.176505 -88.593137 
L 517.075076 -88.557088 
L 521.973647 -88.603014 
L 526.872218 -88.547399 
L 531.770788 -88.482463 
L 536.669359 -88.618445 
L 541.56793 -88.52166 
L 541.56793 -88.717721 
L 541.56793 -88.717721 
L 536.669359 -88.714975 
L 531.770788 -88.685315 
L 526.872218 -88.785457 
L 521.973647 -88.769754 
L 517.075076 -88.800133 
L 512.176505 -88.782761 
L 507.277935 -88.752268 
L 502.379364 -88.803743 
L 497.480793 -88.907394 
L 492.582223 -88.975213 
L 487.683652 -88.838944 
L 482.785081 -88.929368 
L 477.886511 -89.032732 
L 472.98794 -88.968024 
L 468.089369 -89.091701 
L 463.190798 -89.164829 
L 458.292228 -89.074105 
L 453.393657 -89.280688 
L 448.495086 -89.084172 
L 443.596516 -89.222772 
L 438.697945 -89.319109 
L 433.799374 -89.64255 
L 428.900804 -89.518288 
L 424.002233 -89.454588 
L 419.103662 -89.731755 
L 414.205091 -89.926843 
L 409.306521 -89.829662 
L 404.40795 -90.030108 
L 399.509379 -90.223299 
L 394.610809 -90.164982 
L 389.712238 -90.12702 
L 384.813667 -90.07641 
L 379.915096 -90.502677 
L 375.016526 -90.697991 
L 370.117955 -90.622672 
L 365.219384 -90.908986 
L 360.320814 -91.112404 
L 355.422243 -91.061311 
L 350.523672 -91.737113 
L 345.625102 -91.795646 
L 340.726531 -91.780127 
L 335.82796 -92.292155 
L 330.929389 -92.325854 
L 326.030819 -93.246477 
L 321.132248 -93.8455 
L 316.233677 -93.552303 
L 311.335107 -93.291423 
L 306.436536 -93.976885 
L 301.537965 -94.238052 
L 296.639395 -95.157618 
L 291.740824 -95.770782 
L 286.842253 -97.437279 
L 281.943682 -96.941696 
L 277.045112 -97.948899 
L 272.146541 -97.563784 
L 267.24797 -98.905354 
L 262.3494 -98.578817 
L 257.450829 -99.575658 
L 252.552258 -100.953492 
L 247.653687 -102.198788 
L 242.755117 -104.245538 
L 237.856546 -103.868648 
L 232.957975 -105.906845 
L 228.059405 -105.844974 
L 223.160834 -109.975869 
L 218.262263 -109.79767 
L 213.363693 -111.603923 
L 208.465122 -115.972837 
L 203.566551 -117.23856 
L 198.66798 -119.115039 
L 193.76941 -119.513616 
L 188.870839 -122.703269 
L 183.972268 -125.994849 
L 179.073698 -126.061299 
L 174.175127 -132.981433 
L 169.276556 -136.909489 
L 164.377986 -141.492924 
L 159.479415 -142.878813 
L 154.580844 -148.068323 
L 149.682273 -156.008241 
L 144.783703 -158.774061 
L 139.885132 -169.32057 
L 134.986561 -174.171521 
L 130.087991 -180.330497 
L 125.18942 -183.20209 
L 120.290849 -194.573895 
L 115.392279 -202.429549 
L 110.493708 -213.71453 
L 105.595137 -222.409515 
L 100.696566 -229.984243 
L 95.797996 -245.570261 
L 90.899425 -260.526661 
L 86.000854 -276.720671 
L 81.102284 -285.319065 
L 76.203713 -300.873506 
L 71.305142 -319.696927 
L 66.406571 -339.377968 
L 61.508001 -353.511158 
L 56.60943 -372.472374 
L 51.710859 -411.678578 
z
" style="stroke: #1f77b4; stroke-opacity: 0.15"/>
    </defs>
    <g clip-path="url(#p213ccfb823)">
     <use xlink:href="#m72f3ef5476" x="0" y="416.16793" style="fill: #1f77b4; fill-opacity: 0.15; stroke: #1f77b4; stroke-opacity: 0.15"/>
    </g>
   </g>
   <g id="matplotlib.axis_1">
    <g id="xtick_1">
     <g id="line2d_1">
      <path d="M 51.710859 372.728555 
L 51.710859 12.053516 
" clip-path="url(#p213ccfb823)" style="fill: none; stroke-dasharray: 0.8,1.32; stroke-dashoffset: 0; stroke: #808080; stroke-opacity: 0.4; stroke-width: 0.8"/>
     </g>
     <g id="line2d_2">
      <defs>
       <path id="mfa54740f65" d="M 0 0 
L 0 3.5 
" style="stroke: #000000; stroke-width: 0.8"/>
      </defs>
      <g>
       <use xlink:href="#mfa54740f65" x="51.710859" y="372.728555" style="stroke: #000000; stroke-width: 0.8"/>
      </g>
     </g>
     <g id="text_1">
      <!-- 0 -->
      <g transform="translate(48.210859 389.435586) scale(0.14 -0.14)">
       <defs>
        <path id="TimesNewRomanPSMT-13" d="M 231 2094 
Q 231 2819 450 3342 
Q 669 3866 1031 4122 
Q 1313 4325 1613 4325 
Q 2100 4325 2488 3828 
Q 2972 3213 2972 2159 
Q 2972 1422 2759 906 
Q 2547 391 2217 158 
Q 1888 -75 1581 -75 
Q 975 -75 572 641 
Q 231 1244 231 2094 
z
M 844 2016 
Q 844 1141 1059 588 
Q 1238 122 1591 122 
Q 1759 122 1940 273 
Q 2122 425 2216 781 
Q 2359 1319 2359 2297 
Q 2359 3022 2209 3506 
Q 2097 3866 1919 4016 
Q 1791 4119 1609 4119 
Q 1397 4119 1231 3928 
Q 1006 3669 925 3112 
Q 844 2556 844 2016 
z
" transform="scale(0.015625)"/>
       </defs>
       <use xlink:href="#TimesNewRomanPSMT-13"/>
      </g>
     </g>
    </g>
    <g id="xtick_2">
     <g id="line2d_3">
      <path d="M 149.682273 372.728555 
L 149.682273 12.053516 
" clip-path="url(#p213ccfb823)" style="fill: none; stroke-dasharray: 0.8,1.32; stroke-dashoffset: 0; stroke: #808080; stroke-opacity: 0.4; stroke-width: 0.8"/>
     </g>
     <g id="line2d_4">
      <g>
       <use xlink:href="#mfa54740f65" x="149.682273" y="372.728555" style="stroke: #000000; stroke-width: 0.8"/>
      </g>
     </g>
     <g id="text_2">
      <!-- 20 -->
      <g transform="translate(142.682273 389.435586) scale(0.14 -0.14)">
       <defs>
        <path id="TimesNewRomanPSMT-15" d="M 2934 816 
L 2638 0 
L 138 0 
L 138 116 
Q 1241 1122 1691 1759 
Q 2141 2397 2141 2925 
Q 2141 3328 1894 3587 
Q 1647 3847 1303 3847 
Q 991 3847 742 3664 
Q 494 3481 375 3128 
L 259 3128 
Q 338 3706 661 4015 
Q 984 4325 1469 4325 
Q 1984 4325 2329 3994 
Q 2675 3663 2675 3213 
Q 2675 2891 2525 2569 
Q 2294 2063 1775 1497 
Q 997 647 803 472 
L 1909 472 
Q 2247 472 2383 497 
Q 2519 522 2628 598 
Q 2738 675 2819 816 
L 2934 816 
z
" transform="scale(0.015625)"/>
       </defs>
       <use xlink:href="#TimesNewRomanPSMT-15"/>
       <use xlink:href="#TimesNewRomanPSMT-13" transform="translate(50 0)"/>
      </g>
     </g>
    </g>
    <g id="xtick_3">
     <g id="line2d_5">
      <path d="M 247.653687 372.728555 
L 247.653687 12.053516 
" clip-path="url(#p213ccfb823)" style="fill: none; stroke-dasharray: 0.8,1.32; stroke-dashoffset: 0; stroke: #808080; stroke-opacity: 0.4; stroke-width: 0.8"/>
     </g>
     <g id="line2d_6">
      <g>
       <use xlink:href="#mfa54740f65" x="247.653687" y="372.728555" style="stroke: #000000; stroke-width: 0.8"/>
      </g>
     </g>
     <g id="text_3">
      <!-- 40 -->
      <g transform="translate(240.653687 389.435586) scale(0.14 -0.14)">
       <defs>
        <path id="TimesNewRomanPSMT-17" d="M 2978 1563 
L 2978 1119 
L 2409 1119 
L 2409 0 
L 1894 0 
L 1894 1119 
L 100 1119 
L 100 1519 
L 2066 4325 
L 2409 4325 
L 2409 1563 
L 2978 1563 
z
M 1894 1563 
L 1894 3666 
L 406 1563 
L 1894 1563 
z
" transform="scale(0.015625)"/>
       </defs>
       <use xlink:href="#TimesNewRomanPSMT-17"/>
       <use xlink:href="#TimesNewRomanPSMT-13" transform="translate(50 0)"/>
      </g>
     </g>
    </g>
    <g id="xtick_4">
     <g id="line2d_7">
      <path d="M 345.625102 372.728555 
L 345.625102 12.053516 
" clip-path="url(#p213ccfb823)" style="fill: none; stroke-dasharray: 0.8,1.32; stroke-dashoffset: 0; stroke: #808080; stroke-opacity: 0.4; stroke-width: 0.8"/>
     </g>
     <g id="line2d_8">
      <g>
       <use xlink:href="#mfa54740f65" x="345.625102" y="372.728555" style="stroke: #000000; stroke-width: 0.8"/>
      </g>
     </g>
     <g id="text_4">
      <!-- 60 -->
      <g transform="translate(338.625102 389.435586) scale(0.14 -0.14)">
       <defs>
        <path id="TimesNewRomanPSMT-19" d="M 2869 4325 
L 2869 4209 
Q 2456 4169 2195 4045 
Q 1934 3922 1679 3669 
Q 1425 3416 1258 3105 
Q 1091 2794 978 2366 
Q 1428 2675 1881 2675 
Q 2316 2675 2634 2325 
Q 2953 1975 2953 1425 
Q 2953 894 2631 456 
Q 2244 -75 1606 -75 
Q 1172 -75 869 213 
Q 275 772 275 1663 
Q 275 2231 503 2743 
Q 731 3256 1154 3653 
Q 1578 4050 1965 4187 
Q 2353 4325 2688 4325 
L 2869 4325 
z
M 925 2138 
Q 869 1716 869 1456 
Q 869 1156 980 804 
Q 1091 453 1309 247 
Q 1469 100 1697 100 
Q 1969 100 2183 356 
Q 2397 613 2397 1088 
Q 2397 1622 2184 2012 
Q 1972 2403 1581 2403 
Q 1463 2403 1327 2353 
Q 1191 2303 925 2138 
z
" transform="scale(0.015625)"/>
       </defs>
       <use xlink:href="#TimesNewRomanPSMT-19"/>
       <use xlink:href="#TimesNewRomanPSMT-13" transform="translate(50 0)"/>
      </g>
     </g>
    </g>
    <g id="xtick_5">
     <g id="line2d_9">
      <path d="M 443.596516 372.728555 
L 443.596516 12.053516 
" clip-path="url(#p213ccfb823)" style="fill: none; stroke-dasharray: 0.8,1.32; stroke-dashoffset: 0; stroke: #808080; stroke-opacity: 0.4; stroke-width: 0.8"/>
     </g>
     <g id="line2d_10">
      <g>
       <use xlink:href="#mfa54740f65" x="443.596516" y="372.728555" style="stroke: #000000; stroke-width: 0.8"/>
      </g>
     </g>
     <g id="text_5">
      <!-- 80 -->
      <g transform="translate(436.596516 389.435586) scale(0.14 -0.14)">
       <defs>
        <path id="TimesNewRomanPSMT-1b" d="M 1228 2134 
Q 725 2547 579 2797 
Q 434 3047 434 3316 
Q 434 3728 753 4026 
Q 1072 4325 1600 4325 
Q 2113 4325 2425 4047 
Q 2738 3769 2738 3413 
Q 2738 3175 2569 2928 
Q 2400 2681 1866 2347 
Q 2416 1922 2594 1678 
Q 2831 1359 2831 1006 
Q 2831 559 2490 242 
Q 2150 -75 1597 -75 
Q 994 -75 656 303 
Q 388 606 388 966 
Q 388 1247 577 1523 
Q 766 1800 1228 2134 
z
M 1719 2469 
Q 2094 2806 2194 3001 
Q 2294 3197 2294 3444 
Q 2294 3772 2109 3958 
Q 1925 4144 1606 4144 
Q 1288 4144 1088 3959 
Q 888 3775 888 3528 
Q 888 3366 970 3203 
Q 1053 3041 1206 2894 
L 1719 2469 
z
M 1375 2016 
Q 1116 1797 991 1539 
Q 866 1281 866 981 
Q 866 578 1086 336 
Q 1306 94 1647 94 
Q 1984 94 2187 284 
Q 2391 475 2391 747 
Q 2391 972 2272 1150 
Q 2050 1481 1375 2016 
z
" transform="scale(0.015625)"/>
       </defs>
       <use xlink:href="#TimesNewRomanPSMT-1b"/>
       <use xlink:href="#TimesNewRomanPSMT-13" transform="translate(50 0)"/>
      </g>
     </g>
    </g>
    <g id="xtick_6">
     <g id="line2d_11">
      <path d="M 541.56793 372.728555 
L 541.56793 12.053516 
" clip-path="url(#p213ccfb823)" style="fill: none; stroke-dasharray: 0.8,1.32; stroke-dashoffset: 0; stroke: #808080; stroke-opacity: 0.4; stroke-width: 0.8"/>
     </g>
     <g id="line2d_12">
      <g>
       <use xlink:href="#mfa54740f65" x="541.56793" y="372.728555" style="stroke: #000000; stroke-width: 0.8"/>
      </g>
     </g>
     <g id="text_6">
      <!-- 100 -->
      <g transform="translate(531.06793 389.435586) scale(0.14 -0.14)">
       <defs>
        <path id="TimesNewRomanPSMT-14" d="M 750 3822 
L 1781 4325 
L 1884 4325 
L 1884 747 
Q 1884 391 1914 303 
Q 1944 216 2037 169 
Q 2131 122 2419 116 
L 2419 0 
L 825 0 
L 825 116 
Q 1125 122 1212 167 
Q 1300 213 1334 289 
Q 1369 366 1369 747 
L 1369 3034 
Q 1369 3497 1338 3628 
Q 1316 3728 1258 3775 
Q 1200 3822 1119 3822 
Q 1003 3822 797 3725 
L 750 3822 
z
" transform="scale(0.015625)"/>
       </defs>
       <use xlink:href="#TimesNewRomanPSMT-14"/>
       <use xlink:href="#TimesNewRomanPSMT-13" transform="translate(50 0)"/>
       <use xlink:href="#TimesNewRomanPSMT-13" transform="translate(100 0)"/>
      </g>
     </g>
    </g>
    <g id="text_7">
     <!-- Generations -->
     <g transform="translate(260.087363 405.946445) scale(0.14 -0.14)">
      <defs>
       <path id="TimesNewRomanPS-BoldMT-2a" d="M 4416 4334 
L 4416 2841 
L 4300 2841 
Q 4091 3453 3672 3772 
Q 3253 4091 2756 4091 
Q 2281 4091 1965 3823 
Q 1650 3556 1519 3078 
Q 1388 2600 1388 2097 
Q 1388 1488 1531 1028 
Q 1675 569 1995 353 
Q 2316 138 2756 138 
Q 2909 138 3070 170 
Q 3231 203 3400 266 
L 3400 1147 
Q 3400 1397 3365 1470 
Q 3331 1544 3223 1603 
Q 3116 1663 2963 1663 
L 2853 1663 
L 2853 1778 
L 4913 1778 
L 4913 1663 
Q 4678 1647 4586 1598 
Q 4494 1550 4444 1438 
Q 4416 1378 4416 1147 
L 4416 266 
Q 4009 84 3570 -8 
Q 3131 -100 2659 -100 
Q 2056 -100 1657 64 
Q 1259 228 954 495 
Q 650 763 478 1097 
Q 259 1528 259 2063 
Q 259 3019 931 3678 
Q 1603 4338 2622 4338 
Q 2938 4338 3191 4288 
Q 3328 4263 3636 4145 
Q 3944 4028 4000 4028 
Q 4088 4028 4163 4092 
Q 4238 4156 4300 4334 
L 4416 4334 
z
" transform="scale(0.015625)"/>
       <path id="TimesNewRomanPS-BoldMT-48" d="M 2691 1566 
L 1088 1566 
Q 1116 984 1397 647 
Q 1613 388 1916 388 
Q 2103 388 2256 492 
Q 2409 597 2584 869 
L 2691 800 
Q 2453 316 2165 114 
Q 1878 -88 1500 -88 
Q 850 -88 516 413 
Q 247 816 247 1413 
Q 247 2144 642 2576 
Q 1038 3009 1569 3009 
Q 2013 3009 2339 2645 
Q 2666 2281 2691 1566 
z
M 1922 1775 
Q 1922 2278 1867 2465 
Q 1813 2653 1697 2750 
Q 1631 2806 1522 2806 
Q 1359 2806 1256 2647 
Q 1072 2369 1072 1884 
L 1072 1775 
L 1922 1775 
z
" transform="scale(0.015625)"/>
       <path id="TimesNewRomanPS-BoldMT-51" d="M 1409 2922 
L 1409 2544 
Q 1634 2788 1840 2898 
Q 2047 3009 2284 3009 
Q 2569 3009 2756 2851 
Q 2944 2694 3006 2459 
Q 3056 2281 3056 1775 
L 3056 638 
Q 3056 300 3117 217 
Q 3178 134 3372 113 
L 3372 0 
L 1894 0 
L 1894 113 
Q 2059 134 2131 250 
Q 2181 328 2181 638 
L 2181 1938 
Q 2181 2297 2153 2390 
Q 2125 2484 2058 2536 
Q 1991 2588 1909 2588 
Q 1641 2588 1409 2203 
L 1409 638 
Q 1409 309 1470 221 
Q 1531 134 1697 113 
L 1697 0 
L 219 0 
L 219 113 
Q 403 131 481 231 
Q 534 300 534 638 
L 534 2288 
Q 534 2619 473 2700 
Q 413 2781 219 2806 
L 219 2922 
L 1409 2922 
z
" transform="scale(0.015625)"/>
       <path id="TimesNewRomanPS-BoldMT-55" d="M 1428 2922 
L 1428 2259 
Q 1719 2713 1937 2861 
Q 2156 3009 2359 3009 
Q 2534 3009 2639 2901 
Q 2744 2794 2744 2597 
Q 2744 2388 2642 2272 
Q 2541 2156 2397 2156 
Q 2231 2156 2109 2262 
Q 1988 2369 1966 2381 
Q 1934 2400 1894 2400 
Q 1803 2400 1722 2331 
Q 1594 2225 1528 2028 
Q 1428 1725 1428 1359 
L 1428 688 
L 1431 513 
Q 1431 334 1453 284 
Q 1491 200 1564 161 
Q 1638 122 1813 113 
L 1813 0 
L 234 0 
L 234 113 
Q 425 128 492 217 
Q 559 306 559 688 
L 559 2303 
Q 559 2553 534 2622 
Q 503 2709 443 2750 
Q 384 2791 234 2806 
L 234 2922 
L 1428 2922 
z
" transform="scale(0.015625)"/>
       <path id="TimesNewRomanPS-BoldMT-44" d="M 1828 431 
Q 1294 -41 869 -41 
Q 619 -41 453 123 
Q 288 288 288 534 
Q 288 869 575 1136 
Q 863 1403 1828 1847 
L 1828 2141 
Q 1828 2472 1792 2558 
Q 1756 2644 1656 2708 
Q 1556 2772 1431 2772 
Q 1228 2772 1097 2681 
Q 1016 2625 1016 2550 
Q 1016 2484 1103 2388 
Q 1222 2253 1222 2128 
Q 1222 1975 1108 1867 
Q 994 1759 809 1759 
Q 613 1759 480 1878 
Q 347 1997 347 2156 
Q 347 2381 525 2586 
Q 703 2791 1022 2900 
Q 1341 3009 1684 3009 
Q 2100 3009 2342 2832 
Q 2584 2656 2656 2450 
Q 2700 2319 2700 1847 
L 2700 713 
Q 2700 513 2715 461 
Q 2731 409 2762 384 
Q 2794 359 2834 359 
Q 2916 359 3000 475 
L 3094 400 
Q 2938 169 2770 64 
Q 2603 -41 2391 -41 
Q 2141 -41 2000 76 
Q 1859 194 1828 431 
z
M 1828 659 
L 1828 1638 
Q 1450 1416 1266 1163 
Q 1144 994 1144 822 
Q 1144 678 1247 569 
Q 1325 484 1466 484 
Q 1622 484 1828 659 
z
" transform="scale(0.015625)"/>
       <path id="TimesNewRomanPS-BoldMT-57" d="M 1375 3991 
L 1375 2922 
L 2069 2922 
L 2069 2613 
L 1375 2613 
L 1375 809 
Q 1375 556 1398 482 
Q 1422 409 1481 364 
Q 1541 319 1591 319 
Q 1794 319 1975 628 
L 2069 559 
Q 1816 -41 1247 -41 
Q 969 -41 776 114 
Q 584 269 531 459 
Q 500 566 500 1034 
L 500 2613 
L 119 2613 
L 119 2722 
Q 513 3000 789 3306 
Q 1066 3613 1272 3991 
L 1375 3991 
z
" transform="scale(0.015625)"/>
       <path id="TimesNewRomanPS-BoldMT-4c" d="M 919 4338 
Q 1122 4338 1262 4195 
Q 1403 4053 1403 3853 
Q 1403 3653 1261 3512 
Q 1119 3372 919 3372 
Q 719 3372 578 3512 
Q 438 3653 438 3853 
Q 438 4053 578 4195 
Q 719 4338 919 4338 
z
M 1356 2922 
L 1356 606 
Q 1356 297 1428 211 
Q 1500 125 1709 113 
L 1709 0 
L 131 0 
L 131 113 
Q 325 119 419 225 
Q 481 297 481 606 
L 481 2313 
Q 481 2622 409 2708 
Q 338 2794 131 2806 
L 131 2922 
L 1356 2922 
z
" transform="scale(0.015625)"/>
       <path id="TimesNewRomanPS-BoldMT-52" d="M 1594 3009 
Q 1975 3009 2303 2812 
Q 2631 2616 2801 2253 
Q 2972 1891 2972 1459 
Q 2972 838 2656 419 
Q 2275 -88 1603 -88 
Q 944 -88 587 375 
Q 231 838 231 1447 
Q 231 2075 595 2542 
Q 959 3009 1594 3009 
z
M 1606 2788 
Q 1447 2788 1333 2667 
Q 1219 2547 1183 2192 
Q 1147 1838 1147 1206 
Q 1147 872 1191 581 
Q 1225 359 1337 243 
Q 1450 128 1594 128 
Q 1734 128 1828 206 
Q 1950 313 1991 503 
Q 2053 800 2053 1703 
Q 2053 2234 1993 2432 
Q 1934 2631 1819 2722 
Q 1738 2788 1606 2788 
z
" transform="scale(0.015625)"/>
       <path id="TimesNewRomanPS-BoldMT-56" d="M 2063 3003 
L 2109 2006 
L 2003 2006 
Q 1813 2450 1608 2612 
Q 1403 2775 1200 2775 
Q 1072 2775 981 2689 
Q 891 2603 891 2491 
Q 891 2406 953 2328 
Q 1053 2200 1512 1889 
Q 1972 1578 2117 1361 
Q 2263 1144 2263 875 
Q 2263 631 2141 397 
Q 2019 163 1797 37 
Q 1575 -88 1306 -88 
Q 1097 -88 747 44 
Q 653 78 619 78 
Q 516 78 447 -78 
L 344 -78 
L 294 972 
L 400 972 
Q 541 559 786 353 
Q 1031 147 1250 147 
Q 1400 147 1495 239 
Q 1591 331 1591 463 
Q 1591 613 1497 722 
Q 1403 831 1078 1053 
Q 600 1384 459 1559 
Q 253 1816 253 2125 
Q 253 2463 486 2736 
Q 719 3009 1159 3009 
Q 1397 3009 1619 2894 
Q 1703 2847 1756 2847 
Q 1813 2847 1847 2870 
Q 1881 2894 1956 3003 
L 2063 3003 
z
" transform="scale(0.015625)"/>
      </defs>
      <use xlink:href="#TimesNewRomanPS-BoldMT-2a"/>
      <use xlink:href="#TimesNewRomanPS-BoldMT-48" transform="translate(77.78125 0)"/>
      <use xlink:href="#TimesNewRomanPS-BoldMT-51" transform="translate(122.171875 0)"/>
      <use xlink:href="#TimesNewRomanPS-BoldMT-48" transform="translate(177.78125 0)"/>
      <use xlink:href="#TimesNewRomanPS-BoldMT-55" transform="translate(222.171875 0)"/>
      <use xlink:href="#TimesNewRomanPS-BoldMT-44" transform="translate(266.5625 0)"/>
      <use xlink:href="#TimesNewRomanPS-BoldMT-57" transform="translate(316.5625 0)"/>
      <use xlink:href="#TimesNewRomanPS-BoldMT-4c" transform="translate(349.859375 0)"/>
      <use xlink:href="#TimesNewRomanPS-BoldMT-52" transform="translate(377.640625 0)"/>
      <use xlink:href="#TimesNewRomanPS-BoldMT-51" transform="translate(427.640625 0)"/>
      <use xlink:href="#TimesNewRomanPS-BoldMT-56" transform="translate(483.25 0)"/>
     </g>
    </g>
   </g>
   <g id="matplotlib.axis_2">
    <g id="ytick_1">
     <g id="line2d_13">
      <path d="M 51.710859 372.728555 
L 541.56793 372.728555 
" clip-path="url(#p213ccfb823)" style="fill: none; stroke-dasharray: 0.8,1.32; stroke-dashoffset: 0; stroke: #808080; stroke-opacity: 0.4; stroke-width: 0.8"/>
     </g>
     <g id="line2d_14">
      <defs>
       <path id="m6fc65d8d75" d="M 0 0 
L -3.5 0 
" style="stroke: #000000; stroke-width: 0.8"/>
      </defs>
      <g>
       <use xlink:href="#m6fc65d8d75" x="51.710859" y="372.728555" style="stroke: #000000; stroke-width: 0.8"/>
      </g>
     </g>
     <g id="text_8">
      <!-- 0 -->
      <g transform="translate(37.710859 377.58207) scale(0.14 -0.14)">
       <use xlink:href="#TimesNewRomanPSMT-13"/>
      </g>
     </g>
    </g>
    <g id="ytick_2">
     <g id="line2d_15">
      <path d="M 51.710859 312.616048 
L 541.56793 312.616048 
" clip-path="url(#p213ccfb823)" style="fill: none; stroke-dasharray: 0.8,1.32; stroke-dashoffset: 0; stroke: #808080; stroke-opacity: 0.4; stroke-width: 0.8"/>
     </g>
     <g id="line2d_16">
      <g>
       <use xlink:href="#m6fc65d8d75" x="51.710859" y="312.616048" style="stroke: #000000; stroke-width: 0.8"/>
      </g>
     </g>
     <g id="text_9">
      <!-- 20 -->
      <g transform="translate(30.710859 317.469564) scale(0.14 -0.14)">
       <use xlink:href="#TimesNewRomanPSMT-15"/>
       <use xlink:href="#TimesNewRomanPSMT-13" transform="translate(50 0)"/>
      </g>
     </g>
    </g>
    <g id="ytick_3">
     <g id="line2d_17">
      <path d="M 51.710859 252.503542 
L 541.56793 252.503542 
" clip-path="url(#p213ccfb823)" style="fill: none; stroke-dasharray: 0.8,1.32; stroke-dashoffset: 0; stroke: #808080; stroke-opacity: 0.4; stroke-width: 0.8"/>
     </g>
     <g id="line2d_18">
      <g>
       <use xlink:href="#m6fc65d8d75" x="51.710859" y="252.503542" style="stroke: #000000; stroke-width: 0.8"/>
      </g>
     </g>
     <g id="text_10">
      <!-- 40 -->
      <g transform="translate(30.710859 257.357057) scale(0.14 -0.14)">
       <use xlink:href="#TimesNewRomanPSMT-17"/>
       <use xlink:href="#TimesNewRomanPSMT-13" transform="translate(50 0)"/>
      </g>
     </g>
    </g>
    <g id="ytick_4">
     <g id="line2d_19">
      <path d="M 51.710859 192.391035 
L 541.56793 192.391035 
" clip-path="url(#p213ccfb823)" style="fill: none; stroke-dasharray: 0.8,1.32; stroke-dashoffset: 0; stroke: #808080; stroke-opacity: 0.4; stroke-width: 0.8"/>
     </g>
     <g id="line2d_20">
      <g>
       <use xlink:href="#m6fc65d8d75" x="51.710859" y="192.391035" style="stroke: #000000; stroke-width: 0.8"/>
      </g>
     </g>
     <g id="text_11">
      <!-- 60 -->
      <g transform="translate(30.710859 197.244551) scale(0.14 -0.14)">
       <use xlink:href="#TimesNewRomanPSMT-19"/>
       <use xlink:href="#TimesNewRomanPSMT-13" transform="translate(50 0)"/>
      </g>
     </g>
    </g>
    <g id="ytick_5">
     <g id="line2d_21">
      <path d="M 51.710859 132.278529 
L 541.56793 132.278529 
" clip-path="url(#p213ccfb823)" style="fill: none; stroke-dasharray: 0.8,1.32; stroke-dashoffset: 0; stroke: #808080; stroke-opacity: 0.4; stroke-width: 0.8"/>
     </g>
     <g id="line2d_22">
      <g>
       <use xlink:href="#m6fc65d8d75" x="51.710859" y="132.278529" style="stroke: #000000; stroke-width: 0.8"/>
      </g>
     </g>
     <g id="text_12">
      <!-- 80 -->
      <g transform="translate(30.710859 137.132044) scale(0.14 -0.14)">
       <use xlink:href="#TimesNewRomanPSMT-1b"/>
       <use xlink:href="#TimesNewRomanPSMT-13" transform="translate(50 0)"/>
      </g>
     </g>
    </g>
    <g id="ytick_6">
     <g id="line2d_23">
      <path d="M 51.710859 72.166022 
L 541.56793 72.166022 
" clip-path="url(#p213ccfb823)" style="fill: none; stroke-dasharray: 0.8,1.32; stroke-dashoffset: 0; stroke: #808080; stroke-opacity: 0.4; stroke-width: 0.8"/>
     </g>
     <g id="line2d_24">
      <g>
       <use xlink:href="#m6fc65d8d75" x="51.710859" y="72.166022" style="stroke: #000000; stroke-width: 0.8"/>
      </g>
     </g>
     <g id="text_13">
      <!-- 100 -->
      <g transform="translate(23.710859 77.019538) scale(0.14 -0.14)">
       <use xlink:href="#TimesNewRomanPSMT-14"/>
       <use xlink:href="#TimesNewRomanPSMT-13" transform="translate(50 0)"/>
       <use xlink:href="#TimesNewRomanPSMT-13" transform="translate(100 0)"/>
      </g>
     </g>
    </g>
    <g id="ytick_7">
     <g id="line2d_25">
      <path d="M 51.710859 12.053516 
L 541.56793 12.053516 
" clip-path="url(#p213ccfb823)" style="fill: none; stroke-dasharray: 0.8,1.32; stroke-dashoffset: 0; stroke: #808080; stroke-opacity: 0.4; stroke-width: 0.8"/>
     </g>
     <g id="line2d_26">
      <g>
       <use xlink:href="#m6fc65d8d75" x="51.710859" y="12.053516" style="stroke: #000000; stroke-width: 0.8"/>
      </g>
     </g>
     <g id="text_14">
      <!-- 120 -->
      <g transform="translate(23.710859 16.907031) scale(0.14 -0.14)">
       <use xlink:href="#TimesNewRomanPSMT-14"/>
       <use xlink:href="#TimesNewRomanPSMT-15" transform="translate(50 0)"/>
       <use xlink:href="#TimesNewRomanPSMT-13" transform="translate(100 0)"/>
      </g>
     </g>
    </g>
    <g id="text_15">
     <!-- Fitness Value (Loss) -->
     <g transform="translate(16.689375 251.901973) rotate(-90) scale(0.14 -0.14)">
      <defs>
       <path id="TimesNewRomanPS-BoldMT-29" d="M 1759 3994 
L 1759 2253 
L 1881 2253 
Q 2163 2253 2341 2337 
Q 2519 2422 2642 2622 
Q 2766 2822 2803 3163 
L 2913 3163 
L 2913 1034 
L 2803 1034 
Q 2744 1638 2480 1830 
Q 2216 2022 1881 2022 
L 1759 2022 
L 1759 725 
Q 1759 400 1795 319 
Q 1831 238 1936 177 
Q 2041 116 2219 116 
L 2359 116 
L 2359 0 
L 144 0 
L 144 116 
L 284 116 
Q 469 116 581 181 
Q 663 225 706 331 
Q 741 406 741 725 
L 741 3513 
Q 741 3838 706 3919 
Q 672 4000 567 4061 
Q 463 4122 284 4122 
L 144 4122 
L 144 4238 
L 3719 4238 
L 3719 3022 
L 3591 3022 
Q 3547 3450 3367 3656 
Q 3188 3863 2847 3947 
Q 2659 3994 2153 3994 
L 1759 3994 
z
" transform="scale(0.015625)"/>
       <path id="TimesNewRomanPS-BoldMT-3" transform="scale(0.015625)"/>
       <path id="TimesNewRomanPS-BoldMT-39" d="M 4556 4238 
L 4556 4122 
Q 4325 4084 4144 3875 
Q 4013 3719 3753 3141 
L 2294 -97 
L 2191 -97 
L 738 3272 
Q 475 3881 386 3987 
Q 297 4094 50 4122 
L 50 4238 
L 2081 4238 
L 2081 4122 
L 2013 4122 
Q 1738 4122 1638 4053 
Q 1566 4006 1566 3916 
Q 1566 3859 1591 3782 
Q 1616 3706 1759 3372 
L 2663 1263 
L 3500 3141 
Q 3650 3481 3684 3597 
Q 3719 3713 3719 3794 
Q 3719 3888 3669 3959 
Q 3619 4031 3522 4069 
Q 3388 4122 3166 4122 
L 3166 4238 
L 4556 4238 
z
" transform="scale(0.015625)"/>
       <path id="TimesNewRomanPS-BoldMT-4f" d="M 1359 4238 
L 1359 606 
Q 1359 297 1431 211 
Q 1503 125 1713 113 
L 1713 0 
L 134 0 
L 134 113 
Q 328 119 422 225 
Q 484 297 484 606 
L 484 3631 
Q 484 3938 412 4023 
Q 341 4109 134 4122 
L 134 4238 
L 1359 4238 
z
" transform="scale(0.015625)"/>
       <path id="TimesNewRomanPS-BoldMT-58" d="M 3038 2922 
L 3038 634 
Q 3038 300 3100 217 
Q 3163 134 3353 113 
L 3353 0 
L 2163 0 
L 2163 391 
Q 1953 141 1743 26 
Q 1534 -88 1275 -88 
Q 1028 -88 836 64 
Q 644 216 578 419 
Q 513 622 513 1128 
L 513 2288 
Q 513 2619 452 2700 
Q 391 2781 197 2806 
L 197 2922 
L 1388 2922 
L 1388 925 
Q 1388 613 1417 522 
Q 1447 431 1511 384 
Q 1575 338 1659 338 
Q 1772 338 1863 397 
Q 1988 478 2163 725 
L 2163 2288 
Q 2163 2619 2102 2700 
Q 2041 2781 1847 2806 
L 1847 2922 
L 3038 2922 
z
" transform="scale(0.015625)"/>
       <path id="TimesNewRomanPS-BoldMT-b" d="M 2056 4334 
L 2056 4191 
Q 1731 3978 1578 3775 
Q 1366 3494 1247 3053 
Q 1097 2506 1097 1525 
Q 1097 600 1233 87 
Q 1369 -425 1603 -741 
Q 1766 -959 2056 -1125 
L 2056 -1281 
Q 1303 -1028 779 -248 
Q 256 531 256 1544 
Q 256 2544 778 3314 
Q 1300 4084 2056 4334 
z
" transform="scale(0.015625)"/>
       <path id="TimesNewRomanPS-BoldMT-2f" d="M 4041 1488 
L 3881 0 
L 119 0 
L 119 116 
L 259 116 
Q 444 116 556 181 
Q 638 225 681 331 
Q 716 406 716 725 
L 716 3513 
Q 716 3838 681 3919 
Q 647 4000 542 4061 
Q 438 4122 259 4122 
L 119 4122 
L 119 4238 
L 2378 4238 
L 2378 4122 
L 2194 4122 
Q 2009 4122 1897 4056 
Q 1816 4013 1769 3906 
Q 1734 3831 1734 3513 
L 1734 813 
Q 1734 488 1771 398 
Q 1809 309 1919 266 
Q 1997 238 2297 238 
L 2650 238 
Q 2988 238 3213 356 
Q 3438 475 3602 731 
Q 3766 988 3913 1488 
L 4041 1488 
z
" transform="scale(0.015625)"/>
       <path id="TimesNewRomanPS-BoldMT-c" d="M 78 -1281 
L 78 -1138 
Q 403 -922 556 -719 
Q 766 -438 888 0 
Q 1038 550 1038 1531 
Q 1038 2456 902 2967 
Q 766 3478 531 3794 
Q 369 4013 78 4178 
L 78 4334 
Q 831 4081 1354 3301 
Q 1878 2522 1878 1509 
Q 1878 513 1354 -257 
Q 831 -1028 78 -1281 
z
" transform="scale(0.015625)"/>
      </defs>
      <use xlink:href="#TimesNewRomanPS-BoldMT-29"/>
      <use xlink:href="#TimesNewRomanPS-BoldMT-4c" transform="translate(61.078125 0)"/>
      <use xlink:href="#TimesNewRomanPS-BoldMT-57" transform="translate(88.859375 0)"/>
      <use xlink:href="#TimesNewRomanPS-BoldMT-51" transform="translate(122.15625 0)"/>
      <use xlink:href="#TimesNewRomanPS-BoldMT-48" transform="translate(177.765625 0)"/>
      <use xlink:href="#TimesNewRomanPS-BoldMT-56" transform="translate(222.15625 0)"/>
      <use xlink:href="#TimesNewRomanPS-BoldMT-56" transform="translate(261.078125 0)"/>
      <use xlink:href="#TimesNewRomanPS-BoldMT-3" transform="translate(300 0)"/>
      <use xlink:href="#TimesNewRomanPS-BoldMT-39" transform="translate(323.1875 0)"/>
      <use xlink:href="#TimesNewRomanPS-BoldMT-44" transform="translate(386.234375 0)"/>
      <use xlink:href="#TimesNewRomanPS-BoldMT-4f" transform="translate(436.234375 0)"/>
      <use xlink:href="#TimesNewRomanPS-BoldMT-58" transform="translate(464.015625 0)"/>
      <use xlink:href="#TimesNewRomanPS-BoldMT-48" transform="translate(519.625 0)"/>
      <use xlink:href="#TimesNewRomanPS-BoldMT-3" transform="translate(564.015625 0)"/>
      <use xlink:href="#TimesNewRomanPS-BoldMT-b" transform="translate(589.015625 0)"/>
      <use xlink:href="#TimesNewRomanPS-BoldMT-2f" transform="translate(622.3125 0)"/>
      <use xlink:href="#TimesNewRomanPS-BoldMT-52" transform="translate(689.015625 0)"/>
      <use xlink:href="#TimesNewRomanPS-BoldMT-56" transform="translate(739.015625 0)"/>
      <use xlink:href="#TimesNewRomanPS-BoldMT-56" transform="translate(777.9375 0)"/>
      <use xlink:href="#TimesNewRomanPS-BoldMT-c" transform="translate(816.859375 0)"/>
     </g>
    </g>
   </g>
   <g id="line2d_27">
    <path d="M 51.710859 19.616959 
L 56.60943 52.166503 
L 61.508001 62.714403 
L 66.406571 71.513183 
L 71.305142 112.272002 
L 76.203713 128.911404 
L 81.102284 124.079521 
L 86.000854 147.832889 
L 90.899425 173.889151 
L 95.797996 176.14568 
L 100.696566 196.816785 
L 105.595137 207.014071 
L 110.493708 210.565309 
L 115.392279 236.419332 
L 120.290849 242.449318 
L 125.18942 241.108038 
L 130.087991 250.915795 
L 134.986561 248.483074 
L 139.885132 261.980577 
L 144.783703 270.115875 
L 149.682273 258.85875 
L 154.580844 272.814478 
L 159.479415 275.59613 
L 164.377986 286.689211 
L 169.276556 286.043701 
L 174.175127 286.489868 
L 179.073698 294.808892 
L 183.972268 291.518084 
L 188.870839 297.872638 
L 193.76941 299.135082 
L 198.66798 302.395417 
L 203.566551 296.565907 
L 208.465122 304.450219 
L 213.363693 309.248364 
L 218.262263 305.586484 
L 223.160834 312.555178 
L 228.059405 310.253323 
L 232.957975 316.700011 
L 237.856546 316.252211 
L 242.755117 313.951273 
L 247.653687 313.890664 
L 252.552258 316.002994 
L 257.450829 317.416884 
L 262.3494 318.533825 
L 267.24797 321.209675 
L 272.146541 320.571887 
L 277.045112 320.757139 
L 281.943682 319.130866 
L 286.842253 320.715542 
L 291.740824 323.96705 
L 296.639395 321.739395 
L 301.537965 323.014288 
L 306.436536 323.708703 
L 311.335107 322.664342 
L 316.233677 322.605446 
L 321.132248 323.059371 
L 326.030819 325.004704 
L 330.929389 324.768468 
L 335.82796 324.467512 
L 340.726531 324.197274 
L 345.625102 325.529142 
L 350.523672 325.492933 
L 355.422243 326.285346 
L 360.320814 326.46875 
L 365.219384 325.35027 
L 370.117955 325.195816 
L 375.016526 326.153495 
L 379.915096 325.702144 
L 384.813667 326.158515 
L 389.712238 326.747939 
L 394.610809 326.368731 
L 399.509379 325.954251 
L 404.40795 326.71178 
L 409.306521 326.158739 
L 414.205091 327.810466 
L 419.103662 326.608672 
L 424.002233 326.92717 
L 428.900804 327.104932 
L 433.799374 327.030208 
L 438.697945 327.678306 
L 443.596516 327.205238 
L 448.495086 327.089668 
L 453.393657 326.850534 
L 458.292228 327.374115 
L 463.190798 327.463733 
L 468.089369 327.416975 
L 472.98794 327.148494 
L 477.886511 327.295146 
L 482.785081 327.478588 
L 487.683652 327.311008 
L 492.582223 327.403572 
L 497.480793 327.283206 
L 502.379364 327.55901 
L 507.277935 327.514742 
L 512.176505 327.534825 
L 517.075076 327.684042 
L 521.973647 327.468699 
L 526.872218 327.485286 
L 531.770788 327.52528 
L 536.669359 327.559922 
L 541.56793 327.686666 
" clip-path="url(#p213ccfb823)" style="fill: none; stroke: #808080; stroke-opacity: 0.15; stroke-width: 0.8; stroke-linecap: square"/>
   </g>
   <g id="line2d_28">
    <path d="M 51.710859 33.403153 
L 56.60943 55.089159 
L 61.508001 82.431055 
L 66.406571 93.299516 
L 71.305142 104.419544 
L 76.203713 104.095321 
L 81.102284 139.717477 
L 86.000854 153.232637 
L 90.899425 169.909771 
L 95.797996 199.731034 
L 100.696566 192.834398 
L 105.595137 202.453748 
L 110.493708 192.245057 
L 115.392279 222.918083 
L 120.290849 227.326322 
L 125.18942 237.362891 
L 130.087991 251.968163 
L 134.986561 243.16093 
L 139.885132 251.838272 
L 144.783703 257.310104 
L 149.682273 271.98923 
L 154.580844 264.249973 
L 159.479415 282.946595 
L 164.377986 277.117072 
L 169.276556 273.66477 
L 174.175127 291.232343 
L 179.073698 292.414187 
L 183.972268 292.593533 
L 188.870839 297.512563 
L 193.76941 303.573141 
L 198.66798 300.14785 
L 203.566551 305.862518 
L 208.465122 302.972327 
L 213.363693 308.849247 
L 218.262263 303.589516 
L 223.160834 311.412412 
L 228.059405 311.572212 
L 232.957975 310.147025 
L 237.856546 316.033457 
L 242.755117 313.885849 
L 247.653687 312.73407 
L 252.552258 319.444439 
L 257.450829 316.864277 
L 262.3494 317.551797 
L 267.24797 317.44583 
L 272.146541 321.390959 
L 277.045112 322.052629 
L 281.943682 319.897898 
L 286.842253 320.779118 
L 291.740824 321.355838 
L 296.639395 321.711807 
L 301.537965 323.36038 
L 306.436536 322.693888 
L 311.335107 323.002621 
L 316.233677 324.368204 
L 321.132248 322.161587 
L 326.030819 323.804758 
L 330.929389 325.535262 
L 335.82796 324.198531 
L 340.726531 325.731259 
L 345.625102 324.581719 
L 350.523672 324.536206 
L 355.422243 326.091958 
L 360.320814 325.078007 
L 365.219384 325.595145 
L 370.117955 325.507085 
L 375.016526 325.062217 
L 379.915096 326.36064 
L 384.813667 326.717916 
L 389.712238 326.864534 
L 394.610809 326.902958 
L 399.509379 326.65147 
L 404.40795 326.556983 
L 409.306521 326.661811 
L 414.205091 326.529766 
L 419.103662 326.89456 
L 424.002233 326.46777 
L 428.900804 327.093946 
L 433.799374 326.230651 
L 438.697945 326.922135 
L 443.596516 327.380705 
L 448.495086 327.463556 
L 453.393657 327.09845 
L 458.292228 327.304272 
L 463.190798 327.120631 
L 468.089369 327.20797 
L 472.98794 327.350004 
L 477.886511 327.52316 
L 482.785081 327.660342 
L 487.683652 327.479456 
L 492.582223 327.276806 
L 497.480793 327.403032 
L 502.379364 327.641139 
L 507.277935 327.442774 
L 512.176505 327.428563 
L 517.075076 327.608676 
L 521.973647 327.48631 
L 526.872218 327.50915 
L 531.770788 327.65376 
L 536.669359 327.496863 
L 541.56793 327.486563 
" clip-path="url(#p213ccfb823)" style="fill: none; stroke: #808080; stroke-opacity: 0.15; stroke-width: 0.8; stroke-linecap: square"/>
   </g>
   <g id="line2d_29">
    <path d="M 51.710859 10.805411 
L 56.60943 35.125681 
L 61.508001 90.255243 
L 66.406571 103.343919 
L 71.305142 103.053993 
L 76.203713 120.157776 
L 81.102284 135.926989 
L 86.000854 115.159159 
L 90.899425 163.408875 
L 95.797996 170.463289 
L 100.696566 183.896979 
L 105.595137 197.328101 
L 110.493708 215.161137 
L 115.392279 215.454546 
L 120.290849 235.344092 
L 125.18942 238.797604 
L 130.087991 247.354032 
L 134.986561 249.975664 
L 139.885132 242.290049 
L 144.783703 272.760109 
L 149.682273 263.16763 
L 154.580844 280.108266 
L 159.479415 278.29474 
L 164.377986 274.727882 
L 169.276556 283.288659 
L 174.175127 291.60783 
L 179.073698 293.024462 
L 183.972268 290.334123 
L 188.870839 298.353396 
L 193.76941 297.343768 
L 198.66798 300.224944 
L 203.566551 304.552502 
L 208.465122 297.904269 
L 213.363693 304.366065 
L 218.262263 313.4045 
L 223.160834 308.880024 
L 228.059405 312.416134 
L 232.957975 310.055067 
L 237.856546 315.048177 
L 242.755117 314.617504 
L 247.653687 314.365522 
L 252.552258 314.659602 
L 257.450829 319.412952 
L 262.3494 318.592289 
L 267.24797 319.538555 
L 272.146541 320.46653 
L 277.045112 317.403079 
L 281.943682 320.065527 
L 286.842253 322.902993 
L 291.740824 320.490373 
L 296.639395 319.521323 
L 301.537965 321.350908 
L 306.436536 324.649037 
L 311.335107 323.827931 
L 316.233677 322.367182 
L 321.132248 324.633936 
L 326.030819 323.832186 
L 330.929389 323.826289 
L 335.82796 325.507908 
L 340.726531 325.011427 
L 345.625102 327.595758 
L 350.523672 326.08987 
L 355.422243 325.707341 
L 360.320814 326.501965 
L 365.219384 324.848024 
L 370.117955 326.819451 
L 375.016526 326.357491 
L 379.915096 326.162325 
L 384.813667 325.617036 
L 389.712238 327.125184 
L 394.610809 326.00488 
L 399.509379 326.61377 
L 404.40795 327.1001 
L 409.306521 326.589389 
L 414.205091 326.763144 
L 419.103662 327.111288 
L 424.002233 326.932968 
L 428.900804 327.132532 
L 433.799374 327.02359 
L 438.697945 326.911584 
L 443.596516 326.708222 
L 448.495086 327.507261 
L 453.393657 326.687367 
L 458.292228 327.7138 
L 463.190798 327.31574 
L 468.089369 327.183301 
L 472.98794 327.277856 
L 477.886511 327.479694 
L 482.785081 327.419244 
L 487.683652 327.487615 
L 492.582223 327.518172 
L 497.480793 327.30211 
L 502.379364 327.399027 
L 507.277935 327.567225 
L 512.176505 327.358268 
L 517.075076 327.453803 
L 521.973647 327.40479 
L 526.872218 327.441925 
L 531.770788 327.618624 
L 536.669359 327.594581 
L 541.56793 327.467677 
" clip-path="url(#p213ccfb823)" style="fill: none; stroke: #808080; stroke-opacity: 0.15; stroke-width: 0.8; stroke-linecap: square"/>
   </g>
   <g id="line2d_30">
    <path d="M 51.710859 17.908921 
L 56.60943 50.48878 
L 61.508001 69.92626 
L 66.406571 74.686936 
L 71.305142 116.669669 
L 76.203713 119.767902 
L 81.102284 143.912105 
L 86.000854 158.265407 
L 90.899425 158.09113 
L 95.797996 173.43525 
L 100.696566 185.177567 
L 105.595137 191.656851 
L 110.493708 212.387688 
L 115.392279 216.058767 
L 120.290849 231.892136 
L 125.18942 234.815293 
L 130.087991 244.95538 
L 134.986561 249.878533 
L 139.885132 252.79617 
L 144.783703 266.663069 
L 149.682273 255.393802 
L 154.580844 276.917694 
L 159.479415 282.007827 
L 164.377986 274.398786 
L 169.276556 279.996245 
L 174.175127 284.28023 
L 179.073698 287.521355 
L 183.972268 293.029477 
L 188.870839 298.971863 
L 193.76941 297.839594 
L 198.66798 302.648435 
L 203.566551 299.36377 
L 208.465122 304.855457 
L 213.363693 308.57816 
L 218.262263 308.727022 
L 223.160834 308.288579 
L 228.059405 312.172535 
L 232.957975 314.01224 
L 237.856546 312.719055 
L 242.755117 313.848418 
L 247.653687 316.423623 
L 252.552258 317.245822 
L 257.450829 316.777018 
L 262.3494 320.541659 
L 267.24797 321.091351 
L 272.146541 320.569669 
L 277.045112 320.384695 
L 281.943682 320.200356 
L 286.842253 319.17262 
L 291.740824 320.568446 
L 296.639395 322.336478 
L 301.537965 322.584738 
L 306.436536 324.072144 
L 311.335107 323.333449 
L 316.233677 323.938266 
L 321.132248 323.644026 
L 326.030819 324.99375 
L 330.929389 324.048208 
L 335.82796 323.474017 
L 340.726531 325.050153 
L 345.625102 324.870058 
L 350.523672 324.869611 
L 355.422243 325.80798 
L 360.320814 325.554096 
L 365.219384 325.840292 
L 370.117955 325.929186 
L 375.016526 326.542049 
L 379.915096 326.218336 
L 384.813667 326.090124 
L 389.712238 325.747859 
L 394.610809 326.097409 
L 399.509379 325.688707 
L 404.40795 327.01216 
L 409.306521 326.429159 
L 414.205091 326.768984 
L 419.103662 326.125218 
L 424.002233 327.228177 
L 428.900804 327.277849 
L 433.799374 327.240455 
L 438.697945 327.717754 
L 443.596516 327.289487 
L 448.495086 327.381929 
L 453.393657 327.181156 
L 458.292228 327.170366 
L 463.190798 326.858729 
L 468.089369 327.105678 
L 472.98794 327.45279 
L 477.886511 327.533173 
L 482.785081 327.290082 
L 487.683652 327.6328 
L 492.582223 327.114022 
L 497.480793 327.24973 
L 502.379364 327.523831 
L 507.277935 327.713824 
L 512.176505 327.296176 
L 517.075076 327.50865 
L 521.973647 327.352232 
L 526.872218 327.703576 
L 531.770788 327.592928 
L 536.669359 327.534391 
L 541.56793 327.53859 
" clip-path="url(#p213ccfb823)" style="fill: none; stroke: #808080; stroke-opacity: 0.15; stroke-width: 0.8; stroke-linecap: square"/>
   </g>
   <g id="line2d_31">
    <path d="M 51.710859 33.845283 
L 56.60943 41.286226 
L 61.508001 86.039194 
L 66.406571 93.054967 
L 71.305142 107.910865 
L 76.203713 120.150135 
L 81.102284 133.738585 
L 86.000854 167.870251 
L 90.899425 184.613965 
L 95.797996 169.101529 
L 100.696566 189.563675 
L 105.595137 209.465706 
L 110.493708 199.767622 
L 115.392279 220.50143 
L 120.290849 220.775897 
L 125.18942 236.637181 
L 130.087991 230.16123 
L 134.986561 239.226576 
L 139.885132 257.953734 
L 144.783703 256.260813 
L 149.682273 263.39366 
L 154.580844 264.429632 
L 159.479415 280.760896 
L 164.377986 276.64506 
L 169.276556 278.788779 
L 174.175127 294.539941 
L 179.073698 294.941037 
L 183.972268 300.9264 
L 188.870839 296.645129 
L 193.76941 295.577372 
L 198.66798 295.340011 
L 203.566551 302.237759 
L 208.465122 299.467841 
L 213.363693 310.178831 
L 218.262263 312.521143 
L 223.160834 309.512011 
L 228.059405 309.818099 
L 232.957975 312.146607 
L 237.856546 317.913864 
L 242.755117 314.562733 
L 247.653687 318.04566 
L 252.552258 315.038952 
L 257.450829 316.52941 
L 262.3494 319.652028 
L 267.24797 319.603366 
L 272.146541 321.109432 
L 277.045112 320.157532 
L 281.943682 319.277026 
L 286.842253 322.527864 
L 291.740824 321.027022 
L 296.639395 322.793297 
L 301.537965 323.492798 
L 306.436536 323.072594 
L 311.335107 324.412967 
L 316.233677 324.205899 
L 321.132248 325.104887 
L 326.030819 322.442289 
L 330.929389 324.469018 
L 335.82796 325.320033 
L 340.726531 324.796296 
L 345.625102 325.254666 
L 350.523672 325.518065 
L 355.422243 325.120557 
L 360.320814 325.210583 
L 365.219384 326.17298 
L 370.117955 326.321634 
L 375.016526 326.266038 
L 379.915096 327.444951 
L 384.813667 327.099814 
L 389.712238 325.788062 
L 394.610809 325.786233 
L 399.509379 326.72569 
L 404.40795 326.46032 
L 409.306521 326.648312 
L 414.205091 325.693151 
L 419.103662 326.503466 
L 424.002233 326.999439 
L 428.900804 327.314887 
L 433.799374 327.546799 
L 438.697945 327.044305 
L 443.596516 327.352958 
L 448.495086 327.555551 
L 453.393657 327.379646 
L 458.292228 327.507561 
L 463.190798 326.901328 
L 468.089369 327.120423 
L 472.98794 327.336779 
L 477.886511 327.071854 
L 482.785081 327.366569 
L 487.683652 327.552251 
L 492.582223 327.165497 
L 497.480793 327.35145 
L 502.379364 327.609644 
L 507.277935 327.495009 
L 512.176505 327.600914 
L 517.075076 327.673548 
L 521.973647 327.390775 
L 526.872218 327.291363 
L 531.770788 327.682364 
L 536.669359 327.475021 
L 541.56793 327.609231 
" clip-path="url(#p213ccfb823)" style="fill: none; stroke: #808080; stroke-opacity: 0.15; stroke-width: 0.8; stroke-linecap: square"/>
   </g>
   <g id="line2d_32">
    <path d="M 51.710859 34.402224 
L 56.60943 58.658375 
L 61.508001 83.270236 
L 66.406571 90.585694 
L 71.305142 119.614983 
L 76.203713 123.00568 
L 81.102284 142.220378 
L 86.000854 158.490626 
L 90.899425 178.302311 
L 95.797996 186.871513 
L 100.696566 185.707318 
L 105.595137 198.632783 
L 110.493708 220.623414 
L 115.392279 220.629642 
L 120.290849 223.969282 
L 125.18942 248.967228 
L 130.087991 240.407501 
L 134.986561 254.757757 
L 139.885132 252.946221 
L 144.783703 266.343633 
L 149.682273 276.940007 
L 154.580844 280.186238 
L 159.479415 275.693393 
L 164.377986 278.673729 
L 169.276556 287.6729 
L 174.175127 284.217916 
L 179.073698 296.899826 
L 183.972268 293.239204 
L 188.870839 300.13463 
L 193.76941 300.404638 
L 198.66798 300.218818 
L 203.566551 305.21855 
L 208.465122 305.576056 
L 213.363693 303.291339 
L 218.262263 309.428486 
L 223.160834 307.184541 
L 228.059405 313.57851 
L 232.957975 310.817433 
L 237.856546 310.026533 
L 242.755117 319.656839 
L 247.653687 317.013338 
L 252.552258 315.218101 
L 257.450829 317.57772 
L 262.3494 317.357027 
L 267.24797 319.753428 
L 272.146541 319.294533 
L 277.045112 320.297653 
L 281.943682 318.972266 
L 286.842253 320.837146 
L 291.740824 321.242872 
L 296.639395 322.647265 
L 301.537965 323.134592 
L 306.436536 323.435946 
L 311.335107 322.894981 
L 316.233677 324.071911 
L 321.132248 323.675675 
L 326.030819 322.341147 
L 330.929389 323.74241 
L 335.82796 325.01102 
L 340.726531 324.01977 
L 345.625102 325.475946 
L 350.523672 326.811363 
L 355.422243 326.218831 
L 360.320814 326.903175 
L 365.219384 326.063336 
L 370.117955 325.97537 
L 375.016526 325.184357 
L 379.915096 326.058885 
L 384.813667 326.449776 
L 389.712238 326.044476 
L 394.610809 327.536171 
L 399.509379 326.516478 
L 404.40795 326.380533 
L 409.306521 327.347418 
L 414.205091 326.412144 
L 419.103662 326.779521 
L 424.002233 327.096051 
L 428.900804 326.80695 
L 433.799374 326.367381 
L 438.697945 327.050554 
L 443.596516 327.07645 
L 448.495086 327.303441 
L 453.393657 327.430272 
L 458.292228 327.054617 
L 463.190798 327.474458 
L 468.089369 327.294074 
L 472.98794 327.432552 
L 477.886511 327.266007 
L 482.785081 327.319282 
L 487.683652 327.218994 
L 492.582223 327.504925 
L 497.480793 327.479889 
L 502.379364 327.60081 
L 507.277935 327.531501 
L 512.176505 327.429659 
L 517.075076 327.395335 
L 521.973647 327.619374 
L 526.872218 327.413692 
L 531.770788 327.374146 
L 536.669359 327.490939 
L 541.56793 327.353305 
" clip-path="url(#p213ccfb823)" style="fill: none; stroke: #808080; stroke-opacity: 0.15; stroke-width: 0.8; stroke-linecap: square"/>
   </g>
   <g id="line2d_33">
    <path d="M 51.710859 38.710244 
L 56.60943 67.982571 
L 61.508001 95.708738 
L 66.406571 71.862236 
L 71.305142 101.339673 
L 76.203713 126.821643 
L 81.102284 138.54415 
L 86.000854 167.879221 
L 90.899425 144.522168 
L 95.797996 180.106441 
L 100.696566 191.595588 
L 105.595137 196.683231 
L 110.493708 208.593742 
L 115.392279 219.652487 
L 120.290849 235.475804 
L 125.18942 233.769627 
L 130.087991 231.368073 
L 134.986561 241.859598 
L 139.885132 246.698229 
L 144.783703 264.878758 
L 149.682273 272.432715 
L 154.580844 272.288643 
L 159.479415 275.655175 
L 164.377986 274.702943 
L 169.276556 291.240361 
L 174.175127 280.381781 
L 179.073698 290.741978 
L 183.972268 294.644848 
L 188.870839 299.397485 
L 193.76941 303.940438 
L 198.66798 297.617478 
L 203.566551 302.240237 
L 208.465122 308.323171 
L 213.363693 309.933443 
L 218.262263 308.766552 
L 223.160834 305.008304 
L 228.059405 311.417028 
L 232.957975 315.621247 
L 237.856546 313.819165 
L 242.755117 314.955298 
L 247.653687 320.877608 
L 252.552258 316.439572 
L 257.450829 317.629044 
L 262.3494 316.787996 
L 267.24797 315.668879 
L 272.146541 317.647262 
L 277.045112 320.468229 
L 281.943682 322.23185 
L 286.842253 317.675688 
L 291.740824 321.603889 
L 296.639395 322.121997 
L 301.537965 322.590733 
L 306.436536 322.732027 
L 311.335107 323.467068 
L 316.233677 324.226111 
L 321.132248 324.479443 
L 326.030819 324.267707 
L 330.929389 324.972067 
L 335.82796 325.330882 
L 340.726531 324.880892 
L 345.625102 325.361397 
L 350.523672 324.290381 
L 355.422243 327.331072 
L 360.320814 324.995492 
L 365.219384 325.08468 
L 370.117955 327.194274 
L 375.016526 326.303527 
L 379.915096 326.427102 
L 384.813667 327.045809 
L 389.712238 326.811246 
L 394.610809 327.036726 
L 399.509379 325.861771 
L 404.40795 326.312856 
L 409.306521 326.273219 
L 414.205091 326.568968 
L 419.103662 327.298193 
L 424.002233 327.132774 
L 428.900804 326.852811 
L 433.799374 327.42989 
L 438.697945 326.896865 
L 443.596516 327.210922 
L 448.495086 327.281306 
L 453.393657 327.041544 
L 458.292228 327.146081 
L 463.190798 327.36288 
L 468.089369 327.060896 
L 472.98794 327.555593 
L 477.886511 327.239442 
L 482.785081 327.271414 
L 487.683652 327.455417 
L 492.582223 327.365332 
L 497.480793 327.635715 
L 502.379364 327.313374 
L 507.277935 327.494228 
L 512.176505 327.552678 
L 517.075076 327.357367 
L 521.973647 327.592434 
L 526.872218 327.681698 
L 531.770788 327.700052 
L 536.669359 327.47044 
L 541.56793 327.673002 
" clip-path="url(#p213ccfb823)" style="fill: none; stroke: #808080; stroke-opacity: 0.15; stroke-width: 0.8; stroke-linecap: square"/>
   </g>
   <g id="line2d_34">
    <path d="M 51.710859 0.710373 
L 56.60943 79.951577 
L 61.508001 48.453247 
L 66.406571 88.483838 
L 71.305142 110.580938 
L 76.203713 132.548772 
L 81.102284 137.217445 
L 86.000854 156.358689 
L 90.899425 158.045546 
L 95.797996 180.250114 
L 100.696566 191.22272 
L 105.595137 206.128663 
L 110.493708 213.030585 
L 115.392279 218.994122 
L 120.290849 242.339247 
L 125.18942 246.686957 
L 130.087991 239.057635 
L 134.986561 249.404051 
L 139.885132 257.556702 
L 144.783703 261.800438 
L 149.682273 265.040027 
L 154.580844 274.465688 
L 159.479415 279.827349 
L 164.377986 278.977686 
L 169.276556 288.008107 
L 174.175127 285.209674 
L 179.073698 297.068007 
L 183.972268 288.972282 
L 188.870839 293.895343 
L 193.76941 297.204273 
L 198.66798 297.08257 
L 203.566551 297.161753 
L 208.465122 301.331539 
L 213.363693 311.508691 
L 218.262263 311.357631 
L 223.160834 310.99866 
L 228.059405 310.707355 
L 232.957975 310.846132 
L 237.856546 314.89808 
L 242.755117 313.972856 
L 247.653687 316.928908 
L 252.552258 317.5176 
L 257.450829 319.792723 
L 262.3494 319.622887 
L 267.24797 320.99847 
L 272.146541 320.977425 
L 277.045112 318.475569 
L 281.943682 322.006652 
L 286.842253 317.595222 
L 291.740824 321.040935 
L 296.639395 321.911169 
L 301.537965 323.569639 
L 306.436536 322.171447 
L 311.335107 323.924979 
L 316.233677 323.523502 
L 321.132248 321.494552 
L 326.030819 324.325561 
L 330.929389 323.500618 
L 335.82796 325.322886 
L 340.726531 324.992127 
L 345.625102 323.845697 
L 350.523672 325.807019 
L 355.422243 324.309315 
L 360.320814 325.242625 
L 365.219384 326.192562 
L 370.117955 325.617596 
L 375.016526 325.574509 
L 379.915096 325.903408 
L 384.813667 327.127416 
L 389.712238 326.787068 
L 394.610809 326.645062 
L 399.509379 326.650318 
L 404.40795 326.442206 
L 409.306521 326.700476 
L 414.205091 327.333249 
L 419.103662 326.764782 
L 424.002233 326.751161 
L 428.900804 326.830293 
L 433.799374 326.72935 
L 438.697945 326.861874 
L 443.596516 327.018384 
L 448.495086 327.20154 
L 453.393657 327.632285 
L 458.292228 327.149551 
L 463.190798 327.234731 
L 468.089369 327.251199 
L 472.98794 327.595495 
L 477.886511 327.568599 
L 482.785081 327.186532 
L 487.683652 327.408032 
L 492.582223 327.306004 
L 497.480793 327.432534 
L 502.379364 327.448462 
L 507.277935 327.332834 
L 512.176505 327.551766 
L 517.075076 327.48126 
L 521.973647 327.562496 
L 526.872218 327.567115 
L 531.770788 327.560452 
L 536.669359 327.511303 
L 541.56793 327.591825 
" clip-path="url(#p213ccfb823)" style="fill: none; stroke: #808080; stroke-opacity: 0.15; stroke-width: 0.8; stroke-linecap: square"/>
   </g>
   <g id="line2d_35">
    <path d="M 51.710859 8.20998 
L 56.60943 62.978575 
L 61.508001 74.062762 
L 66.406571 96.901159 
L 71.305142 91.587381 
L 76.203713 123.870623 
L 81.102284 130.173433 
L 86.000854 171.692427 
L 90.899425 166.469656 
L 95.797996 172.819924 
L 100.696566 191.842703 
L 105.595137 193.737752 
L 110.493708 216.827313 
L 115.392279 210.352088 
L 120.290849 212.420599 
L 125.18942 239.692192 
L 130.087991 247.084868 
L 134.986561 241.166116 
L 139.885132 246.781413 
L 144.783703 264.946435 
L 149.682273 269.284665 
L 154.580844 273.10902 
L 159.479415 282.659453 
L 164.377986 284.280973 
L 169.276556 288.124742 
L 174.175127 290.273312 
L 179.073698 290.236891 
L 183.972268 292.069288 
L 188.870839 289.900752 
L 193.76941 301.626167 
L 198.66798 297.077099 
L 203.566551 303.156657 
L 208.465122 304.559345 
L 213.363693 304.24802 
L 218.262263 310.927003 
L 223.160834 308.368287 
L 228.059405 310.358679 
L 232.957975 310.905697 
L 237.856546 312.616824 
L 242.755117 309.122476 
L 247.653687 316.689642 
L 252.552258 317.361821 
L 257.450829 318.350817 
L 262.3494 318.979116 
L 267.24797 319.809048 
L 272.146541 317.548341 
L 277.045112 317.922816 
L 281.943682 321.46396 
L 286.842253 322.318771 
L 291.740824 321.069339 
L 296.639395 322.820393 
L 301.537965 321.819729 
L 306.436536 322.726626 
L 311.335107 324.923142 
L 316.233677 322.08379 
L 321.132248 322.228738 
L 326.030819 324.797779 
L 330.929389 324.836698 
L 335.82796 324.505052 
L 340.726531 324.701533 
L 345.625102 324.677894 
L 350.523672 323.930102 
L 355.422243 325.656146 
L 360.320814 326.212502 
L 365.219384 326.692949 
L 370.117955 326.412018 
L 375.016526 326.131943 
L 379.915096 325.285074 
L 384.813667 326.59949 
L 389.712238 326.333403 
L 394.610809 326.540188 
L 399.509379 326.105184 
L 404.40795 325.659449 
L 409.306521 326.977242 
L 414.205091 327.018955 
L 419.103662 326.530119 
L 424.002233 326.727189 
L 428.900804 326.418744 
L 433.799374 326.880491 
L 438.697945 327.207145 
L 443.596516 326.982195 
L 448.495086 326.892882 
L 453.393657 327.014266 
L 458.292228 327.131153 
L 463.190798 327.041154 
L 468.089369 327.05876 
L 472.98794 327.053317 
L 477.886511 327.233085 
L 482.785081 327.411678 
L 487.683652 327.375341 
L 492.582223 327.218356 
L 497.480793 327.566765 
L 502.379364 327.397265 
L 507.277935 327.524179 
L 512.176505 327.477301 
L 517.075076 327.327535 
L 521.973647 327.481688 
L 526.872218 327.510535 
L 531.770788 327.678032 
L 536.669359 327.455511 
L 541.56793 327.477986 
" clip-path="url(#p213ccfb823)" style="fill: none; stroke: #808080; stroke-opacity: 0.15; stroke-width: 0.8; stroke-linecap: square"/>
   </g>
   <g id="line2d_36">
    <path d="M 52.072269 -1 
L 56.60943 54.589738 
L 61.508001 68.541671 
L 66.406571 87.987578 
L 71.305142 89.982013 
L 76.203713 127.286415 
L 81.102284 138.554694 
L 86.000854 149.522422 
L 90.899425 167.279993 
L 95.797996 185.62257 
L 100.696566 190.823589 
L 105.595137 193.667075 
L 110.493708 221.027218 
L 115.392279 220.365744 
L 120.290849 234.801518 
L 125.18942 228.633101 
L 130.087991 254.36201 
L 134.986561 254.091654 
L 139.885132 254.12781 
L 144.783703 252.808761 
L 149.682273 267.325149 
L 154.580844 274.546884 
L 159.479415 266.523581 
L 164.377986 286.79992 
L 169.276556 293.532257 
L 174.175127 285.07292 
L 179.073698 292.151068 
L 183.972268 296.960381 
L 188.870839 293.021646 
L 193.76941 297.247382 
L 198.66798 302.269241 
L 203.566551 306.557872 
L 208.465122 301.76212 
L 213.363693 304.319073 
L 218.262263 308.116968 
L 223.160834 304.544462 
L 228.059405 313.430401 
L 232.957975 315.674135 
L 237.856546 314.822026 
L 242.755117 314.469652 
L 247.653687 314.897671 
L 252.552258 316.801237 
L 257.450829 316.556173 
L 262.3494 320.1976 
L 267.24797 316.343589 
L 272.146541 319.561811 
L 277.045112 318.379661 
L 281.943682 320.154754 
L 286.842253 320.561302 
L 291.740824 320.941793 
L 296.639395 321.586894 
L 301.537965 321.80824 
L 306.436536 321.469537 
L 311.335107 323.105135 
L 316.233677 322.930654 
L 321.132248 324.040277 
L 326.030819 322.921708 
L 330.929389 325.087654 
L 335.82796 323.252242 
L 340.726531 324.996193 
L 345.625102 326.241136 
L 350.523672 325.269623 
L 355.422243 325.997427 
L 360.320814 325.157045 
L 365.219384 326.24779 
L 370.117955 326.246095 
L 375.016526 327.160925 
L 379.915096 326.469738 
L 384.813667 327.555556 
L 389.712238 327.195811 
L 394.610809 326.187652 
L 399.509379 326.278975 
L 404.40795 326.522365 
L 409.306521 327.147585 
L 414.205091 326.854831 
L 419.103662 326.900428 
L 424.002233 327.345866 
L 428.900804 326.528532 
L 433.799374 326.791229 
L 438.697945 327.167118 
L 443.596516 327.137373 
L 448.495086 327.128609 
L 453.393657 327.727119 
L 458.292228 327.30989 
L 463.190798 327.435223 
L 468.089369 327.524128 
L 472.98794 327.392472 
L 477.886511 327.010223 
L 482.785081 327.262605 
L 487.683652 327.501336 
L 492.582223 327.324188 
L 497.480793 327.214806 
L 502.379364 327.313282 
L 507.277935 327.45909 
L 512.176505 327.569657 
L 517.075076 327.402976 
L 521.973647 327.456657 
L 526.872218 327.410682 
L 531.770788 327.454772 
L 536.669359 327.423224 
L 541.56793 327.597545 
" clip-path="url(#p213ccfb823)" style="fill: none; stroke: #808080; stroke-opacity: 0.15; stroke-width: 0.8; stroke-linecap: square"/>
   </g>
   <g id="line2d_37">
    <path d="M 51.710859 19.218453 
L 56.60943 55.831719 
L 61.508001 76.140281 
L 66.406571 87.171902 
L 71.305142 105.743106 
L 76.203713 122.661567 
L 81.102284 136.408478 
L 86.000854 154.630373 
L 90.899425 166.453257 
L 95.797996 179.454734 
L 100.696566 189.948132 
L 105.595137 199.676798 
L 110.493708 211.022908 
L 115.392279 220.134624 
L 120.290849 230.679421 
L 125.18942 238.647011 
L 130.087991 243.763469 
L 134.986561 247.200395 
L 139.885132 252.496918 
L 144.783703 263.3888 
L 149.682273 266.382563 
L 154.580844 273.311652 
L 159.479415 277.996514 
L 164.377986 279.301326 
L 169.276556 285.036052 
L 174.175127 287.330581 
L 179.073698 292.98077 
L 183.972268 293.428762 
L 188.870839 296.570545 
L 193.76941 299.389186 
L 198.66798 299.502186 
L 203.566551 302.291752 
L 208.465122 303.120234 
L 213.363693 307.452123 
L 218.262263 309.24253 
L 223.160834 308.675246 
L 228.059405 311.572427 
L 232.957975 312.692559 
L 237.856546 314.414939 
L 242.755117 314.30429 
L 247.653687 316.186671 
L 252.552258 316.573014 
L 257.450829 317.690702 
L 262.3494 318.781622 
L 267.24797 319.146219 
L 272.146541 319.913785 
L 277.045112 319.6299 
L 281.943682 320.340116 
L 286.842253 320.508627 
L 291.740824 321.330756 
L 296.639395 321.919002 
L 301.537965 322.672604 
L 306.436536 323.073195 
L 311.335107 323.555661 
L 316.233677 323.432096 
L 321.132248 323.452249 
L 326.030819 323.873159 
L 330.929389 324.478669 
L 335.82796 324.639008 
L 340.726531 324.837692 
L 345.625102 325.343341 
L 350.523672 325.261517 
L 355.422243 325.852597 
L 360.320814 325.732424 
L 365.219384 325.808803 
L 370.117955 326.121852 
L 375.016526 326.073655 
L 379.915096 326.20326 
L 384.813667 326.646145 
L 389.712238 326.544558 
L 394.610809 326.510601 
L 399.509379 326.304661 
L 404.40795 326.515875 
L 409.306521 326.693335 
L 414.205091 326.775366 
L 419.103662 326.751625 
L 424.002233 326.960856 
L 428.900804 326.936148 
L 433.799374 326.927005 
L 438.697945 327.145764 
L 443.596516 327.136193 
L 448.495086 327.280574 
L 453.393657 327.204264 
L 458.292228 327.28614 
L 463.190798 327.220861 
L 468.089369 327.222341 
L 472.98794 327.359535 
L 477.886511 327.322038 
L 482.785081 327.366633 
L 487.683652 327.442225 
L 492.582223 327.319687 
L 497.480793 327.391924 
L 502.379364 327.480584 
L 507.277935 327.507541 
L 512.176505 327.479981 
L 517.075076 327.489319 
L 521.973647 327.481545 
L 526.872218 327.501502 
L 531.770788 327.584041 
L 536.669359 327.50122 
L 541.56793 327.548239 
" clip-path="url(#p213ccfb823)" style="fill: none; stroke: #1f77b4; stroke-width: 3; stroke-linecap: square"/>
   </g>
   <g id="line2d_38">
    <path d="M 51.710859 327.644175 
L 541.56793 327.644175 
" clip-path="url(#p213ccfb823)" style="fill: none; stroke-dasharray: 5.55,2.4; stroke-dashoffset: 0; stroke: #d62728; stroke-opacity: 0.8; stroke-width: 1.5"/>
   </g>
   <g id="patch_3">
    <path d="M 51.710859 372.728555 
L 51.710859 12.053516 
" style="fill: none; stroke: #000000; stroke-width: 1.5; stroke-linejoin: miter; stroke-linecap: square"/>
   </g>
   <g id="patch_4">
    <path d="M 541.56793 372.728555 
L 541.56793 12.053516 
" style="fill: none; stroke: #000000; stroke-width: 1.5; stroke-linejoin: miter; stroke-linecap: square"/>
   </g>
   <g id="patch_5">
    <path d="M 51.710859 372.728555 
L 541.56793 372.728555 
" style="fill: none; stroke: #000000; stroke-width: 1.5; stroke-linejoin: miter; stroke-linecap: square"/>
   </g>
   <g id="patch_6">
    <path d="M 51.710859 12.053516 
L 541.56793 12.053516 
" style="fill: none; stroke: #000000; stroke-width: 1.5; stroke-linejoin: miter; stroke-linecap: square"/>
   </g>
   <g id="legend_1">
    <g id="patch_7">
     <path d="M 383.27793 67.951562 
L 536.06793 67.951562 
L 536.06793 17.553516 
L 383.27793 17.553516 
z
" style="fill: #ffffff; opacity: 0.95; stroke: #000000; stroke-linejoin: miter"/>
    </g>
    <g id="line2d_39">
     <path d="M 387.67793 25.803516 
L 398.67793 25.803516 
L 409.67793 25.803516 
" style="fill: none; stroke: #1f77b4; stroke-width: 3; stroke-linecap: square"/>
    </g>
    <g id="text_16">
     <!-- Mean Fitness (10 runs) -->
     <g transform="translate(418.47793 29.653516) scale(0.11 -0.11)">
      <defs>
       <path id="TimesNewRomanPSMT-30" d="M 2619 0 
L 981 3566 
L 981 734 
Q 981 344 1066 247 
Q 1181 116 1431 116 
L 1581 116 
L 1581 0 
L 106 0 
L 106 116 
L 256 116 
Q 525 116 638 278 
Q 706 378 706 734 
L 706 3503 
Q 706 3784 644 3909 
Q 600 4000 483 4061 
Q 366 4122 106 4122 
L 106 4238 
L 1306 4238 
L 2844 922 
L 4356 4238 
L 5556 4238 
L 5556 4122 
L 5409 4122 
Q 5138 4122 5025 3959 
Q 4956 3859 4956 3503 
L 4956 734 
Q 4956 344 5044 247 
Q 5159 116 5409 116 
L 5556 116 
L 5556 0 
L 3756 0 
L 3756 116 
L 3906 116 
Q 4178 116 4288 278 
Q 4356 378 4356 734 
L 4356 3566 
L 2722 0 
L 2619 0 
z
" transform="scale(0.015625)"/>
       <path id="TimesNewRomanPSMT-48" d="M 681 1784 
Q 678 1147 991 784 
Q 1303 422 1725 422 
Q 2006 422 2214 576 
Q 2422 731 2563 1106 
L 2659 1044 
Q 2594 616 2278 264 
Q 1963 -88 1488 -88 
Q 972 -88 605 314 
Q 238 716 238 1394 
Q 238 2128 614 2539 
Q 991 2950 1559 2950 
Q 2041 2950 2350 2633 
Q 2659 2316 2659 1784 
L 681 1784 
z
M 681 1966 
L 2006 1966 
Q 1991 2241 1941 2353 
Q 1863 2528 1708 2628 
Q 1553 2728 1384 2728 
Q 1125 2728 920 2526 
Q 716 2325 681 1966 
z
" transform="scale(0.015625)"/>
       <path id="TimesNewRomanPSMT-44" d="M 1822 413 
Q 1381 72 1269 19 
Q 1100 -59 909 -59 
Q 613 -59 420 144 
Q 228 347 228 678 
Q 228 888 322 1041 
Q 450 1253 767 1440 
Q 1084 1628 1822 1897 
L 1822 2009 
Q 1822 2438 1686 2597 
Q 1550 2756 1291 2756 
Q 1094 2756 978 2650 
Q 859 2544 859 2406 
L 866 2225 
Q 866 2081 792 2003 
Q 719 1925 600 1925 
Q 484 1925 411 2006 
Q 338 2088 338 2228 
Q 338 2497 613 2722 
Q 888 2947 1384 2947 
Q 1766 2947 2009 2819 
Q 2194 2722 2281 2516 
Q 2338 2381 2338 1966 
L 2338 994 
Q 2338 584 2353 492 
Q 2369 400 2405 369 
Q 2441 338 2488 338 
Q 2538 338 2575 359 
Q 2641 400 2828 588 
L 2828 413 
Q 2478 -56 2159 -56 
Q 2006 -56 1915 50 
Q 1825 156 1822 413 
z
M 1822 616 
L 1822 1706 
Q 1350 1519 1213 1441 
Q 966 1303 859 1153 
Q 753 1003 753 825 
Q 753 600 887 451 
Q 1022 303 1197 303 
Q 1434 303 1822 616 
z
" transform="scale(0.015625)"/>
       <path id="TimesNewRomanPSMT-51" d="M 1034 2341 
Q 1538 2947 1994 2947 
Q 2228 2947 2397 2830 
Q 2566 2713 2666 2444 
Q 2734 2256 2734 1869 
L 2734 647 
Q 2734 375 2778 278 
Q 2813 200 2889 156 
Q 2966 113 3172 113 
L 3172 0 
L 1756 0 
L 1756 113 
L 1816 113 
Q 2016 113 2095 173 
Q 2175 234 2206 353 
Q 2219 400 2219 647 
L 2219 1819 
Q 2219 2209 2117 2386 
Q 2016 2563 1775 2563 
Q 1403 2563 1034 2156 
L 1034 647 
Q 1034 356 1069 288 
Q 1113 197 1189 155 
Q 1266 113 1500 113 
L 1500 0 
L 84 0 
L 84 113 
L 147 113 
Q 366 113 442 223 
Q 519 334 519 647 
L 519 1709 
Q 519 2225 495 2337 
Q 472 2450 423 2490 
Q 375 2531 294 2531 
Q 206 2531 84 2484 
L 38 2597 
L 900 2947 
L 1034 2947 
L 1034 2341 
z
" transform="scale(0.015625)"/>
       <path id="TimesNewRomanPSMT-3" transform="scale(0.015625)"/>
       <path id="TimesNewRomanPSMT-29" d="M 1309 4006 
L 1309 2341 
L 2081 2341 
Q 2347 2341 2470 2458 
Q 2594 2575 2634 2922 
L 2750 2922 
L 2750 1488 
L 2634 1488 
Q 2631 1734 2570 1850 
Q 2509 1966 2401 2023 
Q 2294 2081 2081 2081 
L 1309 2081 
L 1309 750 
Q 1309 428 1350 325 
Q 1381 247 1481 191 
Q 1619 116 1769 116 
L 1922 116 
L 1922 0 
L 103 0 
L 103 116 
L 253 116 
Q 516 116 634 269 
Q 709 369 709 750 
L 709 3488 
Q 709 3809 669 3913 
Q 638 3991 541 4047 
Q 406 4122 253 4122 
L 103 4122 
L 103 4238 
L 3256 4238 
L 3297 3306 
L 3188 3306 
Q 3106 3603 2998 3742 
Q 2891 3881 2733 3943 
Q 2575 4006 2244 4006 
L 1309 4006 
z
" transform="scale(0.015625)"/>
       <path id="TimesNewRomanPSMT-4c" d="M 928 4444 
Q 1059 4444 1151 4351 
Q 1244 4259 1244 4128 
Q 1244 3997 1151 3903 
Q 1059 3809 928 3809 
Q 797 3809 703 3903 
Q 609 3997 609 4128 
Q 609 4259 701 4351 
Q 794 4444 928 4444 
z
M 1188 2947 
L 1188 647 
Q 1188 378 1227 289 
Q 1266 200 1342 156 
Q 1419 113 1622 113 
L 1622 0 
L 231 0 
L 231 113 
Q 441 113 512 153 
Q 584 194 626 287 
Q 669 381 669 647 
L 669 1750 
Q 669 2216 641 2353 
Q 619 2453 572 2492 
Q 525 2531 444 2531 
Q 356 2531 231 2484 
L 188 2597 
L 1050 2947 
L 1188 2947 
z
" transform="scale(0.015625)"/>
       <path id="TimesNewRomanPSMT-57" d="M 1031 3803 
L 1031 2863 
L 1700 2863 
L 1700 2644 
L 1031 2644 
L 1031 788 
Q 1031 509 1111 412 
Q 1191 316 1316 316 
Q 1419 316 1516 380 
Q 1613 444 1666 569 
L 1788 569 
Q 1678 263 1478 108 
Q 1278 -47 1066 -47 
Q 922 -47 784 33 
Q 647 113 581 261 
Q 516 409 516 719 
L 516 2644 
L 63 2644 
L 63 2747 
Q 234 2816 414 2980 
Q 594 3144 734 3369 
Q 806 3488 934 3803 
L 1031 3803 
z
" transform="scale(0.015625)"/>
       <path id="TimesNewRomanPSMT-56" d="M 2050 2947 
L 2050 1972 
L 1947 1972 
Q 1828 2431 1642 2597 
Q 1456 2763 1169 2763 
Q 950 2763 815 2647 
Q 681 2531 681 2391 
Q 681 2216 781 2091 
Q 878 1963 1175 1819 
L 1631 1597 
Q 2266 1288 2266 781 
Q 2266 391 1970 151 
Q 1675 -88 1309 -88 
Q 1047 -88 709 6 
Q 606 38 541 38 
Q 469 38 428 -44 
L 325 -44 
L 325 978 
L 428 978 
Q 516 541 762 319 
Q 1009 97 1316 97 
Q 1531 97 1667 223 
Q 1803 350 1803 528 
Q 1803 744 1651 891 
Q 1500 1038 1047 1263 
Q 594 1488 453 1669 
Q 313 1847 313 2119 
Q 313 2472 555 2709 
Q 797 2947 1181 2947 
Q 1350 2947 1591 2875 
Q 1750 2828 1803 2828 
Q 1853 2828 1881 2850 
Q 1909 2872 1947 2947 
L 2050 2947 
z
" transform="scale(0.015625)"/>
       <path id="TimesNewRomanPSMT-b" d="M 1988 -1253 
L 1988 -1369 
Q 1516 -1131 1200 -813 
Q 750 -359 506 256 
Q 263 872 263 1534 
Q 263 2503 741 3301 
Q 1219 4100 1988 4444 
L 1988 4313 
Q 1603 4100 1356 3731 
Q 1109 3363 987 2797 
Q 866 2231 866 1616 
Q 866 947 969 400 
Q 1050 -31 1165 -292 
Q 1281 -553 1476 -793 
Q 1672 -1034 1988 -1253 
z
" transform="scale(0.015625)"/>
       <path id="TimesNewRomanPSMT-55" d="M 1038 2947 
L 1038 2303 
Q 1397 2947 1775 2947 
Q 1947 2947 2059 2842 
Q 2172 2738 2172 2600 
Q 2172 2478 2090 2393 
Q 2009 2309 1897 2309 
Q 1788 2309 1652 2417 
Q 1516 2525 1450 2525 
Q 1394 2525 1328 2463 
Q 1188 2334 1038 2041 
L 1038 669 
Q 1038 431 1097 309 
Q 1138 225 1241 169 
Q 1344 113 1538 113 
L 1538 0 
L 72 0 
L 72 113 
Q 291 113 397 181 
Q 475 231 506 341 
Q 522 394 522 644 
L 522 1753 
Q 522 2253 501 2348 
Q 481 2444 426 2487 
Q 372 2531 291 2531 
Q 194 2531 72 2484 
L 41 2597 
L 906 2947 
L 1038 2947 
z
" transform="scale(0.015625)"/>
       <path id="TimesNewRomanPSMT-58" d="M 2709 2863 
L 2709 1128 
Q 2709 631 2732 520 
Q 2756 409 2807 365 
Q 2859 322 2928 322 
Q 3025 322 3147 375 
L 3191 266 
L 2334 -88 
L 2194 -88 
L 2194 519 
Q 1825 119 1631 15 
Q 1438 -88 1222 -88 
Q 981 -88 804 51 
Q 628 191 559 409 
Q 491 628 491 1028 
L 491 2306 
Q 491 2509 447 2587 
Q 403 2666 317 2708 
Q 231 2750 6 2747 
L 6 2863 
L 1009 2863 
L 1009 947 
Q 1009 547 1148 422 
Q 1288 297 1484 297 
Q 1619 297 1789 381 
Q 1959 466 2194 703 
L 2194 2325 
Q 2194 2569 2105 2655 
Q 2016 2741 1734 2747 
L 1734 2863 
L 2709 2863 
z
" transform="scale(0.015625)"/>
       <path id="TimesNewRomanPSMT-c" d="M 144 4313 
L 144 4444 
Q 619 4209 934 3891 
Q 1381 3434 1625 2820 
Q 1869 2206 1869 1541 
Q 1869 572 1392 -226 
Q 916 -1025 144 -1369 
L 144 -1253 
Q 528 -1038 776 -670 
Q 1025 -303 1145 264 
Q 1266 831 1266 1447 
Q 1266 2113 1163 2663 
Q 1084 3094 967 3353 
Q 850 3613 656 3853 
Q 463 4094 144 4313 
z
" transform="scale(0.015625)"/>
      </defs>
      <use xlink:href="#TimesNewRomanPSMT-30"/>
      <use xlink:href="#TimesNewRomanPSMT-48" transform="translate(88.921875 0)"/>
      <use xlink:href="#TimesNewRomanPSMT-44" transform="translate(133.3125 0)"/>
      <use xlink:href="#TimesNewRomanPSMT-51" transform="translate(177.703125 0)"/>
      <use xlink:href="#TimesNewRomanPSMT-3" transform="translate(227.703125 0)"/>
      <use xlink:href="#TimesNewRomanPSMT-29" transform="translate(252.703125 0)"/>
      <use xlink:href="#TimesNewRomanPSMT-4c" transform="translate(308.3125 0)"/>
      <use xlink:href="#TimesNewRomanPSMT-57" transform="translate(336.09375 0)"/>
      <use xlink:href="#TimesNewRomanPSMT-51" transform="translate(363.875 0)"/>
      <use xlink:href="#TimesNewRomanPSMT-48" transform="translate(413.875 0)"/>
      <use xlink:href="#TimesNewRomanPSMT-56" transform="translate(458.265625 0)"/>
      <use xlink:href="#TimesNewRomanPSMT-56" transform="translate(497.1875 0)"/>
      <use xlink:href="#TimesNewRomanPSMT-3" transform="translate(536.109375 0)"/>
      <use xlink:href="#TimesNewRomanPSMT-b" transform="translate(561.109375 0)"/>
      <use xlink:href="#TimesNewRomanPSMT-14" transform="translate(594.40625 0)"/>
      <use xlink:href="#TimesNewRomanPSMT-13" transform="translate(644.40625 0)"/>
      <use xlink:href="#TimesNewRomanPSMT-3" transform="translate(694.40625 0)"/>
      <use xlink:href="#TimesNewRomanPSMT-55" transform="translate(719.40625 0)"/>
      <use xlink:href="#TimesNewRomanPSMT-58" transform="translate(752.703125 0)"/>
      <use xlink:href="#TimesNewRomanPSMT-51" transform="translate(802.703125 0)"/>
      <use xlink:href="#TimesNewRomanPSMT-56" transform="translate(852.703125 0)"/>
      <use xlink:href="#TimesNewRomanPSMT-c" transform="translate(891.625 0)"/>
     </g>
    </g>
    <g id="patch_8">
     <path d="M 387.67793 45.557539 
L 409.67793 45.557539 
L 409.67793 37.857539 
L 387.67793 37.857539 
z
" style="fill: #1f77b4; fill-opacity: 0.15; stroke: #1f77b4; stroke-opacity: 0.15; stroke-linejoin: miter"/>
    </g>
    <g id="text_17">
     <!-- Inter-run Variance ($\pm 1\sigma$) -->
     <g transform="translate(418.47793 45.557539) scale(0.11 -0.11)">
      <defs>
       <path id="TimesNewRomanPSMT-2c" d="M 1975 116 
L 1975 0 
L 159 0 
L 159 116 
L 309 116 
Q 572 116 691 269 
Q 766 369 766 750 
L 766 3488 
Q 766 3809 725 3913 
Q 694 3991 597 4047 
Q 459 4122 309 4122 
L 159 4122 
L 159 4238 
L 1975 4238 
L 1975 4122 
L 1822 4122 
Q 1563 4122 1444 3969 
Q 1366 3869 1366 3488 
L 1366 750 
Q 1366 428 1406 325 
Q 1438 247 1538 191 
Q 1672 116 1822 116 
L 1975 116 
z
" transform="scale(0.015625)"/>
       <path id="TimesNewRomanPSMT-10" d="M 259 1672 
L 1875 1672 
L 1875 1200 
L 259 1200 
L 259 1672 
z
" transform="scale(0.015625)"/>
       <path id="TimesNewRomanPSMT-39" d="M 4544 4238 
L 4544 4122 
Q 4319 4081 4203 3978 
Q 4038 3825 3909 3509 
L 2431 -97 
L 2316 -97 
L 728 3556 
Q 606 3838 556 3900 
Q 478 3997 364 4051 
Q 250 4106 56 4122 
L 56 4238 
L 1788 4238 
L 1788 4122 
Q 1494 4094 1406 4022 
Q 1319 3950 1319 3838 
Q 1319 3681 1463 3350 
L 2541 866 
L 3541 3319 
Q 3688 3681 3688 3822 
Q 3688 3913 3597 3995 
Q 3506 4078 3291 4113 
Q 3275 4116 3238 4122 
L 3238 4238 
L 4544 4238 
z
" transform="scale(0.015625)"/>
       <path id="TimesNewRomanPSMT-46" d="M 2631 1088 
Q 2516 522 2178 217 
Q 1841 -88 1431 -88 
Q 944 -88 581 321 
Q 219 731 219 1428 
Q 219 2103 620 2525 
Q 1022 2947 1584 2947 
Q 2006 2947 2278 2723 
Q 2550 2500 2550 2259 
Q 2550 2141 2473 2067 
Q 2397 1994 2259 1994 
Q 2075 1994 1981 2113 
Q 1928 2178 1911 2362 
Q 1894 2547 1784 2644 
Q 1675 2738 1481 2738 
Q 1169 2738 978 2506 
Q 725 2200 725 1697 
Q 725 1184 976 792 
Q 1228 400 1656 400 
Q 1963 400 2206 609 
Q 2378 753 2541 1131 
L 2631 1088 
z
" transform="scale(0.015625)"/>
       <path id="DejaVuSans-73" d="M 2944 4013 
L 2944 2803 
L 4684 2803 
L 4684 2272 
L 2944 2272 
L 2944 1063 
L 2419 1063 
L 2419 2272 
L 678 2272 
L 678 2803 
L 2419 2803 
L 2419 4013 
L 2944 4013 
z
M 678 531 
L 4684 531 
L 4684 0 
L 678 0 
L 678 531 
z
" transform="scale(0.015625)"/>
       <path id="DejaVuSans-14" d="M 794 531 
L 1825 531 
L 1825 4091 
L 703 3866 
L 703 4441 
L 1819 4666 
L 2450 4666 
L 2450 531 
L 3481 531 
L 3481 0 
L 794 0 
L 794 531 
z
" transform="scale(0.015625)"/>
       <path id="DejaVuSans-Oblique-357" d="M 2219 3044 
Q 1744 3044 1422 2700 
Q 1081 2341 969 1747 
Q 844 1119 1044 756 
Q 1241 397 1706 397 
Q 2166 397 2503 759 
Q 2844 1122 2966 1747 
Q 3075 2319 2881 2700 
Q 2700 3044 2219 3044 
z
M 2309 3503 
L 4219 3500 
L 4106 2925 
L 3463 2925 
Q 3706 2438 3575 1747 
Q 3406 888 2884 400 
Q 2359 -91 1609 -91 
Q 856 -91 525 400 
Q 194 888 363 1747 
Q 528 2609 1050 3097 
Q 1484 3503 2309 3503 
z
" transform="scale(0.015625)"/>
      </defs>
      <use xlink:href="#TimesNewRomanPSMT-2c" transform="translate(0 0.09375)"/>
      <use xlink:href="#TimesNewRomanPSMT-51" transform="translate(33.300781 0.09375)"/>
      <use xlink:href="#TimesNewRomanPSMT-57" transform="translate(83.300781 0.09375)"/>
      <use xlink:href="#TimesNewRomanPSMT-48" transform="translate(111.083984 0.09375)"/>
      <use xlink:href="#TimesNewRomanPSMT-55" transform="translate(155.46875 0.09375)"/>
      <use xlink:href="#TimesNewRomanPSMT-10" transform="translate(186.769531 0.09375)"/>
      <use xlink:href="#TimesNewRomanPSMT-55" transform="translate(220.070312 0.09375)"/>
      <use xlink:href="#TimesNewRomanPSMT-58" transform="translate(253.371094 0.09375)"/>
      <use xlink:href="#TimesNewRomanPSMT-51" transform="translate(303.371094 0.09375)"/>
      <use xlink:href="#TimesNewRomanPSMT-3" transform="translate(353.371094 0.09375)"/>
      <use xlink:href="#TimesNewRomanPSMT-39" transform="translate(376.371094 0.09375)"/>
      <use xlink:href="#TimesNewRomanPSMT-44" transform="translate(437.587891 0.09375)"/>
      <use xlink:href="#TimesNewRomanPSMT-55" transform="translate(481.972656 0.09375)"/>
      <use xlink:href="#TimesNewRomanPSMT-4c" transform="translate(515.273438 0.09375)"/>
      <use xlink:href="#TimesNewRomanPSMT-44" transform="translate(543.056641 0.09375)"/>
      <use xlink:href="#TimesNewRomanPSMT-51" transform="translate(587.441406 0.09375)"/>
      <use xlink:href="#TimesNewRomanPSMT-46" transform="translate(637.441406 0.09375)"/>
      <use xlink:href="#TimesNewRomanPSMT-48" transform="translate(681.826172 0.09375)"/>
      <use xlink:href="#TimesNewRomanPSMT-3" transform="translate(726.210938 0.09375)"/>
      <use xlink:href="#TimesNewRomanPSMT-b" transform="translate(751.210938 0.09375)"/>
      <use xlink:href="#DejaVuSans-73" transform="translate(784.511719 0.09375)"/>
      <use xlink:href="#DejaVuSans-14" transform="translate(868.300781 0.09375)"/>
      <use xlink:href="#DejaVuSans-Oblique-357" transform="translate(931.923828 0.09375)"/>
      <use xlink:href="#TimesNewRomanPSMT-c" transform="translate(995.302734 0.09375)"/>
     </g>
    </g>
    <g id="line2d_40">
     <path d="M 387.67793 57.327539 
L 398.67793 57.327539 
L 409.67793 57.327539 
" style="fill: none; stroke-dasharray: 5.55,2.4; stroke-dashoffset: 0; stroke: #d62728; stroke-opacity: 0.8; stroke-width: 1.5"/>
    </g>
    <g id="text_18">
     <!-- Global Optimal Basin -->
     <g transform="translate(418.47793 61.177539) scale(0.11 -0.11)">
      <defs>
       <path id="TimesNewRomanPSMT-2a" d="M 3928 4334 
L 4038 2997 
L 3928 2997 
Q 3763 3497 3500 3750 
Q 3122 4116 2528 4116 
Q 1719 4116 1297 3475 
Q 944 2934 944 2188 
Q 944 1581 1178 1081 
Q 1413 581 1792 348 
Q 2172 116 2572 116 
Q 2806 116 3025 175 
Q 3244 234 3447 350 
L 3447 1575 
Q 3447 1894 3398 1992 
Q 3350 2091 3248 2142 
Q 3147 2194 2891 2194 
L 2891 2313 
L 4531 2313 
L 4531 2194 
L 4453 2194 
Q 4209 2194 4119 2031 
Q 4056 1916 4056 1575 
L 4056 278 
Q 3697 84 3347 -6 
Q 2997 -97 2569 -97 
Q 1341 -97 703 691 
Q 225 1281 225 2053 
Q 225 2613 494 3125 
Q 813 3734 1369 4063 
Q 1834 4334 2469 4334 
Q 2700 4334 2889 4296 
Q 3078 4259 3425 4131 
Q 3600 4066 3659 4066 
Q 3719 4066 3761 4120 
Q 3803 4175 3813 4334 
L 3928 4334 
z
" transform="scale(0.015625)"/>
       <path id="TimesNewRomanPSMT-4f" d="M 1184 4444 
L 1184 647 
Q 1184 378 1223 290 
Q 1263 203 1344 158 
Q 1425 113 1647 113 
L 1647 0 
L 244 0 
L 244 113 
Q 441 113 512 153 
Q 584 194 625 287 
Q 666 381 666 647 
L 666 3247 
Q 666 3731 644 3842 
Q 622 3953 573 3993 
Q 525 4034 450 4034 
Q 369 4034 244 3984 
L 191 4094 
L 1044 4444 
L 1184 4444 
z
" transform="scale(0.015625)"/>
       <path id="TimesNewRomanPSMT-52" d="M 1600 2947 
Q 2250 2947 2644 2453 
Q 2978 2031 2978 1484 
Q 2978 1100 2793 706 
Q 2609 313 2286 112 
Q 1963 -88 1566 -88 
Q 919 -88 538 428 
Q 216 863 216 1403 
Q 216 1797 411 2186 
Q 606 2575 925 2761 
Q 1244 2947 1600 2947 
z
M 1503 2744 
Q 1338 2744 1170 2645 
Q 1003 2547 900 2300 
Q 797 2053 797 1666 
Q 797 1041 1045 587 
Q 1294 134 1700 134 
Q 2003 134 2200 384 
Q 2397 634 2397 1244 
Q 2397 2006 2069 2444 
Q 1847 2744 1503 2744 
z
" transform="scale(0.015625)"/>
       <path id="TimesNewRomanPSMT-45" d="M 984 2369 
Q 1400 2947 1881 2947 
Q 2322 2947 2650 2570 
Q 2978 2194 2978 1541 
Q 2978 778 2472 313 
Q 2038 -88 1503 -88 
Q 1253 -88 995 3 
Q 738 94 469 275 
L 469 3241 
Q 469 3728 445 3840 
Q 422 3953 372 3993 
Q 322 4034 247 4034 
Q 159 4034 28 3984 
L -16 4094 
L 844 4444 
L 984 4444 
L 984 2369 
z
M 984 2169 
L 984 456 
Q 1144 300 1314 220 
Q 1484 141 1663 141 
Q 1947 141 2192 453 
Q 2438 766 2438 1363 
Q 2438 1913 2192 2208 
Q 1947 2503 1634 2503 
Q 1469 2503 1303 2419 
Q 1178 2356 984 2169 
z
" transform="scale(0.015625)"/>
       <path id="TimesNewRomanPSMT-32" d="M 2341 4334 
Q 3166 4334 3770 3707 
Q 4375 3081 4375 2144 
Q 4375 1178 3765 540 
Q 3156 -97 2291 -97 
Q 1416 -97 820 525 
Q 225 1147 225 2134 
Q 225 3144 913 3781 
Q 1509 4334 2341 4334 
z
M 2281 4106 
Q 1713 4106 1369 3684 
Q 941 3159 941 2147 
Q 941 1109 1384 550 
Q 1725 125 2284 125 
Q 2881 125 3270 590 
Q 3659 1056 3659 2059 
Q 3659 3147 3231 3681 
Q 2888 4106 2281 4106 
z
" transform="scale(0.015625)"/>
       <path id="TimesNewRomanPSMT-53" d="M -6 2578 
L 875 2934 
L 994 2934 
L 994 2266 
Q 1216 2644 1439 2795 
Q 1663 2947 1909 2947 
Q 2341 2947 2628 2609 
Q 2981 2197 2981 1534 
Q 2981 794 2556 309 
Q 2206 -88 1675 -88 
Q 1444 -88 1275 -22 
Q 1150 25 994 166 
L 994 -706 
Q 994 -1000 1030 -1079 
Q 1066 -1159 1155 -1206 
Q 1244 -1253 1478 -1253 
L 1478 -1369 
L -22 -1369 
L -22 -1253 
L 56 -1253 
Q 228 -1256 350 -1188 
Q 409 -1153 442 -1076 
Q 475 -1000 475 -688 
L 475 2019 
Q 475 2297 450 2372 
Q 425 2447 370 2484 
Q 316 2522 222 2522 
Q 147 2522 31 2478 
L -6 2578 
z
M 994 2081 
L 994 1013 
Q 994 666 1022 556 
Q 1066 375 1236 237 
Q 1406 100 1666 100 
Q 1978 100 2172 344 
Q 2425 663 2425 1241 
Q 2425 1897 2138 2250 
Q 1938 2494 1663 2494 
Q 1513 2494 1366 2419 
Q 1253 2363 994 2081 
z
" transform="scale(0.015625)"/>
       <path id="TimesNewRomanPSMT-50" d="M 1050 2338 
Q 1363 2650 1419 2697 
Q 1559 2816 1721 2881 
Q 1884 2947 2044 2947 
Q 2313 2947 2506 2790 
Q 2700 2634 2766 2338 
Q 3088 2713 3309 2830 
Q 3531 2947 3766 2947 
Q 3994 2947 4170 2830 
Q 4347 2713 4450 2447 
Q 4519 2266 4519 1878 
L 4519 647 
Q 4519 378 4559 278 
Q 4591 209 4675 161 
Q 4759 113 4950 113 
L 4950 0 
L 3538 0 
L 3538 113 
L 3597 113 
Q 3781 113 3884 184 
Q 3956 234 3988 344 
Q 4000 397 4000 647 
L 4000 1878 
Q 4000 2228 3916 2372 
Q 3794 2572 3525 2572 
Q 3359 2572 3192 2489 
Q 3025 2406 2788 2181 
L 2781 2147 
L 2788 2013 
L 2788 647 
Q 2788 353 2820 281 
Q 2853 209 2943 161 
Q 3034 113 3253 113 
L 3253 0 
L 1806 0 
L 1806 113 
Q 2044 113 2133 169 
Q 2222 225 2256 338 
Q 2272 391 2272 647 
L 2272 1878 
Q 2272 2228 2169 2381 
Q 2031 2581 1784 2581 
Q 1616 2581 1450 2491 
Q 1191 2353 1050 2181 
L 1050 647 
Q 1050 366 1089 281 
Q 1128 197 1204 155 
Q 1281 113 1516 113 
L 1516 0 
L 100 0 
L 100 113 
Q 297 113 375 155 
Q 453 197 493 289 
Q 534 381 534 647 
L 534 1741 
Q 534 2213 506 2350 
Q 484 2453 437 2492 
Q 391 2531 309 2531 
Q 222 2531 100 2484 
L 53 2597 
L 916 2947 
L 1050 2947 
L 1050 2338 
z
" transform="scale(0.015625)"/>
       <path id="TimesNewRomanPSMT-25" d="M 2956 2163 
Q 3397 2069 3616 1863 
Q 3919 1575 3919 1159 
Q 3919 844 3719 555 
Q 3519 266 3170 133 
Q 2822 0 2106 0 
L 106 0 
L 106 116 
L 266 116 
Q 531 116 647 284 
Q 719 394 719 750 
L 719 3488 
Q 719 3881 628 3984 
Q 506 4122 266 4122 
L 106 4122 
L 106 4238 
L 1938 4238 
Q 2450 4238 2759 4163 
Q 3228 4050 3475 3764 
Q 3722 3478 3722 3106 
Q 3722 2788 3528 2536 
Q 3334 2284 2956 2163 
z
M 1319 2331 
Q 1434 2309 1582 2298 
Q 1731 2288 1909 2288 
Q 2366 2288 2595 2386 
Q 2825 2484 2947 2687 
Q 3069 2891 3069 3131 
Q 3069 3503 2766 3765 
Q 2463 4028 1881 4028 
Q 1569 4028 1319 3959 
L 1319 2331 
z
M 1319 306 
Q 1681 222 2034 222 
Q 2600 222 2897 476 
Q 3194 731 3194 1106 
Q 3194 1353 3059 1581 
Q 2925 1809 2622 1940 
Q 2319 2072 1872 2072 
Q 1678 2072 1540 2065 
Q 1403 2059 1319 2044 
L 1319 306 
z
" transform="scale(0.015625)"/>
      </defs>
      <use xlink:href="#TimesNewRomanPSMT-2a"/>
      <use xlink:href="#TimesNewRomanPSMT-4f" transform="translate(72.21875 0)"/>
      <use xlink:href="#TimesNewRomanPSMT-52" transform="translate(100 0)"/>
      <use xlink:href="#TimesNewRomanPSMT-45" transform="translate(150 0)"/>
      <use xlink:href="#TimesNewRomanPSMT-44" transform="translate(200 0)"/>
      <use xlink:href="#TimesNewRomanPSMT-4f" transform="translate(244.390625 0)"/>
      <use xlink:href="#TimesNewRomanPSMT-3" transform="translate(272.171875 0)"/>
      <use xlink:href="#TimesNewRomanPSMT-32" transform="translate(297.171875 0)"/>
      <use xlink:href="#TimesNewRomanPSMT-53" transform="translate(369.390625 0)"/>
      <use xlink:href="#TimesNewRomanPSMT-57" transform="translate(419.390625 0)"/>
      <use xlink:href="#TimesNewRomanPSMT-4c" transform="translate(447.171875 0)"/>
      <use xlink:href="#TimesNewRomanPSMT-50" transform="translate(474.953125 0)"/>
      <use xlink:href="#TimesNewRomanPSMT-44" transform="translate(552.734375 0)"/>
      <use xlink:href="#TimesNewRomanPSMT-4f" transform="translate(597.125 0)"/>
      <use xlink:href="#TimesNewRomanPSMT-3" transform="translate(624.90625 0)"/>
      <use xlink:href="#TimesNewRomanPSMT-25" transform="translate(649.90625 0)"/>
      <use xlink:href="#TimesNewRomanPSMT-44" transform="translate(716.609375 0)"/>
      <use xlink:href="#TimesNewRomanPSMT-56" transform="translate(761 0)"/>
      <use xlink:href="#TimesNewRomanPSMT-4c" transform="translate(799.921875 0)"/>
      <use xlink:href="#TimesNewRomanPSMT-51" transform="translate(827.703125 0)"/>
     </g>
    </g>
   </g>
  </g>
 </g>
 <defs>
  <clipPath id="p213ccfb823">
   <rect x="51.710859" y="12.053516" width="489.85707" height="360.675039"/>
  </clipPath>
 </defs>
</svg>
